STARTFONT 2.1
COMMENT 
COMMENT  14x14 JIS X 0213-2000 Kanji Font, Version 0.99a (May 7, 2001)
COMMENT  This bdf font set was rescaled from
COMMENT  jikan16-2000-[12].bdf and merged with k14.bdf and KANOU-patch
COMMENT  by
COMMENT     Toshiyuki Imamura <imamura@mbd.sphere.ne.jp>
COMMENT 
FONT -Misc-Fixed-Medium-R-Normal--14-130-75-75-C-140-JISX0213.2000-2
SIZE 14 75 75
FONTBOUNDINGBOX 14 14 0 -2
STARTPROPERTIES 18
FONT_ASCENT 12
FONT_DESCENT 2
COPYRIGHT "Public Domain"
FONTNAME_REGISTRY ""
FOUNDRY "Misc"
FAMILY_NAME "Fixed"
WEIGHT_NAME "Medium"
SLANT "R"
SETWIDTH_NAME "Normal"
ADD_STYLE_NAME ""
PIXEL_SIZE 14
POINT_SIZE 130
RESOLUTION_X 75
RESOLUTION_Y 75
SPACING "C"
AVERAGE_WIDTH 140
CHARSET_REGISTRY "JISX0213.2000"
CHARSET_ENCODING "2"
ENDPROPERTIES
CHARS 2436
STARTCHAR 02-01-01
ENCODING 8481
SWIDTH 960 0
DWIDTH 14 0
BBX 14 14 0 -2
BITMAP
0000
0000
0400
0400
0400
0ff8
0800
1000
2000
0000
0000
0000
0000
0000
ENDCHAR
STARTCHAR 02-01-02
ENCODING 8482
SWIDTH 960 0
DWIDTH 14 0
BBX 14 14 0 -2
BITMAP
0000
7ffc
0200
0200
0400
07f0
0410
0810
0010
0010
0020
0020
01c0
0000
ENDCHAR
STARTCHAR 02-01-03
ENCODING 8483
SWIDTH 960 0
DWIDTH 14 0
BBX 14 14 0 -2
BITMAP
0000
7ffc
0100
1100
11f0
1110
1110
1ff0
1010
0010
0020
0020
01c0
0000
ENDCHAR
STARTCHAR 02-01-04
ENCODING 8484
SWIDTH 960 0
DWIDTH 14 0
BBX 14 14 0 -2
BITMAP
0000
3ff0
0110
0910
0610
0210
0610
0510
0910
1010
20e0
0000
7ffc
0000
ENDCHAR
STARTCHAR 02-01-05
ENCODING 8485
SWIDTH 960 0
DWIDTH 14 0
BBX 14 14 0 -2
BITMAP
0020
0020
0420
0420
0420
0420
0430
0460
05a0
0620
1820
0020
0020
0020
ENDCHAR
STARTCHAR 02-01-06
ENCODING 8486
SWIDTH 960 0
DWIDTH 14 0
BBX 14 14 0 -2
BITMAP
0000
1010
0820
0440
0280
0300
0100
0100
0100
0100
0100
0100
0100
0000
ENDCHAR
STARTCHAR 02-01-07
ENCODING 8487
SWIDTH 960 0
DWIDTH 14 0
BBX 14 14 0 -2
BITMAP
0000
3fe0
0020
0420
0420
0420
3fa0
0420
0410
3f90
0414
040c
040c
0404
ENDCHAR
STARTCHAR 02-01-08
ENCODING 8488
SWIDTH 960 0
DWIDTH 14 0
BBX 14 14 0 -2
BITMAP
0000
0400
0400
0a00
1200
1100
0100
0100
0080
0080
0040
0020
0010
000c
ENDCHAR
STARTCHAR 02-01-09
ENCODING 8489
SWIDTH 960 0
DWIDTH 14 0
BBX 14 14 0 -2
BITMAP
0020
00c0
1f00
0200
0200
0200
0200
7ffc
0200
0200
0200
0208
0208
01f8
ENDCHAR
STARTCHAR 02-01-10
ENCODING 8490
SWIDTH 960 0
DWIDTH 14 0
BBX 14 14 0 -2
BITMAP
0000
0200
0200
0400
0400
0880
1080
6100
0140
0220
0210
0470
3f88
0008
ENDCHAR
STARTCHAR 02-01-11
ENCODING 8491
SWIDTH 960 0
DWIDTH 14 0
BBX 14 14 0 -2
BITMAP
0040
0180
0e10
0860
0980
0f10
0990
09a0
09c0
1140
1120
1110
210c
4100
ENDCHAR
STARTCHAR 02-01-12
ENCODING 8492
SWIDTH 960 0
DWIDTH 14 0
BBX 14 14 0 -2
BITMAP
0020
00c0
0300
1d00
0108
0508
0990
31a0
01c0
0540
0920
1110
610c
0100
ENDCHAR
STARTCHAR 02-01-13
ENCODING 8493
SWIDTH 960 0
DWIDTH 14 0
BBX 14 14 0 -2
BITMAP
0060
0780
0400
07e0
0420
07e0
0420
07e0
0400
0fe0
0820
1020
2020
01c0
ENDCHAR
STARTCHAR 02-01-14
ENCODING 8494
SWIDTH 960 0
DWIDTH 14 0
BBX 14 14 0 -2
BITMAP
0100
0100
0200
0fe0
0820
0820
0fe0
0820
0800
0ff0
0810
0810
0ff0
0810
ENDCHAR
STARTCHAR 02-01-15
ENCODING 8495
SWIDTH 960 0
DWIDTH 14 0
BBX 14 14 0 -2
BITMAP
0800
0800
0800
0800
0800
0800
0800
0800
0800
0800
0810
0810
0410
03f0
ENDCHAR
STARTCHAR 02-01-16
ENCODING 8496
SWIDTH 960 0
DWIDTH 14 0
BBX 14 14 0 -2
BITMAP
0840
0840
0840
0fc0
0840
0840
0840
7f40
4140
4140
4140
4144
7f44
413c
ENDCHAR
STARTCHAR 02-01-17
ENCODING 8497
SWIDTH 960 0
DWIDTH 14 0
BBX 14 14 0 -2
BITMAP
0200
0240
0460
1f90
1020
2448
7af4
0204
0000
1ff0
0000
0000
7ffc
0000
ENDCHAR
STARTCHAR 02-01-18
ENCODING 8498
SWIDTH 960 0
DWIDTH 14 0
BBX 14 14 0 -2
BITMAP
0100
0100
7ffc
0240
0420
1fd0
0010
0540
0540
0540
0540
0944
1144
603c
ENDCHAR
STARTCHAR 02-01-19
ENCODING 8499
SWIDTH 960 0
DWIDTH 14 0
BBX 14 14 0 -2
BITMAP
0100
7ffc
0820
1450
7ffc
0440
1ff0
0440
7ffc
0510
38a0
0bc0
0c60
3018
ENDCHAR
STARTCHAR 02-01-20
ENCODING 8500
SWIDTH 960 0
DWIDTH 14 0
BBX 14 14 0 -2
BITMAP
0100
7ffc
0000
37d8
3758
2548
3ffc
2008
4fe0
0820
0fe0
0fe0
0820
7ffc
ENDCHAR
STARTCHAR 02-01-21
ENCODING 8501
SWIDTH 960 0
DWIDTH 14 0
BBX 14 14 0 -2
BITMAP
0020
0020
0040
0040
0080
0180
0280
0480
0880
0080
0080
0080
0080
0080
ENDCHAR
STARTCHAR 02-01-22
ENCODING 8502
SWIDTH 960 0
DWIDTH 14 0
BBX 14 14 0 -2
BITMAP
0000
0000
0100
0100
0280
0280
0440
0820
1010
600c
0000
0000
0000
0000
ENDCHAR
STARTCHAR 02-01-23
ENCODING 8503
SWIDTH 960 0
DWIDTH 14 0
BBX 14 14 0 -2
BITMAP
0100
0100
0100
0100
0380
0280
0440
0440
0820
1010
600c
0000
7ffc
0000
ENDCHAR
STARTCHAR 02-01-24
ENCODING 8504
SWIDTH 960 0
DWIDTH 14 0
BBX 14 14 0 -2
BITMAP
0800
0bfc
0820
1020
1020
3020
5020
1020
1020
1020
1020
1020
1020
1060
ENDCHAR
STARTCHAR 02-01-25
ENCODING 8505
SWIDTH 960 0
DWIDTH 14 0
BBX 14 14 0 -2
BITMAP
0800
09e0
0820
1020
1120
3120
5120
1120
1110
1110
1110
1208
1208
1404
ENDCHAR
STARTCHAR 02-01-26
ENCODING 8506
SWIDTH 960 0
DWIDTH 14 0
BBX 14 14 0 -2
BITMAP
0100
0100
0280
0440
0820
1110
610c
0100
0100
7ffc
0100
0100
0100
0100
ENDCHAR
STARTCHAR 02-01-27
ENCODING 8507
SWIDTH 960 0
DWIDTH 14 0
BBX 14 14 0 -2
BITMAP
0880
0880
0900
1120
1220
3220
5440
1040
1080
10a0
1090
1130
13c8
1008
ENDCHAR
STARTCHAR 02-01-28
ENCODING 8508
SWIDTH 960 0
DWIDTH 14 0
BBX 14 14 0 -2
BITMAP
0100
0100
0280
0440
0820
1110
610c
0100
2108
2108
2108
3ff8
2008
2008
ENDCHAR
STARTCHAR 02-01-29
ENCODING 8509
SWIDTH 960 0
DWIDTH 14 0
BBX 14 14 0 -2
BITMAP
0840
0840
08a0
1110
1208
35e4
5000
1000
13f0
1010
1020
1020
1040
1040
ENDCHAR
STARTCHAR 02-01-30
ENCODING 8510
SWIDTH 960 0
DWIDTH 14 0
BBX 14 14 0 -2
BITMAP
0900
0900
09f8
1240
1240
3440
5040
17fc
1040
1040
1040
1040
1040
1040
ENDCHAR
STARTCHAR 02-01-31
ENCODING 8511
SWIDTH 960 0
DWIDTH 14 0
BBX 14 14 0 -2
BITMAP
0870
0910
0910
1110
1110
3208
5248
1444
1080
10a0
1090
1118
13e4
1004
ENDCHAR
STARTCHAR 02-01-32
ENCODING 8512
SWIDTH 960 0
DWIDTH 14 0
BBX 14 14 0 -2
BITMAP
0880
0880
0880
17fc
1080
3080
51f0
1110
1190
12a0
1240
14a0
1910
160c
ENDCHAR
STARTCHAR 02-01-33
ENCODING 8513
SWIDTH 960 0
DWIDTH 14 0
BBX 14 14 0 -2
BITMAP
0800
0ff8
0900
1100
11e0
3120
51a0
1160
1160
1120
1124
11d4
170c
1004
ENDCHAR
STARTCHAR 02-01-34
ENCODING 8514
SWIDTH 960 0
DWIDTH 14 0
BBX 14 14 0 -2
BITMAP
0840
0840
0840
1040
13f8
3248
5248
1248
13f8
1248
1248
1248
13f8
1208
ENDCHAR
STARTCHAR 02-01-35
ENCODING 8515
SWIDTH 960 0
DWIDTH 14 0
BBX 14 14 0 -2
BITMAP
0800
0ffc
0820
1020
1040
3060
50d0
1148
1644
1044
1040
1040
17fc
1000
ENDCHAR
STARTCHAR 02-01-36
ENCODING 8516
SWIDTH 960 0
DWIDTH 14 0
BBX 14 14 0 -2
BITMAP
0840
0840
0840
107c
1040
3040
5040
13f8
1208
1208
1208
1208
13f8
1208
ENDCHAR
STARTCHAR 02-01-37
ENCODING 8517
SWIDTH 960 0
DWIDTH 14 0
BBX 14 14 0 -2
BITMAP
0100
0100
0280
0440
1830
6fec
0000
0000
3ff8
0920
0910
1108
2108
0300
ENDCHAR
STARTCHAR 02-01-38
ENCODING 8518
SWIDTH 960 0
DWIDTH 14 0
BBX 14 14 0 -2
BITMAP
0800
0ffc
0880
1080
17f8
3488
56a8
16a8
16a8
16a8
17e8
1628
1408
1418
ENDCHAR
STARTCHAR 02-01-39
ENCODING 8519
SWIDTH 960 0
DWIDTH 14 0
BBX 14 14 0 -2
BITMAP
0800
09f0
0910
1110
11f0
3110
5110
11f4
1144
1128
1130
1150
1188
1704
ENDCHAR
STARTCHAR 02-01-40
ENCODING 8520
SWIDTH 960 0
DWIDTH 14 0
BBX 14 14 0 -2
BITMAP
0808
0830
0bc0
1040
1040
37fc
5040
1040
13f8
1208
1208
1208
13f8
1208
ENDCHAR
STARTCHAR 02-01-41
ENCODING 8521
SWIDTH 960 0
DWIDTH 14 0
BBX 14 14 0 -2
BITMAP
09c0
0840
08a0
10a0
1110
3208
57fc
1040
1040
11f0
1040
1040
17fc
1000
ENDCHAR
STARTCHAR 02-01-42
ENCODING 8522
SWIDTH 960 0
DWIDTH 14 0
BBX 14 14 0 -2
BITMAP
0880
0880
0880
1080
16fc
30a8
5130
1020
1220
1250
1450
1490
1508
1204
ENDCHAR
STARTCHAR 02-01-43
ENCODING 8523
SWIDTH 960 0
DWIDTH 14 0
BBX 14 14 0 -2
BITMAP
0840
0840
0bfc
1200
1218
33e0
5240
1240
13fc
1240
1240
1444
1844
103c
ENDCHAR
STARTCHAR 02-01-44
ENCODING 8524
SWIDTH 960 0
DWIDTH 14 0
BBX 14 14 0 -2
BITMAP
0840
0840
0ffc
1040
1248
3190
50a0
1048
1090
1330
1060
1090
1108
1604
ENDCHAR
STARTCHAR 02-01-45
ENCODING 8525
SWIDTH 960 0
DWIDTH 14 0
BBX 14 14 0 -2
BITMAP
0840
0840
0bfc
1208
1440
3040
57fc
1090
1090
1190
1160
1030
10c8
1704
ENDCHAR
STARTCHAR 02-01-46
ENCODING 8526
SWIDTH 960 0
DWIDTH 14 0
BBX 14 14 0 -2
BITMAP
0900
0900
09f8
1208
15e8
3128
5128
11e8
1128
1128
11e8
1128
1008
1030
ENDCHAR
STARTCHAR 02-01-47
ENCODING 8527
SWIDTH 960 0
DWIDTH 14 0
BBX 14 14 0 -2
BITMAP
0840
0840
0bf8
1040
13f8
3080
57fc
1110
17fc
1210
1310
1490
1890
1030
ENDCHAR
STARTCHAR 02-01-48
ENCODING 8528
SWIDTH 960 0
DWIDTH 14 0
BBX 14 14 0 -2
BITMAP
0800
0bfc
0a00
1200
12f8
3200
53fc
12c8
12c8
12b0
14a0
1490
18c8
1304
ENDCHAR
STARTCHAR 02-01-49
ENCODING 8529
SWIDTH 960 0
DWIDTH 14 0
BBX 14 14 0 -2
BITMAP
0840
0848
0bf8
1048
1050
3ffc
5080
11f0
1220
1c40
17fc
1040
1040
10c0
ENDCHAR
STARTCHAR 02-01-50
ENCODING 8530
SWIDTH 960 0
DWIDTH 14 0
BBX 14 14 0 -2
BITMAP
0850
0848
1848
17fc
1040
3248
5168
1170
1050
10d0
1148
1644
1040
10c0
ENDCHAR
STARTCHAR 02-01-51
ENCODING 8531
SWIDTH 960 0
DWIDTH 14 0
BBX 14 14 0 -2
BITMAP
0800
09f0
0910
11f0
1000
33f8
5248
1248
13f8
1208
1200
1204
1204
11fc
ENDCHAR
STARTCHAR 02-01-52
ENCODING 8532
SWIDTH 960 0
DWIDTH 14 0
BBX 14 14 0 -2
BITMAP
0840
0950
0948
1244
1444
33f8
5208
13f8
1208
13f8
1208
1208
1208
1218
ENDCHAR
STARTCHAR 02-01-53
ENCODING 8533
SWIDTH 960 0
DWIDTH 14 0
BBX 14 14 0 -2
BITMAP
0840
0840
0bfc
1208
15f0
3000
5000
17fc
10a0
10a0
10a0
1124
1224
141c
ENDCHAR
STARTCHAR 02-01-54
ENCODING 8534
SWIDTH 960 0
DWIDTH 14 0
BBX 14 14 0 -2
BITMAP
0840
0840
0ffc
1110
10e0
31b0
571c
11f0
1110
11f0
1110
1110
1210
1410
ENDCHAR
STARTCHAR 02-01-55
ENCODING 8535
SWIDTH 960 0
DWIDTH 14 0
BBX 14 14 0 -2
BITMAP
1220
1220
1220
2fa0
2578
65a8
28a8
3528
2628
2228
2548
2548
2888
3130
ENDCHAR
STARTCHAR 02-01-56
ENCODING 8536
SWIDTH 960 0
DWIDTH 14 0
BBX 14 14 0 -2
BITMAP
0800
09f8
0900
11f0
1100
31f0
5100
17fc
1148
1150
1120
1150
1188
1604
ENDCHAR
STARTCHAR 02-01-57
ENCODING 8537
SWIDTH 960 0
DWIDTH 14 0
BBX 14 14 0 -2
BITMAP
0840
0840
0cf8
1510
16a0
34e0
571c
1440
1548
1548
16f0
14a0
1110
120c
ENDCHAR
STARTCHAR 02-01-58
ENCODING 8538
SWIDTH 960 0
DWIDTH 14 0
BBX 14 14 0 -2
BITMAP
0840
0848
0a48
12d0
14a0
3118
5644
1048
1248
12d0
14a0
1120
1210
140c
ENDCHAR
STARTCHAR 02-01-59
ENCODING 8539
SWIDTH 960 0
DWIDTH 14 0
BBX 14 14 0 -2
BITMAP
0800
0bf8
0a48
1248
13f8
3248
53f8
1248
13e8
1328
1328
15e8
1528
1818
ENDCHAR
STARTCHAR 02-01-60
ENCODING 8540
SWIDTH 960 0
DWIDTH 14 0
BBX 14 14 0 -2
BITMAP
0880
0880
0ffc
1000
13f0
3210
5210
13f0
1080
12a0
1290
1488
1888
1180
ENDCHAR
STARTCHAR 02-01-61
ENCODING 8541
SWIDTH 960 0
DWIDTH 14 0
BBX 14 14 0 -2
BITMAP
0840
0ffc
0840
13f8
1048
37fc
5048
13f8
1040
1178
1140
1340
14c0
183c
ENDCHAR
STARTCHAR 02-01-62
ENCODING 8542
SWIDTH 960 0
DWIDTH 14 0
BBX 14 14 0 -2
BITMAP
0800
0bf8
0a08
1208
13f8
3100
51f8
1240
1040
17fc
1060
1090
1308
1c04
ENDCHAR
STARTCHAR 02-01-63
ENCODING 8543
SWIDTH 960 0
DWIDTH 14 0
BBX 14 14 0 -2
BITMAP
0910
0890
08a0
17fc
1000
33a8
52a8
12a8
13a8
12a8
13a8
1288
1288
1398
ENDCHAR
STARTCHAR 02-01-64
ENCODING 8544
SWIDTH 960 0
DWIDTH 14 0
BBX 14 14 0 -2
BITMAP
0840
0840
0bf8
1040
11f0
30a0
57fc
1110
13f8
1514
11f0
1110
11f0
1110
ENDCHAR
STARTCHAR 02-01-65
ENCODING 8545
SWIDTH 960 0
DWIDTH 14 0
BBX 14 14 0 -2
BITMAP
0800
0bf8
0a48
13f8
1248
33f8
5000
17fc
1288
1250
1260
1290
1308
1e04
ENDCHAR
STARTCHAR 02-01-66
ENCODING 8546
SWIDTH 960 0
DWIDTH 14 0
BBX 14 14 0 -2
BITMAP
0800
0bf8
0a08
13f8
1200
33f8
5260
1290
13e8
1440
17f8
1840
17fc
1000
ENDCHAR
STARTCHAR 02-01-67
ENCODING 8547
SWIDTH 960 0
DWIDTH 14 0
BBX 14 14 0 -2
BITMAP
0840
0950
0a48
14d4
1020
30c0
57f8
1108
11f8
1108
11f8
1108
11f8
1108
ENDCHAR
STARTCHAR 02-01-68
ENCODING 8548
SWIDTH 960 0
DWIDTH 14 0
BBX 14 14 0 -2
BITMAP
0840
0840
0bf8
1110
10a0
37fc
5000
11f0
1110
11f0
1110
1110
11f0
1110
ENDCHAR
STARTCHAR 02-01-69
ENCODING 8549
SWIDTH 960 0
DWIDTH 14 0
BBX 14 14 0 -2
BITMAP
0800
0ffc
0888
12f0
1380
327c
5400
13f8
1208
13f8
1208
13f8
1208
1218
ENDCHAR
STARTCHAR 02-01-70
ENCODING 8550
SWIDTH 960 0
DWIDTH 14 0
BBX 14 14 0 -2
BITMAP
0800
0bf8
0800
11f0
1110
31f0
5000
13f8
1248
13f8
1248
1248
13f8
1208
ENDCHAR
STARTCHAR 02-01-71
ENCODING 8551
SWIDTH 960 0
DWIDTH 14 0
BBX 14 14 0 -2
BITMAP
0a00
0af8
0ba8
1e28
13a8
3e28
53c8
1e58
1080
1ffc
1080
1140
1230
1c0c
ENDCHAR
STARTCHAR 02-01-72
ENCODING 8552
SWIDTH 960 0
DWIDTH 14 0
BBX 14 14 0 -2
BITMAP
0840
0840
0ffc
1040
13f8
30a0
57fc
1150
1248
1554
10e0
1150
164c
10c0
ENDCHAR
STARTCHAR 02-01-73
ENCODING 8553
SWIDTH 960 0
DWIDTH 14 0
BBX 14 14 0 -2
BITMAP
0800
0ffc
08a0
13f8
12a8
32a8
53f8
1040
17fc
10e0
1150
1248
1444
1040
ENDCHAR
STARTCHAR 02-01-74
ENCODING 8554
SWIDTH 960 0
DWIDTH 14 0
BBX 14 14 0 -2
BITMAP
0818
0bf0
0a88
1244
1454
3190
50a0
1050
13f8
1048
17fc
10a0
1110
160c
ENDCHAR
STARTCHAR 02-01-75
ENCODING 8555
SWIDTH 960 0
DWIDTH 14 0
BBX 14 14 0 -2
BITMAP
0818
0be0
0a00
13f8
1208
33f8
5200
13fc
12cc
1374
14cc
1774
1844
10cc
ENDCHAR
STARTCHAR 02-01-76
ENCODING 8556
SWIDTH 960 0
DWIDTH 14 0
BBX 14 14 0 -2
BITMAP
0880
0880
0bfc
1288
1510
3120
53fc
1620
1bf8
1220
13f8
1220
13fc
1200
ENDCHAR
STARTCHAR 02-01-77
ENCODING 8557
SWIDTH 960 0
DWIDTH 14 0
BBX 14 14 0 -2
BITMAP
0840
0840
08a0
11f0
1208
35f4
5110
11f0
11f0
1200
13f8
1508
19f8
1108
ENDCHAR
STARTCHAR 02-01-78
ENCODING 8558
SWIDTH 960 0
DWIDTH 14 0
BBX 14 14 0 -2
BITMAP
0840
08f8
0948
16b0
10e0
3780
51f8
1240
17fc
1040
1248
1248
13f8
1208
ENDCHAR
STARTCHAR 02-01-79
ENCODING 8559
SWIDTH 960 0
DWIDTH 14 0
BBX 14 14 0 -2
BITMAP
0840
0890
0bf8
1110
1198
3264
57fc
10a0
1350
1dac
1048
1190
1060
1380
ENDCHAR
STARTCHAR 02-01-80
ENCODING 8560
SWIDTH 960 0
DWIDTH 14 0
BBX 14 14 0 -2
BITMAP
0800
0bf8
0a48
13f8
1248
33f8
5150
17fc
1150
13f8
1040
17fc
1040
1040
ENDCHAR
STARTCHAR 02-01-81
ENCODING 8561
SWIDTH 960 0
DWIDTH 14 0
BBX 14 14 0 -2
BITMAP
0948
0948
0a48
12b4
1524
3110
5110
1250
165c
1250
1250
12b0
1290
130c
ENDCHAR
STARTCHAR 02-01-82
ENCODING 8562
SWIDTH 960 0
DWIDTH 14 0
BBX 14 14 0 -2
BITMAP
0900
09f8
0b48
12e8
12b0
3590
51f8
1604
17f8
1040
1150
1248
1448
10c0
ENDCHAR
STARTCHAR 02-01-83
ENCODING 8563
SWIDTH 960 0
DWIDTH 14 0
BBX 14 14 0 -2
BITMAP
0840
0bf8
0aa8
1248
13a8
33f8
5124
129c
14f0
1110
1320
14c0
11b0
1e0c
ENDCHAR
STARTCHAR 02-01-84
ENCODING 8564
SWIDTH 960 0
DWIDTH 14 0
BBX 14 14 0 -2
BITMAP
0800
0ffc
08a0
13f8
12a8
33f8
5000
13f8
1000
17fc
1150
1248
1448
10c0
ENDCHAR
STARTCHAR 02-01-85
ENCODING 8565
SWIDTH 960 0
DWIDTH 14 0
BBX 14 14 0 -2
BITMAP
0800
0bf8
08d8
1168
12d8
3168
5248
11b0
164c
11a0
1048
1190
1060
1380
ENDCHAR
STARTCHAR 02-01-86
ENCODING 8566
SWIDTH 960 0
DWIDTH 14 0
BBX 14 14 0 -2
BITMAP
0800
0ffc
08a0
13f8
12a8
32a8
53f8
1248
1150
17fc
10e0
1150
164c
1040
ENDCHAR
STARTCHAR 02-01-87
ENCODING 8567
SWIDTH 960 0
DWIDTH 14 0
BBX 14 14 0 -2
BITMAP
0800
0bf8
0b58
12d8
12e8
33f8
5040
13f8
1040
17fc
1000
1348
12a4
14a4
ENDCHAR
STARTCHAR 02-01-88
ENCODING 8568
SWIDTH 960 0
DWIDTH 14 0
BBX 14 14 0 -2
BITMAP
0800
0ff8
0cc8
17f8
1440
34c8
53b8
1120
17f8
1120
1ffc
1110
1208
1408
ENDCHAR
STARTCHAR 02-01-89
ENCODING 8569
SWIDTH 960 0
DWIDTH 14 0
BBX 14 14 0 -2
BITMAP
0920
0bfc
0a20
17f8
1620
3bf8
5220
13fc
1040
17fc
10e0
1150
164c
1040
ENDCHAR
STARTCHAR 02-01-90
ENCODING 8570
SWIDTH 960 0
DWIDTH 14 0
BBX 14 14 0 -2
BITMAP
0970
0910
0bf8
14a4
13f8
32b8
5318
13f8
13f8
1010
17fc
1110
1090
1030
ENDCHAR
STARTCHAR 02-01-91
ENCODING 8571
SWIDTH 960 0
DWIDTH 14 0
BBX 14 14 0 -2
BITMAP
0920
0920
0ffc
1120
11e0
37fc
53f8
1248
13f8
1248
13f8
1120
1110
1208
ENDCHAR
STARTCHAR 02-01-92
ENCODING 8572
SWIDTH 960 0
DWIDTH 14 0
BBX 14 14 0 -2
BITMAP
0840
0ffc
0840
13f8
1248
33f8
5248
13f8
1048
17fc
1040
1528
1514
18f4
ENDCHAR
STARTCHAR 02-01-93
ENCODING 8573
SWIDTH 960 0
DWIDTH 14 0
BBX 14 14 0 -2
BITMAP
0800
0f78
0d48
1778
1548
3778
5408
15e8
1528
15e8
1528
15e8
1528
1638
ENDCHAR
STARTCHAR 02-01-94
ENCODING 8574
SWIDTH 960 0
DWIDTH 14 0
BBX 14 14 0 -2
BITMAP
08a0
0aa8
09b0
17fc
10a0
33f8
5040
13f8
1040
17fc
10e0
1150
164c
1040
ENDCHAR
STARTCHAR 02-03-01
ENCODING 8993
SWIDTH 960 0
DWIDTH 14 0
BBX 14 14 0 -2
BITMAP
0840
08a0
09f0
160c
13f8
3358
52e8
13f8
11f0
1110
11f0
1110
11f0
1110
ENDCHAR
STARTCHAR 02-03-02
ENCODING 8994
SWIDTH 960 0
DWIDTH 14 0
BBX 14 14 0 -2
BITMAP
0800
0ffc
08a0
13f8
12a8
33f8
5000
13f8
12e8
1248
12e8
1258
12e8
13f8
ENDCHAR
STARTCHAR 02-03-03
ENCODING 8995
SWIDTH 960 0
DWIDTH 14 0
BBX 14 14 0 -2
BITMAP
1400
15fc
1628
1490
3390
347c
5798
1a50
1fdc
1250
1350
12f0
1490
190c
ENDCHAR
STARTCHAR 02-03-04
ENCODING 8996
SWIDTH 960 0
DWIDTH 14 0
BBX 14 14 0 -2
BITMAP
1100
1100
13f8
15d0
3ffc
31d0
53f8
1210
13fc
14b0
1ad0
117c
1210
1c10
ENDCHAR
STARTCHAR 02-03-05
ENCODING 8997
SWIDTH 960 0
DWIDTH 14 0
BBX 14 14 0 -2
BITMAP
1288
1150
17fc
1410
37d0
3490
57dc
1568
15c8
15e8
1950
1fd8
1068
1044
ENDCHAR
STARTCHAR 02-03-06
ENCODING 8998
SWIDTH 960 0
DWIDTH 14 0
BBX 14 14 0 -2
BITMAP
08a0
0920
0ba4
7ab8
0ba0
0aa0
3ba4
481c
0480
0480
0480
0884
1084
607c
ENDCHAR
STARTCHAR 02-03-07
ENCODING 8999
SWIDTH 960 0
DWIDTH 14 0
BBX 14 14 0 -2
BITMAP
0000
0100
0920
0910
1108
3ff8
0288
0440
7ffc
0820
1010
600c
0000
0000
ENDCHAR
STARTCHAR 02-03-08
ENCODING 9000
SWIDTH 960 0
DWIDTH 14 0
BBX 14 14 0 -2
BITMAP
0820
0420
0440
1ff0
0100
0100
0100
3ff8
0100
0280
0280
0440
0820
3018
ENDCHAR
STARTCHAR 02-03-09
ENCODING 9001
SWIDTH 960 0
DWIDTH 14 0
BBX 14 14 0 -2
BITMAP
0000
1ff0
1010
1010
1010
17d0
1010
1010
17d0
1010
1010
1010
1010
1030
ENDCHAR
STARTCHAR 02-03-10
ENCODING 9002
SWIDTH 960 0
DWIDTH 14 0
BBX 14 14 0 -2
BITMAP
0000
3ff8
2008
2008
27c8
2448
2448
2448
2448
27c8
2448
2008
2008
2018
ENDCHAR
STARTCHAR 02-03-11
ENCODING 9003
SWIDTH 960 0
DWIDTH 14 0
BBX 14 14 0 -2
BITMAP
0440
0440
7ffc
0440
07c0
0100
3ff8
2108
2d68
2528
2b58
3398
2108
2118
ENDCHAR
STARTCHAR 02-03-12
ENCODING 9004
SWIDTH 960 0
DWIDTH 14 0
BBX 14 14 0 -2
BITMAP
0100
0100
0100
0100
1ff8
1110
2100
0100
0180
0280
0280
0484
0884
307c
ENDCHAR
STARTCHAR 02-03-13
ENCODING 9005
SWIDTH 960 0
DWIDTH 14 0
BBX 14 14 0 -2
BITMAP
0000
3ffc
2008
4000
7ff8
1288
1e88
1248
1e50
1220
1260
1e90
6308
0204
ENDCHAR
STARTCHAR 02-03-14
ENCODING 9006
SWIDTH 960 0
DWIDTH 14 0
BBX 14 14 0 -2
BITMAP
0100
0100
0100
7ffc
0280
0440
0820
1010
630c
0080
0000
01c0
0600
0800
ENDCHAR
STARTCHAR 02-03-15
ENCODING 9007
SWIDTH 960 0
DWIDTH 14 0
BBX 14 14 0 -2
BITMAP
0008
0070
23c0
1040
1040
0040
07fc
1040
10e0
20a0
2110
4210
4408
0804
ENDCHAR
STARTCHAR 02-03-16
ENCODING 9008
SWIDTH 960 0
DWIDTH 14 0
BBX 14 14 0 -2
BITMAP
0040
0140
2140
11f8
1240
0440
07fc
10a0
10a0
2120
2120
4224
4424
081c
ENDCHAR
STARTCHAR 02-03-17
ENCODING 9009
SWIDTH 960 0
DWIDTH 14 0
BBX 14 14 0 -2
BITMAP
0120
0110
2208
1248
1440
00a0
0120
1210
17f8
2a14
2210
4210
43f0
0210
ENDCHAR
STARTCHAR 02-03-18
ENCODING 9010
SWIDTH 960 0
DWIDTH 14 0
BBX 14 14 0 -2
BITMAP
0000
1ff0
1010
1010
1010
1010
1010
1010
1010
1010
1014
200c
200c
4004
ENDCHAR
STARTCHAR 02-03-19
ENCODING 9011
SWIDTH 960 0
DWIDTH 14 0
BBX 14 14 0 -2
BITMAP
0e90
22a4
1448
1ff0
6fec
0820
0fe0
0440
3ff8
0000
0fc0
0844
1044
203c
ENDCHAR
STARTCHAR 02-03-20
ENCODING 9012
SWIDTH 960 0
DWIDTH 14 0
BBX 14 14 0 -2
BITMAP
23f8
1240
13f0
03f0
1240
23fc
4004
46a4
095c
0000
0fc0
0844
1044
203c
ENDCHAR
STARTCHAR 02-03-21
ENCODING 9013
SWIDTH 960 0
DWIDTH 14 0
BBX 14 14 0 -2
BITMAP
0020
0420
0420
0420
0420
0420
0420
0420
0420
0420
0020
0020
0020
00e0
ENDCHAR
STARTCHAR 02-03-22
ENCODING 9014
SWIDTH 960 0
DWIDTH 14 0
BBX 14 14 0 -2
BITMAP
1408
1248
1248
1048
7fc8
1048
1248
0a48
0a48
0c48
0408
0a88
1188
6098
ENDCHAR
STARTCHAR 02-03-23
ENCODING 9015
SWIDTH 960 0
DWIDTH 14 0
BBX 14 14 0 -2
BITMAP
0008
1f48
1148
1148
1f48
1148
1148
1f48
1148
1148
1148
2108
2108
4318
ENDCHAR
STARTCHAR 02-03-24
ENCODING 9016
SWIDTH 960 0
DWIDTH 14 0
BBX 14 14 0 -2
BITMAP
0800
09f8
1448
1248
3e48
4948
3e48
2a48
2a48
3e48
1488
1288
2308
4230
ENDCHAR
STARTCHAR 02-03-25
ENCODING 9017
SWIDTH 960 0
DWIDTH 14 0
BBX 14 14 0 -2
BITMAP
0a08
0a48
0a48
7bc8
0a48
0a48
7bc8
0a48
0a48
7bc8
1248
1208
2208
4218
ENDCHAR
STARTCHAR 02-03-26
ENCODING 9018
SWIDTH 960 0
DWIDTH 14 0
BBX 14 14 0 -2
BITMAP
0408
0428
3fa8
2128
5028
1fa8
16a8
16a8
2ea8
2ba8
4a28
1248
2248
41d8
ENDCHAR
STARTCHAR 02-03-27
ENCODING 9019
SWIDTH 960 0
DWIDTH 14 0
BBX 14 14 0 -2
BITMAP
0808
4948
4948
7f48
0048
7f48
0848
7f48
5548
5548
5548
5508
5508
4318
ENDCHAR
STARTCHAR 02-03-28
ENCODING 9020
SWIDTH 960 0
DWIDTH 14 0
BBX 14 14 0 -2
BITMAP
0408
3fa8
0928
0628
1928
3fa8
2a28
2fa8
3228
2f28
2228
2208
4388
1c18
ENDCHAR
STARTCHAR 02-03-29
ENCODING 9021
SWIDTH 960 0
DWIDTH 14 0
BBX 14 14 0 -2
BITMAP
1108
1128
3fe8
3328
4ca8
0a28
0a28
1f28
60e8
1f28
1128
1108
1f08
1118
ENDCHAR
STARTCHAR 02-03-30
ENCODING 9022
SWIDTH 960 0
DWIDTH 14 0
BBX 14 14 0 -2
BITMAP
0008
3fe8
3328
2b28
2de8
3fa8
29e8
3aa8
3aa8
3ea8
3aa8
4948
4948
5238
ENDCHAR
STARTCHAR 02-03-31
ENCODING 9023
SWIDTH 960 0
DWIDTH 14 0
BBX 14 14 0 -2
BITMAP
1008
6748
4548
5548
6b48
0048
7f48
1448
7748
4148
7748
1408
1f08
6018
ENDCHAR
STARTCHAR 02-03-32
ENCODING 9024
SWIDTH 960 0
DWIDTH 14 0
BBX 14 14 0 -2
BITMAP
0208
3fe8
2928
3fe8
3b68
3fe8
2de8
2528
3de8
2528
3de8
4708
59c8
0918
ENDCHAR
STARTCHAR 02-03-33
ENCODING 9025
SWIDTH 960 0
DWIDTH 14 0
BBX 14 14 0 -2
BITMAP
0040
3e40
0040
01f8
0048
7f48
1448
1448
1488
1488
1530
2404
2404
43fc
ENDCHAR
STARTCHAR 02-03-34
ENCODING 9026
SWIDTH 960 0
DWIDTH 14 0
BBX 14 14 0 -2
BITMAP
0140
0240
1c40
1040
10f8
1f48
1448
1448
1448
1448
2488
2488
4508
0630
ENDCHAR
STARTCHAR 02-03-35
ENCODING 9027
SWIDTH 960 0
DWIDTH 14 0
BBX 14 14 0 -2
BITMAP
0100
0100
1ff0
0110
0210
0410
1860
1020
7efc
1224
1224
2244
2244
4e9c
ENDCHAR
STARTCHAR 02-03-36
ENCODING 9028
SWIDTH 960 0
DWIDTH 14 0
BBX 14 14 0 -2
BITMAP
0040
7c40
1040
1040
13f8
3c48
2448
6448
2448
2448
3c88
2488
2108
0230
ENDCHAR
STARTCHAR 02-03-37
ENCODING 9029
SWIDTH 960 0
DWIDTH 14 0
BBX 14 14 0 -2
BITMAP
1040
1040
1440
2240
7df8
2848
2848
3e48
2848
4848
7f88
0888
0908
0a30
ENDCHAR
STARTCHAR 02-03-38
ENCODING 9030
SWIDTH 960 0
DWIDTH 14 0
BBX 14 14 0 -2
BITMAP
0040
7f40
4040
7e40
49f8
4848
5c48
4848
4848
4848
7e88
4088
7f08
0230
ENDCHAR
STARTCHAR 02-03-39
ENCODING 9031
SWIDTH 960 0
DWIDTH 14 0
BBX 14 14 0 -2
BITMAP
0840
0840
7f40
0840
3ff8
2248
2248
3e48
3688
1488
1508
1630
2404
43fc
ENDCHAR
STARTCHAR 02-03-40
ENCODING 9032
SWIDTH 960 0
DWIDTH 14 0
BBX 14 14 0 -2
BITMAP
2840
2840
3ff0
4850
09d0
3e50
0870
0e94
710c
0100
3ff0
0210
0c10
3060
ENDCHAR
STARTCHAR 02-03-41
ENCODING 9033
SWIDTH 960 0
DWIDTH 14 0
BBX 14 14 0 -2
BITMAP
0840
0840
0840
7f40
2af8
2a48
2a48
5d48
5d48
1c48
2a88
2a88
4908
0830
ENDCHAR
STARTCHAR 02-03-42
ENCODING 9034
SWIDTH 960 0
DWIDTH 14 0
BBX 14 14 0 -2
BITMAP
0440
3fc0
2a40
3fc0
2af8
2e48
3fc8
3f48
3548
3f48
3548
3f88
4a88
5130
ENDCHAR
STARTCHAR 02-03-43
ENCODING 9035
SWIDTH 960 0
DWIDTH 14 0
BBX 14 14 0 -2
BITMAP
0840
7f40
7740
5540
77f8
1448
7f48
3e48
1448
7f48
1a88
6688
3b08
6130
ENDCHAR
STARTCHAR 02-03-44
ENCODING 9036
SWIDTH 960 0
DWIDTH 14 0
BBX 14 14 0 -2
BITMAP
0800
0800
1ff8
1008
2208
5248
0a48
0a88
3fe8
0708
0a88
1268
2208
0230
ENDCHAR
STARTCHAR 02-03-45
ENCODING 9037
SWIDTH 960 0
DWIDTH 14 0
BBX 14 14 0 -2
BITMAP
0800
0800
1ff8
1408
2408
4fc8
1208
3fe8
0208
1248
1248
1fc8
1048
0030
ENDCHAR
STARTCHAR 02-03-46
ENCODING 9038
SWIDTH 960 0
DWIDTH 14 0
BBX 14 14 0 -2
BITMAP
0000
3ff8
2000
2fe0
2100
2100
2fe0
2100
2140
2120
3ff0
2000
3ffc
2000
ENDCHAR
STARTCHAR 02-03-47
ENCODING 9039
SWIDTH 960 0
DWIDTH 14 0
BBX 14 14 0 -2
BITMAP
0000
3ff8
2100
2ff0
27e0
2ff0
2a90
2ff0
27e0
27e0
27e0
2e70
3ffc
2000
ENDCHAR
STARTCHAR 02-03-48
ENCODING 9040
SWIDTH 960 0
DWIDTH 14 0
BBX 14 14 0 -2
BITMAP
0000
7ffc
2060
2780
27e0
2420
27e0
2400
2ff0
2d50
37f0
2550
1ff8
0000
ENDCHAR
STARTCHAR 02-03-49
ENCODING 9041
SWIDTH 960 0
DWIDTH 14 0
BBX 14 14 0 -2
BITMAP
0000
7fe0
0020
0420
0420
0420
0420
7fe0
0420
0420
0414
0414
040c
0004
ENDCHAR
STARTCHAR 02-03-50
ENCODING 9042
SWIDTH 960 0
DWIDTH 14 0
BBX 14 14 0 -2
BITMAP
0040
0040
0440
0440
1f40
0440
0440
0078
07c0
3840
0040
0040
0040
0040
ENDCHAR
STARTCHAR 02-03-51
ENCODING 9043
SWIDTH 960 0
DWIDTH 14 0
BBX 14 14 0 -2
BITMAP
0100
0100
3ff8
0100
0fe0
0820
0fe0
0820
0fe0
0100
7ffc
0100
0100
0100
ENDCHAR
STARTCHAR 02-03-52
ENCODING 9044
SWIDTH 960 0
DWIDTH 14 0
BBX 14 14 0 -2
BITMAP
0040
7f40
4840
4840
7e60
4250
4248
4244
7e44
4840
4840
7f40
4040
0040
ENDCHAR
STARTCHAR 02-03-53
ENCODING 9045
SWIDTH 960 0
DWIDTH 14 0
BBX 14 14 0 -2
BITMAP
0100
0600
18f8
1088
1088
1088
1088
1088
1388
1c88
70b0
0080
0080
0080
ENDCHAR
STARTCHAR 02-03-54
ENCODING 9046
SWIDTH 960 0
DWIDTH 14 0
BBX 14 14 0 -2
BITMAP
0000
1fe0
0048
3d88
0550
1930
630c
1ff0
0000
1fe0
1020
11c0
1008
0ff8
ENDCHAR
STARTCHAR 02-03-55
ENCODING 9047
SWIDTH 960 0
DWIDTH 14 0
BBX 14 14 0 -2
BITMAP
0000
3ffc
2000
2318
3ce0
2420
3ffc
2420
2e70
2d70
35b0
5528
4424
0420
ENDCHAR
STARTCHAR 02-03-56
ENCODING 9048
SWIDTH 960 0
DWIDTH 14 0
BBX 14 14 0 -2
BITMAP
0000
1ffc
1928
1ffc
1f20
1f60
1f50
198c
17f0
1490
17f0
2490
27f0
4080
ENDCHAR
STARTCHAR 02-03-57
ENCODING 9049
SWIDTH 960 0
DWIDTH 14 0
BBX 14 14 0 -2
BITMAP
0000
0100
0100
0100
7ffc
0200
0200
0440
0420
08f0
3f08
0008
0000
0000
ENDCHAR
STARTCHAR 02-03-58
ENCODING 9050
SWIDTH 960 0
DWIDTH 14 0
BBX 14 14 0 -2
BITMAP
0200
0200
0200
7ffc
0400
0480
0880
0880
1100
2120
4210
0438
1fc4
0004
ENDCHAR
STARTCHAR 02-03-59
ENCODING 9051
SWIDTH 960 0
DWIDTH 14 0
BBX 14 14 0 -2
BITMAP
0100
0100
7ffc
0100
1ff0
1110
1ff0
1110
1ff0
0220
0210
0478
3f84
0004
ENDCHAR
STARTCHAR 02-03-60
ENCODING 9052
SWIDTH 960 0
DWIDTH 14 0
BBX 14 14 0 -2
BITMAP
0000
1fe0
1020
1020
10c0
1000
1fe0
1820
1440
1280
1180
1340
1c20
1018
ENDCHAR
STARTCHAR 02-03-61
ENCODING 9053
SWIDTH 960 0
DWIDTH 14 0
BBX 14 14 0 -2
BITMAP
0100
0100
7ffc
0100
0fe0
0820
0fe0
0800
3ff0
0420
0240
0180
0660
781c
ENDCHAR
STARTCHAR 02-03-62
ENCODING 9054
SWIDTH 960 0
DWIDTH 14 0
BBX 14 14 0 -2
BITMAP
0000
3ff8
2148
2148
3f48
2450
2450
3f50
3520
5520
5550
1750
1488
0504
ENDCHAR
STARTCHAR 02-03-63
ENCODING 9055
SWIDTH 960 0
DWIDTH 14 0
BBX 14 14 0 -2
BITMAP
0000
7ff8
2288
1450
1860
2cb0
430c
0000
7ff8
2288
1450
1860
2cb0
430c
ENDCHAR
STARTCHAR 02-03-64
ENCODING 9056
SWIDTH 960 0
DWIDTH 14 0
BBX 14 14 0 -2
BITMAP
0000
3ef8
2208
2208
3ef8
2208
2000
3df8
2108
2090
3c50
2020
20d8
2304
ENDCHAR
STARTCHAR 02-03-65
ENCODING 9057
SWIDTH 960 0
DWIDTH 14 0
BBX 14 14 0 -2
BITMAP
07c0
0040
0840
0820
1020
1010
2008
4fe4
0820
0820
0820
0820
0fe0
0820
ENDCHAR
STARTCHAR 02-03-66
ENCODING 9058
SWIDTH 960 0
DWIDTH 14 0
BBX 14 14 0 -2
BITMAP
0200
0200
3fc0
0240
0440
0844
1044
603c
0fe0
0820
0820
0820
0fe0
0820
ENDCHAR
STARTCHAR 02-03-67
ENCODING 9059
SWIDTH 960 0
DWIDTH 14 0
BBX 14 14 0 -2
BITMAP
0000
3ff8
2000
2000
27e0
2420
2420
2420
27e0
2420
2000
2000
3ffc
2000
ENDCHAR
STARTCHAR 02-03-68
ENCODING 9060
SWIDTH 960 0
DWIDTH 14 0
BBX 14 14 0 -2
BITMAP
0000
01fc
7900
4908
4908
4950
4930
4910
4928
4948
7988
4900
41fc
0100
ENDCHAR
STARTCHAR 02-03-69
ENCODING 9061
SWIDTH 960 0
DWIDTH 14 0
BBX 14 14 0 -2
BITMAP
0040
0040
78a0
4910
4a08
4d14
4910
4910
4910
4910
7910
4a10
4210
0410
ENDCHAR
STARTCHAR 02-03-70
ENCODING 9062
SWIDTH 960 0
DWIDTH 14 0
BBX 14 14 0 -2
BITMAP
0040
004c
7870
4bc0
4848
4a48
4a48
4a48
4bf8
4a48
7840
4844
4044
003c
ENDCHAR
STARTCHAR 02-03-71
ENCODING 9063
SWIDTH 960 0
DWIDTH 14 0
BBX 14 14 0 -2
BITMAP
00a0
0090
7908
4a04
4d14
4910
4910
48a0
48a0
4840
7840
48a0
4110
060c
ENDCHAR
STARTCHAR 02-03-72
ENCODING 9064
SWIDTH 960 0
DWIDTH 14 0
BBX 14 14 0 -2
BITMAP
0000
03fc
7a00
4a00
4af8
4a88
4a88
4a88
4a88
4ab0
7a80
4484
4484
087c
ENDCHAR
STARTCHAR 02-03-73
ENCODING 9065
SWIDTH 960 0
DWIDTH 14 0
BBX 14 14 0 -2
BITMAP
0000
03f8
7a08
4a08
4bf8
4a88
4a80
4a98
4ae0
4a80
7a80
4484
4484
087c
ENDCHAR
STARTCHAR 02-03-74
ENCODING 9066
SWIDTH 960 0
DWIDTH 14 0
BBX 14 14 0 -2
BITMAP
0220
0220
7220
54a0
54f8
5928
5528
5228
5328
54a8
75c8
4e48
1888
0110
ENDCHAR
STARTCHAR 02-03-75
ENCODING 9067
SWIDTH 960 0
DWIDTH 14 0
BBX 14 14 0 -2
BITMAP
0000
03f8
7aa8
4aa8
4aa8
4aa8
4aa8
4aa8
4b28
4b18
7a08
4a08
43f8
0208
ENDCHAR
STARTCHAR 02-03-76
ENCODING 9068
SWIDTH 960 0
DWIDTH 14 0
BBX 14 14 0 -2
BITMAP
0010
0060
7bc0
4840
4840
4ffc
4840
48e0
48e0
4950
7a48
4444
4840
0040
ENDCHAR
STARTCHAR 02-03-77
ENCODING 9069
SWIDTH 960 0
DWIDTH 14 0
BBX 14 14 0 -2
BITMAP
0080
0080
7880
48a0
4910
4938
4fc4
4800
4bf8
4a08
7a08
4a08
43f8
0208
ENDCHAR
STARTCHAR 02-03-78
ENCODING 9070
SWIDTH 960 0
DWIDTH 14 0
BBX 14 14 0 -2
BITMAP
0040
0040
7840
4ffc
4840
4840
4840
4bf8
4a08
4a08
7a08
4a08
43f8
0208
ENDCHAR
STARTCHAR 02-03-79
ENCODING 9071
SWIDTH 960 0
DWIDTH 14 0
BBX 14 14 0 -2
BITMAP
0000
0fe0
0820
0fe0
0000
7ffc
0820
0fe0
0820
0fe0
0838
0fe0
3020
0020
ENDCHAR
STARTCHAR 02-03-80
ENCODING 9072
SWIDTH 960 0
DWIDTH 14 0
BBX 14 14 0 -2
BITMAP
0040
0040
7ffc
4840
4bf8
4848
4bf8
4a40
4bfc
4a44
7858
48a0
4110
060c
ENDCHAR
STARTCHAR 02-03-81
ENCODING 9073
SWIDTH 960 0
DWIDTH 14 0
BBX 14 14 0 -2
BITMAP
0040
0040
7840
4ffc
4840
4840
4bf8
4800
49f0
4910
7910
4910
41f0
0110
ENDCHAR
STARTCHAR 02-03-82
ENCODING 9074
SWIDTH 960 0
DWIDTH 14 0
BBX 14 14 0 -2
BITMAP
0040
0140
7940
49f8
4a40
4c40
4ffc
48e0
48e0
4950
7a48
4c44
4040
0040
ENDCHAR
STARTCHAR 02-03-83
ENCODING 9075
SWIDTH 960 0
DWIDTH 14 0
BBX 14 14 0 -2
BITMAP
00a0
00a0
78a8
4ea8
49b0
49a0
48b0
49a8
4aa4
4ca4
7920
4924
4224
041c
ENDCHAR
STARTCHAR 02-03-84
ENCODING 9076
SWIDTH 960 0
DWIDTH 14 0
BBX 14 14 0 -2
BITMAP
0000
07fc
7800
49f0
4910
4910
49f0
4910
4910
49f0
7910
4000
47fc
0000
ENDCHAR
STARTCHAR 02-03-85
ENCODING 9077
SWIDTH 960 0
DWIDTH 14 0
BBX 14 14 0 -2
BITMAP
0100
01f8
7928
4a28
4bfc
4a28
4e28
4af8
4a28
4a20
7a40
4a40
4280
0300
ENDCHAR
STARTCHAR 02-03-86
ENCODING 9078
SWIDTH 960 0
DWIDTH 14 0
BBX 14 14 0 -2
BITMAP
0000
03f8
7a08
4a08
4bf8
4a08
4ae8
4aa8
4aa8
4ae8
7aa8
4a08
4208
0218
ENDCHAR
STARTCHAR 02-03-87
ENCODING 9079
SWIDTH 960 0
DWIDTH 14 0
BBX 14 14 0 -2
BITMAP
0110
0110
7ffc
4910
4910
48a0
48a4
4928
4b30
4d20
7920
4924
4124
011c
ENDCHAR
STARTCHAR 02-03-88
ENCODING 9080
SWIDTH 960 0
DWIDTH 14 0
BBX 14 14 0 -2
BITMAP
0100
0100
79fc
4a08
4a08
4ee8
4aa8
4aa8
4aa8
4ae8
7a88
4a08
4208
0218
ENDCHAR
STARTCHAR 02-03-89
ENCODING 9081
SWIDTH 960 0
DWIDTH 14 0
BBX 14 14 0 -2
BITMAP
0000
01f8
7908
4908
49f8
4908
49f8
4908
49f8
48a0
78a0
4924
4224
0c1c
ENDCHAR
STARTCHAR 02-03-90
ENCODING 9082
SWIDTH 960 0
DWIDTH 14 0
BBX 14 14 0 -2
BITMAP
0040
0040
7ffc
4840
4bfc
4a08
4df0
4820
4840
4ffc
7840
4840
4040
00c0
ENDCHAR
STARTCHAR 02-03-91
ENCODING 9083
SWIDTH 960 0
DWIDTH 14 0
BBX 14 14 0 -2
BITMAP
0208
0210
7a60
4fc0
4a7c
4a50
4a50
4bd0
4e50
4a50
7a90
4a90
4310
0610
ENDCHAR
STARTCHAR 02-03-92
ENCODING 9084
SWIDTH 960 0
DWIDTH 14 0
BBX 14 14 0 -2
BITMAP
0030
03c0
7840
4ffc
48e0
4950
4e4c
4be0
48a0
48b8
7928
4908
4208
0c30
ENDCHAR
STARTCHAR 02-03-93
ENCODING 9085
SWIDTH 960 0
DWIDTH 14 0
BBX 14 14 0 -2
BITMAP
0000
01f0
7800
4ffc
4800
49f0
4800
49f0
4800
49f0
7910
4910
41f0
0110
ENDCHAR
STARTCHAR 02-03-94
ENCODING 9086
SWIDTH 960 0
DWIDTH 14 0
BBX 14 14 0 -2
BITMAP
0080
0090
7908
4ffc
4904
4900
4bf8
4c40
4840
4ffc
78c0
48a0
4310
0c0c
ENDCHAR
STARTCHAR 02-04-01
ENCODING 9249
SWIDTH 960 0
DWIDTH 14 0
BBX 14 14 0 -2
BITMAP
0040
0040
7bf8
4910
48a0
4ffc
4840
4ffc
4890
4890
79e0
4830
40c8
0708
ENDCHAR
STARTCHAR 02-04-02
ENCODING 9250
SWIDTH 960 0
DWIDTH 14 0
BBX 14 14 0 -2
BITMAP
0000
03f8
7a48
4a48
4ae8
4a48
4ae8
4a48
4ae8
4aa8
7aa8
4ce8
4488
0818
ENDCHAR
STARTCHAR 02-04-03
ENCODING 9251
SWIDTH 960 0
DWIDTH 14 0
BBX 14 14 0 -2
BITMAP
0040
0040
7ffc
4840
4bf8
4a48
4bf8
4a48
4bf8
48e0
7950
4a48
4444
0040
ENDCHAR
STARTCHAR 02-04-04
ENCODING 9252
SWIDTH 960 0
DWIDTH 14 0
BBX 14 14 0 -2
BITMAP
0100
0100
7ffc
0820
0440
3ff8
2108
3ff8
2108
27c8
2448
27c8
2448
2018
ENDCHAR
STARTCHAR 02-04-05
ENCODING 9253
SWIDTH 960 0
DWIDTH 14 0
BBX 14 14 0 -2
BITMAP
0000
07fc
7508
5508
5678
5658
5558
5558
5578
7558
4608
0408
0408
0418
ENDCHAR
STARTCHAR 02-04-06
ENCODING 9254
SWIDTH 960 0
DWIDTH 14 0
BBX 14 14 0 -2
BITMAP
0080
00f8
7910
4bf0
4820
4ffc
4a40
4964
4968
48d0
78d0
4948
4644
00c0
ENDCHAR
STARTCHAR 02-04-07
ENCODING 9255
SWIDTH 960 0
DWIDTH 14 0
BBX 14 14 0 -2
BITMAP
0318
1ce0
1080
1ffc
1490
1490
2510
4610
0000
0fe0
0820
0820
0fe0
0820
ENDCHAR
STARTCHAR 02-04-08
ENCODING 9256
SWIDTH 960 0
DWIDTH 14 0
BBX 14 14 0 -2
BITMAP
00a0
00a0
78a0
4fbc
48a0
48a0
4fbc
48a0
48a0
4bbc
7ca0
4920
4220
0420
ENDCHAR
STARTCHAR 02-04-09
ENCODING 9257
SWIDTH 960 0
DWIDTH 14 0
BBX 14 14 0 -2
BITMAP
0040
0080
7bf8
4a48
4bf8
4a48
4a48
4bf8
48a0
4920
7ffc
4820
4020
0020
ENDCHAR
STARTCHAR 02-04-10
ENCODING 9258
SWIDTH 960 0
DWIDTH 14 0
BBX 14 14 0 -2
BITMAP
0000
7ffc
0200
1ff0
1ff0
1010
1ff0
0280
0fe0
701c
0fe0
0820
0fe0
0820
ENDCHAR
STARTCHAR 02-04-11
ENCODING 9259
SWIDTH 960 0
DWIDTH 14 0
BBX 14 14 0 -2
BITMAP
0040
0040
78a0
49f0
4e0c
49f0
4910
49f0
4800
4910
7ffc
4910
4110
0210
ENDCHAR
STARTCHAR 02-04-12
ENCODING 9260
SWIDTH 960 0
DWIDTH 14 0
BBX 14 14 0 -2
BITMAP
0000
03f8
7a48
4bf8
4a48
4bf8
4800
4ffc
4a88
4a50
7a60
4aa0
4310
0e0c
ENDCHAR
STARTCHAR 02-04-13
ENCODING 9261
SWIDTH 960 0
DWIDTH 14 0
BBX 14 14 0 -2
BITMAP
0220
0224
7bb8
4a20
4a24
4bbc
4c40
4bf8
4a08
4bf8
7a08
4a08
43f8
0208
ENDCHAR
STARTCHAR 02-04-14
ENCODING 9262
SWIDTH 960 0
DWIDTH 14 0
BBX 14 14 0 -2
BITMAP
0040
0040
7bf8
4910
48a0
4ffc
4800
49f0
4910
49f0
7910
4910
41f0
0110
ENDCHAR
STARTCHAR 02-04-15
ENCODING 9263
SWIDTH 960 0
DWIDTH 14 0
BBX 14 14 0 -2
BITMAP
0000
0138
7928
4928
4fe8
4938
4928
4ba8
4ab8
4aa8
7bc8
4a48
4088
0118
ENDCHAR
STARTCHAR 02-04-16
ENCODING 9264
SWIDTH 960 0
DWIDTH 14 0
BBX 14 14 0 -2
BITMAP
0110
0110
7ffc
4910
4950
48a0
4b18
4df4
4800
49f0
7910
4910
41f0
0110
ENDCHAR
STARTCHAR 02-04-17
ENCODING 9265
SWIDTH 960 0
DWIDTH 14 0
BBX 14 14 0 -2
BITMAP
0080
0378
7a28
4aa8
4aa8
4b48
4c58
4bf8
4a48
4bf8
7a48
4a48
43f8
0208
ENDCHAR
STARTCHAR 02-04-18
ENCODING 9266
SWIDTH 960 0
DWIDTH 14 0
BBX 14 14 0 -2
BITMAP
0000
07fc
7808
49c8
4948
49d8
4800
4ffc
4808
49c8
7948
49c8
4148
0018
ENDCHAR
STARTCHAR 02-04-19
ENCODING 9267
SWIDTH 960 0
DWIDTH 14 0
BBX 14 14 0 -2
BITMAP
0000
07c0
0440
07c0
0000
1ef0
1290
1ef0
0100
7ffc
0380
0d60
3118
0100
ENDCHAR
STARTCHAR 02-04-20
ENCODING 9268
SWIDTH 960 0
DWIDTH 14 0
BBX 14 14 0 -2
BITMAP
0040
03f8
7840
49f0
4840
4ffc
48a0
4b20
48c8
4ff4
7950
4948
4248
0040
ENDCHAR
STARTCHAR 02-04-21
ENCODING 9269
SWIDTH 960 0
DWIDTH 14 0
BBX 14 14 0 -2
BITMAP
01e0
0120
7a10
4ff8
4804
49e0
4920
4910
4bf8
4eac
7aa8
42a8
47fc
0000
ENDCHAR
STARTCHAR 02-04-22
ENCODING 9270
SWIDTH 960 0
DWIDTH 14 0
BBX 14 14 0 -2
BITMAP
0040
0040
73f8
5040
57fc
5120
5110
57f8
5008
53f8
72a8
02a8
07fc
0000
ENDCHAR
STARTCHAR 02-04-23
ENCODING 9271
SWIDTH 960 0
DWIDTH 14 0
BBX 14 14 0 -2
BITMAP
0000
03f8
7800
49f0
4910
49f0
4800
4bf8
4aa8
4b38
7af8
4a48
4248
0258
ENDCHAR
STARTCHAR 02-04-24
ENCODING 9272
SWIDTH 960 0
DWIDTH 14 0
BBX 14 14 0 -2
BITMAP
0000
07fc
78a0
4bf8
4aa8
4aa8
4bf8
4840
4ffc
48e0
7950
4a48
4444
0040
ENDCHAR
STARTCHAR 02-04-25
ENCODING 9273
SWIDTH 960 0
DWIDTH 14 0
BBX 14 14 0 -2
BITMAP
0000
03f8
7a48
4a48
4aa8
4b18
4bf8
4800
4bf8
4aa8
7aa8
4aa8
47fc
0000
ENDCHAR
STARTCHAR 02-04-26
ENCODING 9274
SWIDTH 960 0
DWIDTH 14 0
BBX 14 14 0 -2
BITMAP
0040
0040
7bf8
4840
4ffc
4840
4bf8
4840
4ffc
4840
7aa8
4a84
4494
0070
ENDCHAR
STARTCHAR 02-04-27
ENCODING 9275
SWIDTH 960 0
DWIDTH 14 0
BBX 14 14 0 -2
BITMAP
0040
0150
7948
4a44
4ffc
4a08
4bf8
4a08
4bf8
4a08
7bf8
48b0
4308
0c04
ENDCHAR
STARTCHAR 02-04-28
ENCODING 9276
SWIDTH 960 0
DWIDTH 14 0
BBX 14 14 0 -2
BITMAP
0040
03f8
7848
4ffc
4848
4bf8
4a48
4b58
4ae8
4bf8
7ae8
4b58
4258
0448
ENDCHAR
STARTCHAR 02-04-29
ENCODING 9277
SWIDTH 960 0
DWIDTH 14 0
BBX 14 14 0 -2
BITMAP
0390
0090
7ae4
4928
4950
4a48
4ffc
4a48
4a48
4bf8
7a50
4848
407c
0384
ENDCHAR
STARTCHAR 02-04-30
ENCODING 9278
SWIDTH 960 0
DWIDTH 14 0
BBX 14 14 0 -2
BITMAP
0040
0090
7bf8
4910
4998
4a64
4ffc
48a0
4b50
4dac
7848
4990
4060
0380
ENDCHAR
STARTCHAR 02-04-31
ENCODING 9279
SWIDTH 960 0
DWIDTH 14 0
BBX 14 14 0 -2
BITMAP
0000
07f8
7998
4aa8
4dd8
4aa8
4cc8
49b0
4e4c
49a0
7848
4990
4060
0380
ENDCHAR
STARTCHAR 02-04-32
ENCODING 9280
SWIDTH 960 0
DWIDTH 14 0
BBX 14 14 0 -2
BITMAP
0148
0148
7ef4
4ad4
4948
4ad4
4ffc
4850
4bfc
4a28
7b28
4490
443c
08c4
ENDCHAR
STARTCHAR 02-04-33
ENCODING 9281
SWIDTH 960 0
DWIDTH 14 0
BBX 14 14 0 -2
BITMAP
0040
01f0
7910
49f0
49f0
4910
49f0
4b58
4840
4b58
7840
47fc
4040
0040
ENDCHAR
STARTCHAR 02-04-34
ENCODING 9282
SWIDTH 960 0
DWIDTH 14 0
BBX 14 14 0 -2
BITMAP
0000
07bc
74a4
57bc
54a4
57bc
5404
55f4
5514
75f4
5514
45f4
0514
040c
ENDCHAR
STARTCHAR 02-04-35
ENCODING 9283
SWIDTH 960 0
DWIDTH 14 0
BBX 14 14 0 -2
BITMAP
0000
03b8
7aa8
4bb8
4800
4bf8
4a48
4bf8
4a48
4bf8
7840
47fc
4040
0040
ENDCHAR
STARTCHAR 02-04-36
ENCODING 9284
SWIDTH 960 0
DWIDTH 14 0
BBX 14 14 0 -2
BITMAP
0000
03f8
7b58
4ad8
4ae8
4bf8
4840
4bf8
4840
4ffc
7800
4b48
42a4
04a4
ENDCHAR
STARTCHAR 02-04-37
ENCODING 9285
SWIDTH 960 0
DWIDTH 14 0
BBX 14 14 0 -2
BITMAP
0000
07f8
7cc8
4ff8
4c40
4cc8
4bb8
4920
4bf8
4920
7ffc
4910
4208
0408
ENDCHAR
STARTCHAR 02-04-38
ENCODING 9286
SWIDTH 960 0
DWIDTH 14 0
BBX 14 14 0 -2
BITMAP
0040
03f8
7910
4ffc
4bf8
4a48
4bf8
4a48
4bf8
4840
7bf8
4840
47fc
0000
ENDCHAR
STARTCHAR 02-04-39
ENCODING 9287
SWIDTH 960 0
DWIDTH 14 0
BBX 14 14 0 -2
BITMAP
0040
0040
78a0
4910
4bf8
4c04
4bb8
4aa8
4aa8
4bb8
7910
4998
4264
0444
ENDCHAR
STARTCHAR 02-04-40
ENCODING 9288
SWIDTH 960 0
DWIDTH 14 0
BBX 14 14 0 -2
BITMAP
0420
02f8
7a20
49fc
4c88
4a50
4bfc
4820
4ef8
4a20
7bfc
4220
4520
08fc
ENDCHAR
STARTCHAR 02-04-41
ENCODING 9289
SWIDTH 960 0
DWIDTH 14 0
BBX 14 14 0 -2
BITMAP
0120
0220
77a0
54a0
57fc
54c8
57a8
5228
5fe8
7390
4490
04a8
0b48
1084
ENDCHAR
STARTCHAR 02-04-42
ENCODING 9290
SWIDTH 960 0
DWIDTH 14 0
BBX 14 14 0 -2
BITMAP
0480
049c
7940
5120
53fc
5488
5fe8
5488
56a8
75c8
4588
04e8
0708
0418
ENDCHAR
STARTCHAR 02-04-43
ENCODING 9291
SWIDTH 960 0
DWIDTH 14 0
BBX 14 14 0 -2
BITMAP
0000
07fc
7400
5798
5794
56fc
5790
5410
5790
7690
47a8
0ba8
0aa8
13c4
ENDCHAR
STARTCHAR 02-04-44
ENCODING 9292
SWIDTH 960 0
DWIDTH 14 0
BBX 14 14 0 -2
BITMAP
0040
0040
7ffc
4ca4
4bf8
4ae8
4bf8
4c44
4908
49f8
7908
49f8
4208
0408
ENDCHAR
STARTCHAR 02-04-45
ENCODING 9293
SWIDTH 960 0
DWIDTH 14 0
BBX 14 14 0 -2
BITMAP
0040
00f0
7b20
49f8
4948
49f8
49f8
49a8
4e54
49f8
79f8
4908
41f8
0108
ENDCHAR
STARTCHAR 02-04-46
ENCODING 9294
SWIDTH 960 0
DWIDTH 14 0
BBX 14 14 0 -2
BITMAP
0000
3ef8
2288
3ef8
3ff8
2100
3ff0
2010
3ff0
2100
3ff8
3ef8
2288
3ef8
ENDCHAR
STARTCHAR 02-04-47
ENCODING 9295
SWIDTH 960 0
DWIDTH 14 0
BBX 14 14 0 -2
BITMAP
0020
03fc
7a50
4bfc
4a50
4a70
4bfc
4af8
4aa8
4af8
7aa8
44f8
44d0
0b0c
ENDCHAR
STARTCHAR 02-04-48
ENCODING 9296
SWIDTH 960 0
DWIDTH 14 0
BBX 14 14 0 -2
BITMAP
0240
0278
7fc0
5578
5508
5ff8
5040
5f78
5940
7f78
4940
0f78
0944
0b3c
ENDCHAR
STARTCHAR 02-04-49
ENCODING 9297
SWIDTH 960 0
DWIDTH 14 0
BBX 14 14 0 -2
BITMAP
0800
7ffc
0820
3e70
3e68
22a4
3f24
1420
7ff8
0088
3e88
2288
3ef8
2288
ENDCHAR
STARTCHAR 02-04-50
ENCODING 9298
SWIDTH 960 0
DWIDTH 14 0
BBX 14 14 0 -2
BITMAP
0800
09dc
7f54
01dc
3e00
22f8
3ea8
00f8
3ea8
04f8
0e20
79fc
0820
1820
ENDCHAR
STARTCHAR 02-04-51
ENCODING 9299
SWIDTH 960 0
DWIDTH 14 0
BBX 14 14 0 -2
BITMAP
0000
7ff8
5b08
7ff8
0150
3f50
2bf8
3f50
2b50
3ffc
0968
7f50
0968
0ac4
ENDCHAR
STARTCHAR 02-04-52
ENCODING 9300
SWIDTH 960 0
DWIDTH 14 0
BBX 14 14 0 -2
BITMAP
0820
7ffc
0820
3ef8
3ef8
2288
3ef8
1450
7ffc
0000
3ef8
2288
3ef8
2288
ENDCHAR
STARTCHAR 02-04-53
ENCODING 9301
SWIDTH 960 0
DWIDTH 14 0
BBX 14 14 0 -2
BITMAP
0100
0100
0200
1ff8
1028
1428
1248
1148
1188
1248
1c28
1008
1ff8
0000
ENDCHAR
STARTCHAR 02-04-54
ENCODING 9302
SWIDTH 960 0
DWIDTH 14 0
BBX 14 14 0 -2
BITMAP
0000
3ff8
2008
3ff8
2108
2308
23c8
2528
3918
2108
2108
2008
3ff8
2008
ENDCHAR
STARTCHAR 02-04-55
ENCODING 9303
SWIDTH 960 0
DWIDTH 14 0
BBX 14 14 0 -2
BITMAP
0000
3ff8
2108
2108
2288
2448
3938
2108
2fe8
2108
3ff8
2008
3ff8
2008
ENDCHAR
STARTCHAR 02-04-56
ENCODING 9304
SWIDTH 960 0
DWIDTH 14 0
BBX 14 14 0 -2
BITMAP
0000
3ff8
2008
20c8
2f08
2108
3ff8
2388
2548
2928
3118
2108
3ff8
2008
ENDCHAR
STARTCHAR 02-04-57
ENCODING 9305
SWIDTH 960 0
DWIDTH 14 0
BBX 14 14 0 -2
BITMAP
0000
3ff8
2108
27c8
27c8
2448
27c8
2fe8
27c8
2108
3ff8
2008
3ff8
2008
ENDCHAR
STARTCHAR 02-04-58
ENCODING 9306
SWIDTH 960 0
DWIDTH 14 0
BBX 14 14 0 -2
BITMAP
0000
3ff8
2108
2fe8
3ff8
2fe8
2108
2fe8
3ff8
27c8
27c8
2448
3ff8
2008
ENDCHAR
STARTCHAR 02-04-59
ENCODING 9307
SWIDTH 960 0
DWIDTH 14 0
BBX 14 14 0 -2
BITMAP
0000
1ff0
0820
0440
0380
0540
1930
610c
1ff0
0100
0100
0100
3ff8
0000
ENDCHAR
STARTCHAR 02-04-60
ENCODING 9308
SWIDTH 960 0
DWIDTH 14 0
BBX 14 14 0 -2
BITMAP
0080
1080
1080
13f0
7c90
1290
1190
1090
14d0
1950
6110
0114
0214
040c
ENDCHAR
STARTCHAR 02-04-61
ENCODING 9309
SWIDTH 960 0
DWIDTH 14 0
BBX 14 14 0 -2
BITMAP
0000
13f8
1040
1040
7c40
1040
17fc
1040
1440
1840
6040
0040
0040
01c0
ENDCHAR
STARTCHAR 02-04-62
ENCODING 9310
SWIDTH 960 0
DWIDTH 14 0
BBX 14 14 0 -2
BITMAP
0040
1040
13f0
1050
7c54
1094
134c
1040
1440
1bfc
6040
0040
0040
0040
ENDCHAR
STARTCHAR 02-04-63
ENCODING 9311
SWIDTH 960 0
DWIDTH 14 0
BBX 14 14 0 -2
BITMAP
0040
1040
1060
10a0
7c90
1108
12f4
1000
15f8
1810
6020
0020
0040
0040
ENDCHAR
STARTCHAR 02-04-64
ENCODING 9312
SWIDTH 960 0
DWIDTH 14 0
BBX 14 14 0 -2
BITMAP
0080
1080
1080
10fc
7d10
1190
1290
1050
1460
1820
6060
0090
0308
0c04
ENDCHAR
STARTCHAR 02-04-65
ENCODING 9313
SWIDTH 960 0
DWIDTH 14 0
BBX 14 14 0 -2
BITMAP
07c0
0840
1030
3fe8
4224
0220
0420
08c0
3100
0100
1ff0
0100
0100
7ffc
ENDCHAR
STARTCHAR 02-04-66
ENCODING 9314
SWIDTH 960 0
DWIDTH 14 0
BBX 14 14 0 -2
BITMAP
0000
11f0
1110
1190
7d50
1150
1110
17fc
1510
1910
6110
0210
0210
0430
ENDCHAR
STARTCHAR 02-04-67
ENCODING 9315
SWIDTH 960 0
DWIDTH 14 0
BBX 14 14 0 -2
BITMAP
000c
11f0
1100
11f8
7d08
1108
1108
11f8
1508
1900
6100
0200
0200
0400
ENDCHAR
STARTCHAR 02-04-68
ENCODING 9316
SWIDTH 960 0
DWIDTH 14 0
BBX 14 14 0 -2
BITMAP
0020
1020
11fc
1108
7e80
1080
1088
1090
14e0
1880
6080
0084
0084
007c
ENDCHAR
STARTCHAR 02-04-69
ENCODING 9317
SWIDTH 960 0
DWIDTH 14 0
BBX 14 14 0 -2
BITMAP
0000
13fc
1020
1020
7c40
1060
10d0
1148
1644
1844
6040
0040
03fc
0000
ENDCHAR
STARTCHAR 02-04-70
ENCODING 9318
SWIDTH 960 0
DWIDTH 14 0
BBX 14 14 0 -2
BITMAP
0220
1220
1220
14a0
7cf8
1528
1528
1228
1328
1ca8
65c8
0648
0888
0110
ENDCHAR
STARTCHAR 02-04-71
ENCODING 9319
SWIDTH 960 0
DWIDTH 14 0
BBX 14 14 0 -2
BITMAP
0100
0100
1ff0
0100
3ff8
0240
0448
3938
0100
1ff0
0100
0100
7ffc
0000
ENDCHAR
STARTCHAR 02-04-72
ENCODING 9320
SWIDTH 960 0
DWIDTH 14 0
BBX 14 14 0 -2
BITMAP
0010
1020
11c0
1100
7d00
11f8
1120
1120
1520
1920
6120
0120
07fc
0000
ENDCHAR
STARTCHAR 02-04-73
ENCODING 9321
SWIDTH 960 0
DWIDTH 14 0
BBX 14 14 0 -2
BITMAP
0018
11e0
1120
1120
7d20
11fc
1120
1120
1520
19d0
6614
000c
07fc
0004
ENDCHAR
STARTCHAR 02-04-74
ENCODING 9322
SWIDTH 960 0
DWIDTH 14 0
BBX 14 14 0 -2
BITMAP
0000
11f8
1108
1108
7df8
1128
1120
1210
12c8
1c24
6000
0380
0060
0010
ENDCHAR
STARTCHAR 02-04-75
ENCODING 9323
SWIDTH 960 0
DWIDTH 14 0
BBX 14 14 0 -2
BITMAP
0040
1040
10a0
1090
7d08
12f4
1000
1000
13fc
1ca0
6090
0130
03c8
0008
ENDCHAR
STARTCHAR 02-04-76
ENCODING 9324
SWIDTH 960 0
DWIDTH 14 0
BBX 14 14 0 -2
BITMAP
0120
1120
1120
13f8
7d20
1120
1120
1120
17fc
1800
6120
0110
0208
0408
ENDCHAR
STARTCHAR 02-04-77
ENCODING 9325
SWIDTH 960 0
DWIDTH 14 0
BBX 14 14 0 -2
BITMAP
0100
0100
1ff0
0100
0100
3ff8
0000
0820
0820
3ef8
0820
0e20
71fc
0000
ENDCHAR
STARTCHAR 02-04-78
ENCODING 9326
SWIDTH 960 0
DWIDTH 14 0
BBX 14 14 0 -2
BITMAP
0080
10f8
1110
1220
7ffc
1200
12f8
1288
1688
1a88
62b0
0484
0484
087c
ENDCHAR
STARTCHAR 02-04-79
ENCODING 9327
SWIDTH 960 0
DWIDTH 14 0
BBX 14 14 0 -2
BITMAP
0040
1040
13fc
1208
7c30
13c0
1080
1080
14fc
1b80
6080
0084
0084
007c
ENDCHAR
STARTCHAR 02-04-80
ENCODING 9328
SWIDTH 960 0
DWIDTH 14 0
BBX 14 14 0 -2
BITMAP
0040
1040
13fc
1208
7c10
1010
13fc
1010
1510
1890
6090
0010
0010
0030
ENDCHAR
STARTCHAR 02-04-81
ENCODING 9329
SWIDTH 960 0
DWIDTH 14 0
BBX 14 14 0 -2
BITMAP
0040
1040
1178
1140
7d40
13fc
1040
1148
1150
1ad0
6420
0040
0180
0600
ENDCHAR
STARTCHAR 02-04-82
ENCODING 9330
SWIDTH 960 0
DWIDTH 14 0
BBX 14 14 0 -2
BITMAP
0040
1040
13f8
1040
7c40
13fc
10a0
12a8
12a8
1aa4
64a4
0120
0120
0260
ENDCHAR
STARTCHAR 02-04-83
ENCODING 9331
SWIDTH 960 0
DWIDTH 14 0
BBX 14 14 0 -2
BITMAP
0040
1040
11f8
1108
7df8
1108
1108
11f8
1524
1924
6118
0150
0188
0604
ENDCHAR
STARTCHAR 02-04-84
ENCODING 9332
SWIDTH 960 0
DWIDTH 14 0
BBX 14 14 0 -2
BITMAP
0110
1090
10a0
17fc
7ca0
10a0
14a8
12a8
12a8
1ab0
60a0
00a0
07fc
0000
ENDCHAR
STARTCHAR 02-04-85
ENCODING 9333
SWIDTH 960 0
DWIDTH 14 0
BBX 14 14 0 -2
BITMAP
0000
11f8
1108
1108
7df8
1128
1120
11fc
1520
19f8
6288
0288
04f8
0888
ENDCHAR
STARTCHAR 02-04-86
ENCODING 9334
SWIDTH 960 0
DWIDTH 14 0
BBX 14 14 0 -2
BITMAP
0040
1040
13fc
1208
7c00
13fc
1040
1140
1578
1940
6140
0340
04c0
083c
ENDCHAR
STARTCHAR 02-04-87
ENCODING 9335
SWIDTH 960 0
DWIDTH 14 0
BBX 14 14 0 -2
BITMAP
0040
1040
13fc
1208
7d00
11f8
1168
1168
12e8
1ab8
60a0
0124
0224
041c
ENDCHAR
STARTCHAR 02-04-88
ENCODING 9336
SWIDTH 960 0
DWIDTH 14 0
BBX 14 14 0 -2
BITMAP
0008
1030
13c8
1124
7d24
1240
1040
17fc
14e0
18e0
6150
0248
0444
0040
ENDCHAR
STARTCHAR 02-04-89
ENCODING 9337
SWIDTH 960 0
DWIDTH 14 0
BBX 14 14 0 -2
BITMAP
0000
11f8
1100
11f0
7d00
11f0
1100
17fc
1548
1950
6120
0150
0188
0604
ENDCHAR
STARTCHAR 02-04-90
ENCODING 9338
SWIDTH 960 0
DWIDTH 14 0
BBX 14 14 0 -2
BITMAP
0000
11f8
1108
11f8
7d08
11f8
1080
11fc
1554
1a54
6094
0124
0044
0018
ENDCHAR
STARTCHAR 02-04-91
ENCODING 9339
SWIDTH 960 0
DWIDTH 14 0
BBX 14 14 0 -2
BITMAP
0040
17fc
1000
11f0
7d10
11f0
1000
13f8
1010
1860
67fc
0040
0040
00c0
ENDCHAR
STARTCHAR 02-04-92
ENCODING 9340
SWIDTH 960 0
DWIDTH 14 0
BBX 14 14 0 -2
BITMAP
0000
11f0
1010
13fc
7c10
11f0
1000
13fc
1448
1bf8
6248
0248
0270
0040
ENDCHAR
STARTCHAR 02-04-93
ENCODING 9341
SWIDTH 960 0
DWIDTH 14 0
BBX 14 14 0 -2
BITMAP
0080
1338
1208
1208
7fb8
1208
1208
13f8
16a8
18a0
6120
0124
0224
041c
ENDCHAR
STARTCHAR 02-04-94
ENCODING 9342
SWIDTH 960 0
DWIDTH 14 0
BBX 14 14 0 -2
BITMAP
0150
1150
13fc
1150
7d50
1170
1100
11f8
1040
1ffc
60e0
0150
064c
0040
ENDCHAR
STARTCHAR 02-05-01
ENCODING 9505
SWIDTH 960 0
DWIDTH 14 0
BBX 14 14 0 -2
BITMAP
0100
11f0
1110
13fc
7e40
1240
12fc
12a0
1720
1bfc
6220
0250
0288
0304
ENDCHAR
STARTCHAR 02-05-02
ENCODING 9506
SWIDTH 960 0
DWIDTH 14 0
BBX 14 14 0 -2
BITMAP
0000
17fc
1040
13f8
7ea8
12a8
12a8
1218
1440
1840
67fc
00a0
0110
060c
ENDCHAR
STARTCHAR 02-05-03
ENCODING 9507
SWIDTH 960 0
DWIDTH 14 0
BBX 14 14 0 -2
BITMAP
0800
3ef8
2288
3e88
3e88
2688
3888
22b0
1e80
0100
1ff0
0100
7ffc
0000
ENDCHAR
STARTCHAR 02-05-04
ENCODING 9508
SWIDTH 960 0
DWIDTH 14 0
BBX 14 14 0 -2
BITMAP
0030
11c0
17fc
1040
7df8
1148
11f8
1148
15f8
1840
61f8
0040
07fc
0000
ENDCHAR
STARTCHAR 02-05-05
ENCODING 9509
SWIDTH 960 0
DWIDTH 14 0
BBX 14 14 0 -2
BITMAP
0000
3cf0
0090
7ef0
0890
2af0
2a90
2a90
4bfc
0100
1ff8
0100
7ffc
0000
ENDCHAR
STARTCHAR 02-05-06
ENCODING 9510
SWIDTH 960 0
DWIDTH 14 0
BBX 14 14 0 -2
BITMAP
0040
1358
1040
1358
7ca0
1110
13f8
1514
15f0
1910
61f0
0110
0110
0130
ENDCHAR
STARTCHAR 02-05-07
ENCODING 9511
SWIDTH 960 0
DWIDTH 14 0
BBX 14 14 0 -2
BITMAP
0000
11f0
1110
11f0
7d10
11f0
1000
13f8
1598
1aa8
61d8
02a8
04c8
0198
ENDCHAR
STARTCHAR 02-05-08
ENCODING 9512
SWIDTH 960 0
DWIDTH 14 0
BBX 14 14 0 -2
BITMAP
01e0
1120
1210
13f8
7c04
11e0
1120
1110
13f8
1eac
62a8
02a8
07fc
0000
ENDCHAR
STARTCHAR 02-05-09
ENCODING 9513
SWIDTH 960 0
DWIDTH 14 0
BBX 14 14 0 -2
BITMAP
0840
3e40
09f0
7e50
24d0
7e50
08b4
3e94
090c
0100
1ff0
0100
7ffc
0000
ENDCHAR
STARTCHAR 02-05-10
ENCODING 9514
SWIDTH 960 0
DWIDTH 14 0
BBX 14 14 0 -2
BITMAP
0040
1090
13f8
1110
7d98
1264
17fc
10a0
1750
19ac
6048
0190
0060
0380
ENDCHAR
STARTCHAR 02-05-11
ENCODING 9515
SWIDTH 960 0
DWIDTH 14 0
BBX 14 14 0 -2
BITMAP
0800
3efc
2250
3e50
3efc
2630
3850
2254
1e8c
0100
1ff0
0100
7ffc
0000
ENDCHAR
STARTCHAR 02-05-12
ENCODING 9516
SWIDTH 960 0
DWIDTH 14 0
BBX 14 14 0 -2
BITMAP
2420
2478
3fc8
0570
7fd0
17fc
1510
2490
4430
0100
1ff8
0100
7ffc
0000
ENDCHAR
STARTCHAR 02-05-13
ENCODING 9517
SWIDTH 960 0
DWIDTH 14 0
BBX 14 14 0 -2
BITMAP
0120
17fc
1120
11e0
7ff8
1248
13f8
1040
17f8
1840
63f8
0040
07fc
0000
ENDCHAR
STARTCHAR 02-05-14
ENCODING 9518
SWIDTH 960 0
DWIDTH 14 0
BBX 14 14 0 -2
BITMAP
0040
1248
1248
13f8
7e98
1120
13fc
1220
17f8
1a20
63f8
0220
03fc
0200
ENDCHAR
STARTCHAR 02-05-15
ENCODING 9519
SWIDTH 960 0
DWIDTH 14 0
BBX 14 14 0 -2
BITMAP
0040
13f8
1040
13fc
7d10
13b8
1110
11fc
1600
1bfc
60a0
00a4
0124
061c
ENDCHAR
STARTCHAR 02-05-16
ENCODING 9520
SWIDTH 960 0
DWIDTH 14 0
BBX 14 14 0 -2
BITMAP
0840
0840
7f40
3efc
3e88
3f48
0450
7e20
0850
198c
0100
1ff0
0100
7ffc
ENDCHAR
STARTCHAR 02-05-17
ENCODING 9521
SWIDTH 960 0
DWIDTH 14 0
BBX 14 14 0 -2
BITMAP
01a0
10a8
1290
1114
7ff8
1208
15f4
1110
1510
19f0
6110
00a0
03fc
0000
ENDCHAR
STARTCHAR 02-05-18
ENCODING 9522
SWIDTH 960 0
DWIDTH 14 0
BBX 14 14 0 -2
BITMAP
0040
10a0
1110
17fc
7ff8
1248
1358
1358
13f8
1800
71f0
01f0
0110
01f0
ENDCHAR
STARTCHAR 02-05-19
ENCODING 9523
SWIDTH 960 0
DWIDTH 14 0
BBX 14 14 0 -2
BITMAP
0000
17fc
1000
11f0
7df0
1150
17fc
1000
11f0
1950
61f0
01f0
0000
07fc
ENDCHAR
STARTCHAR 02-05-20
ENCODING 9524
SWIDTH 960 0
DWIDTH 14 0
BBX 14 14 0 -2
BITMAP
2204
1fd8
4220
2fbc
2fa8
0aa8
1fa8
2228
3fa8
4248
1ff0
0100
7ffc
0000
ENDCHAR
STARTCHAR 02-05-21
ENCODING 9525
SWIDTH 960 0
DWIDTH 14 0
BBX 14 14 0 -2
BITMAP
0000
17fc
15f8
1490
7ffc
15f0
16d8
1494
1440
1d78
6540
0940
0ffc
0000
ENDCHAR
STARTCHAR 02-05-22
ENCODING 9526
SWIDTH 960 0
DWIDTH 14 0
BBX 14 14 0 -2
BITMAP
0100
0100
7ffc
0100
1ff0
0000
3ffc
2008
5ff0
0000
07c0
0448
0848
3038
ENDCHAR
STARTCHAR 02-05-23
ENCODING 9527
SWIDTH 960 0
DWIDTH 14 0
BBX 14 14 0 -2
BITMAP
0100
0100
7ffc
0100
1ff0
0000
1ff0
1010
1ff0
0820
0420
0440
7ffc
0000
ENDCHAR
STARTCHAR 02-05-24
ENCODING 9528
SWIDTH 960 0
DWIDTH 14 0
BBX 14 14 0 -2
BITMAP
0200
0200
07e0
0c40
3480
0380
0d60
711c
0fe0
0900
0900
3ff8
0100
0100
ENDCHAR
STARTCHAR 02-05-25
ENCODING 9529
SWIDTH 960 0
DWIDTH 14 0
BBX 14 14 0 -2
BITMAP
0200
0200
07e0
0c40
3480
0380
0d60
77dc
0100
0fe0
0100
3ff8
0100
0100
ENDCHAR
STARTCHAR 02-05-26
ENCODING 9530
SWIDTH 960 0
DWIDTH 14 0
BBX 14 14 0 -2
BITMAP
0200
0240
0470
1f88
0440
0448
0a38
33e0
0420
0640
1980
0180
0660
3818
ENDCHAR
STARTCHAR 02-05-27
ENCODING 9531
SWIDTH 960 0
DWIDTH 14 0
BBX 14 14 0 -2
BITMAP
0800
0800
0ff8
17e0
2420
07e0
0420
07e0
0200
07e0
1a40
0180
06c0
3838
ENDCHAR
STARTCHAR 02-05-28
ENCODING 9532
SWIDTH 960 0
DWIDTH 14 0
BBX 14 14 0 -2
BITMAP
0820
0440
7ffc
0938
2fe8
2bf8
2fe4
73dc
0c48
3238
0fe0
3440
0380
7c7c
ENDCHAR
STARTCHAR 02-05-29
ENCODING 9533
SWIDTH 960 0
DWIDTH 14 0
BBX 14 14 0 -2
BITMAP
01f0
0610
1960
0380
3ffc
2008
5ff0
0100
1ff0
1110
1ff0
1ff0
0640
3838
ENDCHAR
STARTCHAR 02-05-30
ENCODING 9534
SWIDTH 960 0
DWIDTH 14 0
BBX 14 14 0 -2
BITMAP
0000
0100
0100
3ff8
0100
1ff0
0280
7ffc
0440
1830
600c
0000
0000
0000
ENDCHAR
STARTCHAR 02-05-31
ENCODING 9535
SWIDTH 960 0
DWIDTH 14 0
BBX 14 14 0 -2
BITMAP
0000
1ff0
0010
7ffc
0010
0010
1ff0
0100
0100
7ffc
0280
0440
1830
600c
ENDCHAR
STARTCHAR 02-05-32
ENCODING 9536
SWIDTH 960 0
DWIDTH 14 0
BBX 14 14 0 -2
BITMAP
0100
0100
7ffc
0280
0440
1830
67cc
0000
0000
3ff8
0440
08f0
3f08
0008
ENDCHAR
STARTCHAR 02-05-33
ENCODING 9537
SWIDTH 960 0
DWIDTH 14 0
BBX 14 14 0 -2
BITMAP
1000
10f8
7e88
1288
1288
22f8
4c88
0100
0100
7ffc
0280
0440
1830
600c
ENDCHAR
STARTCHAR 02-05-34
ENCODING 9538
SWIDTH 960 0
DWIDTH 14 0
BBX 14 14 0 -2
BITMAP
0100
0100
7ffc
0280
0440
1830
7fcc
1000
1ff0
1010
1ff0
1000
1000
3ff8
ENDCHAR
STARTCHAR 02-05-35
ENCODING 9539
SWIDTH 960 0
DWIDTH 14 0
BBX 14 14 0 -2
BITMAP
0100
0200
0fe0
0820
0fe0
0820
0820
0fe0
0100
7ffc
0280
0440
1830
600c
ENDCHAR
STARTCHAR 02-05-36
ENCODING 9540
SWIDTH 960 0
DWIDTH 14 0
BBX 14 14 0 -2
BITMAP
0440
0440
3ff8
0440
1ff0
1110
1ff0
0100
1ff0
0100
3ff8
0280
0c60
3018
ENDCHAR
STARTCHAR 02-05-37
ENCODING 9541
SWIDTH 960 0
DWIDTH 14 0
BBX 14 14 0 -2
BITMAP
0100
0100
7ffc
0280
0c60
701c
3cf8
2488
3cf8
2488
24f8
3d08
2508
0218
ENDCHAR
STARTCHAR 02-05-38
ENCODING 9542
SWIDTH 960 0
DWIDTH 14 0
BBX 14 14 0 -2
BITMAP
0100
0100
7ffc
0280
0c60
701c
1e78
1248
1a68
1658
1a68
2698
2288
4718
ENDCHAR
STARTCHAR 02-05-39
ENCODING 9543
SWIDTH 960 0
DWIDTH 14 0
BBX 14 14 0 -2
BITMAP
0240
3c40
0840
7ff8
2a48
2a48
7f48
2bfc
2a60
7fa0
0890
0890
0f08
7204
ENDCHAR
STARTCHAR 02-05-40
ENCODING 9544
SWIDTH 960 0
DWIDTH 14 0
BBX 14 14 0 -2
BITMAP
0800
0800
0bfc
0820
7e20
1220
1220
1220
3e20
2420
0620
0a20
1020
2060
ENDCHAR
STARTCHAR 02-05-41
ENCODING 9545
SWIDTH 960 0
DWIDTH 14 0
BBX 14 14 0 -2
BITMAP
0800
0be0
08a0
08a0
7ea0
12a0
12b8
12a8
3e88
2488
0688
0b08
1108
2230
ENDCHAR
STARTCHAR 02-05-42
ENCODING 9546
SWIDTH 960 0
DWIDTH 14 0
BBX 14 14 0 -2
BITMAP
0808
0830
09c0
0840
7e40
1240
127c
13c0
3e40
2440
0640
0a44
1044
203c
ENDCHAR
STARTCHAR 02-05-43
ENCODING 9547
SWIDTH 960 0
DWIDTH 14 0
BBX 14 14 0 -2
BITMAP
0000
1ff0
1010
1ff0
1010
1010
1ff0
1210
0200
7ffc
0440
0f80
0360
3c10
ENDCHAR
STARTCHAR 02-05-44
ENCODING 9548
SWIDTH 960 0
DWIDTH 14 0
BBX 14 14 0 -2
BITMAP
1000
11f8
1108
1108
7df8
2508
2540
2548
7950
4960
0d40
1644
2244
443c
ENDCHAR
STARTCHAR 02-05-45
ENCODING 9549
SWIDTH 960 0
DWIDTH 14 0
BBX 14 14 0 -2
BITMAP
0820
0810
0850
0848
7e48
12c8
12d8
12d4
3f54
2564
0660
0a48
10c8
2138
ENDCHAR
STARTCHAR 02-05-46
ENCODING 9550
SWIDTH 960 0
DWIDTH 14 0
BBX 14 14 0 -2
BITMAP
0840
0840
08a0
08a0
7f10
13f8
1204
13f8
3e48
2448
0648
0a70
1040
2040
ENDCHAR
STARTCHAR 02-05-47
ENCODING 9551
SWIDTH 960 0
DWIDTH 14 0
BBX 14 14 0 -2
BITMAP
1000
13f8
12a8
12a8
7ea8
26a8
27fc
26a8
7aa8
4aa8
0ea8
16a8
22a8
4218
ENDCHAR
STARTCHAR 02-05-48
ENCODING 9552
SWIDTH 960 0
DWIDTH 14 0
BBX 14 14 0 -2
BITMAP
0820
0820
0820
09fc
7e20
1220
12f8
1200
3ef8
2488
0688
0a88
10f8
2088
ENDCHAR
STARTCHAR 02-05-49
ENCODING 9553
SWIDTH 960 0
DWIDTH 14 0
BBX 14 14 0 -2
BITMAP
0840
0840
0bfc
0890
7e88
1314
1294
12a0
3e60
2440
06a0
0a90
1108
2204
ENDCHAR
STARTCHAR 02-05-50
ENCODING 9554
SWIDTH 960 0
DWIDTH 14 0
BBX 14 14 0 -2
BITMAP
1018
11e0
1100
1100
7dfc
2500
2500
2578
7948
4948
0d48
1648
2278
4448
ENDCHAR
STARTCHAR 02-05-51
ENCODING 9555
SWIDTH 960 0
DWIDTH 14 0
BBX 14 14 0 -2
BITMAP
0800
09fc
7f20
1220
1220
3c20
0bfc
3920
7f20
1220
1220
3c20
0b20
70a0
ENDCHAR
STARTCHAR 02-05-52
ENCODING 9556
SWIDTH 960 0
DWIDTH 14 0
BBX 14 14 0 -2
BITMAP
0800
0bfc
0800
08f0
7e90
1290
12f0
1290
3e90
24f0
0690
0a00
13fc
2000
ENDCHAR
STARTCHAR 02-05-53
ENCODING 9557
SWIDTH 960 0
DWIDTH 14 0
BBX 14 14 0 -2
BITMAP
0800
09f8
0888
0888
7f30
1200
13f8
1348
3f48
25f8
0708
0b04
1104
20fc
ENDCHAR
STARTCHAR 02-05-54
ENCODING 9558
SWIDTH 960 0
DWIDTH 14 0
BBX 14 14 0 -2
BITMAP
1290
1290
1290
1290
7ffc
2490
2490
2790
7a90
4a90
0e90
1690
22fc
4480
ENDCHAR
STARTCHAR 02-05-55
ENCODING 9559
SWIDTH 960 0
DWIDTH 14 0
BBX 14 14 0 -2
BITMAP
0850
0848
0848
09fc
7e40
1348
12e8
12f0
3e50
24d0
0748
0a44
1040
20c0
ENDCHAR
STARTCHAR 02-05-56
ENCODING 9560
SWIDTH 960 0
DWIDTH 14 0
BBX 14 14 0 -2
BITMAP
0800
09f8
0948
0948
7ff8
1348
1348
13f8
3e40
25f8
0640
0a40
13fc
2000
ENDCHAR
STARTCHAR 02-05-57
ENCODING 9561
SWIDTH 960 0
DWIDTH 14 0
BBX 14 14 0 -2
BITMAP
1020
1028
1024
11fc
7d20
2528
25e8
2568
7950
4950
0d54
16ec
224c
4484
ENDCHAR
STARTCHAR 02-05-58
ENCODING 9562
SWIDTH 960 0
DWIDTH 14 0
BBX 14 14 0 -2
BITMAP
1000
178c
10f0
1110
7d10
2790
24fc
2690
7a90
4910
0d7c
1680
2260
441c
ENDCHAR
STARTCHAR 02-05-59
ENCODING 9563
SWIDTH 960 0
DWIDTH 14 0
BBX 14 14 0 -2
BITMAP
0870
0890
0888
0904
7ef8
1288
1288
1288
3ef8
2450
0650
0a94
1114
220c
ENDCHAR
STARTCHAR 02-05-60
ENCODING 9564
SWIDTH 960 0
DWIDTH 14 0
BBX 14 14 0 -2
BITMAP
0840
0840
0850
0888
7ff4
1280
1280
12f8
3f20
25fc
0620
0a50
1088
2104
ENDCHAR
STARTCHAR 02-05-61
ENCODING 9565
SWIDTH 960 0
DWIDTH 14 0
BBX 14 14 0 -2
BITMAP
1040
13fc
1040
11f8
7c48
27fc
2448
25f8
7840
4978
0d40
1540
22c0
443c
ENDCHAR
STARTCHAR 02-05-62
ENCODING 9566
SWIDTH 960 0
DWIDTH 14 0
BBX 14 14 0 -2
BITMAP
0820
0820
083c
0820
7ef8
1288
12f8
1288
3ef8
2420
07fc
0a20
1020
2020
ENDCHAR
STARTCHAR 02-05-63
ENCODING 9567
SWIDTH 960 0
DWIDTH 14 0
BBX 14 14 0 -2
BITMAP
0040
3e7c
14d0
7f70
1bac
2cf8
4848
1998
0200
7ffc
0440
0f80
0360
3c10
ENDCHAR
STARTCHAR 02-05-64
ENCODING 9568
SWIDTH 960 0
DWIDTH 14 0
BBX 14 14 0 -2
BITMAP
1040
1040
13f8
1040
7df0
24a0
27fc
2510
79f8
4b14
0df0
1510
21f0
4110
ENDCHAR
STARTCHAR 02-05-65
ENCODING 9569
SWIDTH 960 0
DWIDTH 14 0
BBX 14 14 0 -2
BITMAP
0840
0840
087c
0840
7ef8
1288
12f8
1288
3ef8
2488
06f8
0a50
1088
2108
ENDCHAR
STARTCHAR 02-05-66
ENCODING 9570
SWIDTH 960 0
DWIDTH 14 0
BBX 14 14 0 -2
BITMAP
08a8
08a8
0bfc
08a8
7ea8
12b8
1280
12fc
3e20
25fc
0670
0aa8
1124
2020
ENDCHAR
STARTCHAR 02-05-67
ENCODING 9571
SWIDTH 960 0
DWIDTH 14 0
BBX 14 14 0 -2
BITMAP
0840
0bfc
0840
08f8
7e90
13fc
1200
12f8
3e88
24f8
0688
0af8
1088
2098
ENDCHAR
STARTCHAR 02-05-68
ENCODING 9572
SWIDTH 960 0
DWIDTH 14 0
BBX 14 14 0 -2
BITMAP
0800
09fc
0904
0974
7f04
1374
12f8
1288
3ef8
2488
06f8
0a88
10f8
2088
ENDCHAR
STARTCHAR 02-05-69
ENCODING 9573
SWIDTH 960 0
DWIDTH 14 0
BBX 14 14 0 -2
BITMAP
0840
0878
08c8
0930
7ea0
12c0
1300
13f8
3e40
25fc
0748
0b48
11f8
2108
ENDCHAR
STARTCHAR 02-05-70
ENCODING 9574
SWIDTH 960 0
DWIDTH 14 0
BBX 14 14 0 -2
BITMAP
0820
0840
08f8
0888
7ef8
1288
12f8
1288
3ef8
2440
06a8
0ba4
1194
2270
ENDCHAR
STARTCHAR 02-05-71
ENCODING 9575
SWIDTH 960 0
DWIDTH 14 0
BBX 14 14 0 -2
BITMAP
0040
3d50
2648
27f8
2440
3ffc
24a0
2550
3e48
27f4
2490
25e0
2450
4f88
ENDCHAR
STARTCHAR 02-05-72
ENCODING 9576
SWIDTH 960 0
DWIDTH 14 0
BBX 14 14 0 -2
BITMAP
1220
16a0
16a0
16a0
7ffc
2848
28c8
2fe8
2b28
7330
1590
1530
29c8
4004
ENDCHAR
STARTCHAR 02-05-73
ENCODING 9577
SWIDTH 960 0
DWIDTH 14 0
BBX 14 14 0 -2
BITMAP
0840
0880
09f8
0948
7ff8
1348
13f8
1368
3e70
24b0
06a8
0abc
1124
221c
ENDCHAR
STARTCHAR 02-05-74
ENCODING 9578
SWIDTH 960 0
DWIDTH 14 0
BBX 14 14 0 -2
BITMAP
0800
08f8
0888
08f8
7e88
12f8
13fc
1354
3dfc
24f8
0650
0a20
1070
218c
ENDCHAR
STARTCHAR 02-05-75
ENCODING 9579
SWIDTH 960 0
DWIDTH 14 0
BBX 14 14 0 -2
BITMAP
0820
09fc
0850
09fc
7e00
12f8
1288
12f8
3e88
24f8
0620
0bfc
1020
2020
ENDCHAR
STARTCHAR 02-05-76
ENCODING 9580
SWIDTH 960 0
DWIDTH 14 0
BBX 14 14 0 -2
BITMAP
0840
3e7c
7fd0
1c20
2a50
498c
1ffc
1100
1ffc
1220
2220
27c0
41b0
1e08
ENDCHAR
STARTCHAR 02-05-77
ENCODING 9581
SWIDTH 960 0
DWIDTH 14 0
BBX 14 14 0 -2
BITMAP
0820
09fc
0820
08f8
7ef8
12a8
12f8
12a8
3ffc
2414
07fc
0a90
1050
2030
ENDCHAR
STARTCHAR 02-05-78
ENCODING 9582
SWIDTH 960 0
DWIDTH 14 0
BBX 14 14 0 -2
BITMAP
1220
1220
1fe0
1220
7ffc
2ed4
2e98
2e90
2f90
7730
16a8
1aa8
2a44
4284
ENDCHAR
STARTCHAR 02-05-79
ENCODING 9583
SWIDTH 960 0
DWIDTH 14 0
BBX 14 14 0 -2
BITMAP
1000
11f8
1040
13fc
7f58
2550
25f8
2400
7bfc
4840
0cf8
1508
2008
4030
ENDCHAR
STARTCHAR 02-05-80
ENCODING 9584
SWIDTH 960 0
DWIDTH 14 0
BBX 14 14 0 -2
BITMAP
1080
1080
1080
11fc
7f58
2558
27fc
2558
7958
4bfc
0c00
16a8
2254
4454
ENDCHAR
STARTCHAR 02-05-81
ENCODING 9585
SWIDTH 960 0
DWIDTH 14 0
BBX 14 14 0 -2
BITMAP
1018
11f0
1148
1228
7df0
2490
2490
25f8
7908
4bfc
0d54
16ac
2204
4018
ENDCHAR
STARTCHAR 02-05-82
ENCODING 9586
SWIDTH 960 0
DWIDTH 14 0
BBX 14 14 0 -2
BITMAP
1040
11f8
1040
13fc
7d10
27bc
2510
25bc
7b00
4bfc
0ca0
14a0
2124
421c
ENDCHAR
STARTCHAR 02-05-83
ENCODING 9587
SWIDTH 960 0
DWIDTH 14 0
BBX 14 14 0 -2
BITMAP
1040
17fc
13f8
12e8
7ea8
26e8
27f8
25f0
7910
49f0
0d10
15f0
2000
47fc
ENDCHAR
STARTCHAR 02-05-84
ENCODING 9588
SWIDTH 960 0
DWIDTH 14 0
BBX 14 14 0 -2
BITMAP
0100
3ffc
2000
1ff0
1ff0
1010
1ff0
3978
2928
3fe8
2ab8
3bac
294c
5a84
ENDCHAR
STARTCHAR 02-05-85
ENCODING 9589
SWIDTH 960 0
DWIDTH 14 0
BBX 14 14 0 -2
BITMAP
1000
17fc
1150
124c
7ff8
26d8
27f8
26d8
7b68
4ad8
0ff8
16d8
2368
4258
ENDCHAR
STARTCHAR 02-05-86
ENCODING 9590
SWIDTH 960 0
DWIDTH 14 0
BBX 14 14 0 -2
BITMAP
1108
27d0
73b8
2b94
783c
1390
5ab4
5bb4
1210
7ffc
0440
0f80
0360
3c10
ENDCHAR
STARTCHAR 02-05-87
ENCODING 9591
SWIDTH 960 0
DWIDTH 14 0
BBX 14 14 0 -2
BITMAP
0000
3ff0
0020
0040
0080
0100
0100
01fc
0100
0100
0100
0100
0100
0300
ENDCHAR
STARTCHAR 02-05-88
ENCODING 9592
SWIDTH 960 0
DWIDTH 14 0
BBX 14 14 0 -2
BITMAP
0000
0fe0
00c0
3ff8
0100
0100
0300
3ef8
0410
0820
7ffc
0820
0820
1860
ENDCHAR
STARTCHAR 02-05-89
ENCODING 9593
SWIDTH 960 0
DWIDTH 14 0
BBX 14 14 0 -2
BITMAP
0000
3ff8
2848
3e50
3e20
28d0
3f0c
0fe0
00c0
0100
7ffc
0100
0100
0700
ENDCHAR
STARTCHAR 02-05-90
ENCODING 9594
SWIDTH 960 0
DWIDTH 14 0
BBX 14 14 0 -2
BITMAP
1020
5220
7ef8
3e50
7ffc
2020
3ef8
2220
3e20
0fe0
0080
7ffc
0100
0300
ENDCHAR
STARTCHAR 02-05-91
ENCODING 9595
SWIDTH 960 0
DWIDTH 14 0
BBX 14 14 0 -2
BITMAP
1108
27d0
7038
2b94
7bbc
1390
5ab4
5bb4
1010
0fe0
0080
7ffc
0100
0300
ENDCHAR
STARTCHAR 02-05-92
ENCODING 9596
SWIDTH 960 0
DWIDTH 14 0
BBX 14 14 0 -2
BITMAP
0100
0100
3ffc
2008
4000
0000
3ff8
0100
0100
0100
0100
0100
0100
0300
ENDCHAR
STARTCHAR 02-05-93
ENCODING 9597
SWIDTH 960 0
DWIDTH 14 0
BBX 14 14 0 -2
BITMAP
0100
0100
3ffc
2008
4100
0100
0100
3fc0
0240
0240
0440
0444
0844
303c
ENDCHAR
STARTCHAR 02-05-94
ENCODING 9598
SWIDTH 960 0
DWIDTH 14 0
BBX 14 14 0 -2
BITMAP
0100
0100
3ffc
2008
4000
1ff0
0000
0000
7ffc
0100
0100
0100
0100
0300
ENDCHAR
STARTCHAR 02-08-01
ENCODING 10273
SWIDTH 960 0
DWIDTH 14 0
BBX 14 14 0 -2
BITMAP
0100
0100
3ffc
2008
5e40
0240
1e40
1240
1080
1ea0
1290
02b0
05c8
1808
ENDCHAR
STARTCHAR 02-08-02
ENCODING 10274
SWIDTH 960 0
DWIDTH 14 0
BBX 14 14 0 -2
BITMAP
0100
0100
3ffc
20a8
4090
1ffc
1080
1090
1e50
1260
1224
2254
2c8c
4004
ENDCHAR
STARTCHAR 02-08-03
ENCODING 10275
SWIDTH 960 0
DWIDTH 14 0
BBX 14 14 0 -2
BITMAP
0100
0100
3ffc
2008
7f00
12f8
1e88
1288
1e50
1250
1220
1e70
6388
0204
ENDCHAR
STARTCHAR 02-08-04
ENCODING 10276
SWIDTH 960 0
DWIDTH 14 0
BBX 14 14 0 -2
BITMAP
0100
0100
3ffc
20e8
4f20
0910
1090
0100
3ff8
0380
0540
0920
3118
0100
ENDCHAR
STARTCHAR 02-08-05
ENCODING 10277
SWIDTH 960 0
DWIDTH 14 0
BBX 14 14 0 -2
BITMAP
0100
0100
3ffc
20e8
5f00
0fe0
0920
0fe0
3ff8
2148
2128
2fd8
2008
2018
ENDCHAR
STARTCHAR 02-08-06
ENCODING 10278
SWIDTH 960 0
DWIDTH 14 0
BBX 14 14 0 -2
BITMAP
0100
0100
3ffc
2408
65f8
2440
3c40
25f8
0548
7d68
15d8
1508
2508
4518
ENDCHAR
STARTCHAR 02-08-07
ENCODING 10279
SWIDTH 960 0
DWIDTH 14 0
BBX 14 14 0 -2
BITMAP
0100
0100
3ffc
21f8
5010
0bfc
49f0
23fc
2208
05f0
1090
2060
20f0
470c
ENDCHAR
STARTCHAR 02-08-08
ENCODING 10280
SWIDTH 960 0
DWIDTH 14 0
BBX 14 14 0 -2
BITMAP
0820
7f20
4920
4ff8
3820
0820
3e20
09fc
7e20
0850
3e50
2288
3e88
2304
ENDCHAR
STARTCHAR 02-08-09
ENCODING 10281
SWIDTH 960 0
DWIDTH 14 0
BBX 14 14 0 -2
BITMAP
0100
0100
3ffc
2088
79f0
2b20
28c0
3330
2dec
2a40
2bf8
35f0
2040
27f8
ENDCHAR
STARTCHAR 02-08-10
ENCODING 10282
SWIDTH 960 0
DWIDTH 14 0
BBX 14 14 0 -2
BITMAP
0100
3ffc
2448
65f0
2510
3df0
25f0
0510
7df0
1440
17f8
14e0
2550
4648
ENDCHAR
STARTCHAR 02-08-11
ENCODING 10283
SWIDTH 960 0
DWIDTH 14 0
BBX 14 14 0 -2
BITMAP
0020
00c0
0f40
1220
1110
2110
0040
3ff8
0040
0840
0440
0440
0040
00c0
ENDCHAR
STARTCHAR 02-08-12
ENCODING 10284
SWIDTH 960 0
DWIDTH 14 0
BBX 14 14 0 -2
BITMAP
0000
1ff0
1010
1ff0
1010
1ff0
0000
3ff8
0040
7ffc
0840
0440
0440
00c0
ENDCHAR
STARTCHAR 02-08-13
ENCODING 10285
SWIDTH 960 0
DWIDTH 14 0
BBX 14 14 0 -2
BITMAP
0120
0110
7ffc
1ff0
1110
1ff0
1110
1ff0
1110
0020
7ffc
0820
0420
0060
ENDCHAR
STARTCHAR 02-08-14
ENCODING 10286
SWIDTH 960 0
DWIDTH 14 0
BBX 14 14 0 -2
BITMAP
1400
1400
2200
23f8
4140
1440
14f0
1440
1440
1440
15f8
2404
2404
43fc
ENDCHAR
STARTCHAR 02-08-15
ENCODING 10287
SWIDTH 960 0
DWIDTH 14 0
BBX 14 14 0 -2
BITMAP
1010
11e0
1040
7ffc
11f8
1148
11f8
1948
19f8
1840
19f8
2bfc
2804
47fc
ENDCHAR
STARTCHAR 02-08-16
ENCODING 10288
SWIDTH 960 0
DWIDTH 14 0
BBX 14 14 0 -2
BITMAP
0000
1ff8
1008
1ff8
1288
1280
17f0
1880
1ffc
11c0
12a0
2490
288c
4080
ENDCHAR
STARTCHAR 02-08-17
ENCODING 10289
SWIDTH 960 0
DWIDTH 14 0
BBX 14 14 0 -2
BITMAP
0000
1ff8
1008
1ff8
1528
1ff8
1520
15e0
17f0
1080
1ff8
22a0
2490
4888
ENDCHAR
STARTCHAR 02-08-18
ENCODING 10290
SWIDTH 960 0
DWIDTH 14 0
BBX 14 14 0 -2
BITMAP
0000
1ff8
1008
1ff8
1228
12a0
14b8
1aa0
13fc
1420
1cb8
24a0
2560
461c
ENDCHAR
STARTCHAR 02-08-19
ENCODING 10291
SWIDTH 960 0
DWIDTH 14 0
BBX 14 14 0 -2
BITMAP
0000
1ff8
1008
1ff8
12b8
13f8
14b0
1ab0
12f8
1420
1ffc
2470
24a8
4524
ENDCHAR
STARTCHAR 02-08-20
ENCODING 10292
SWIDTH 960 0
DWIDTH 14 0
BBX 14 14 0 -2
BITMAP
0000
1ff8
1008
1ff8
12a8
13fc
14a8
1af8
1220
14f8
1dfc
24d0
2470
45dc
ENDCHAR
STARTCHAR 02-08-21
ENCODING 10293
SWIDTH 960 0
DWIDTH 14 0
BBX 14 14 0 -2
BITMAP
0000
1ff8
1008
1ff8
12f0
13f8
14e0
1bb0
12e8
15fc
1de8
25a8
25e8
4518
ENDCHAR
STARTCHAR 02-08-22
ENCODING 10294
SWIDTH 960 0
DWIDTH 14 0
BBX 14 14 0 -2
BITMAP
0820
0420
0440
3ff8
0100
1110
1110
1110
1ff0
1110
0200
0200
0400
1800
ENDCHAR
STARTCHAR 02-08-23
ENCODING 10295
SWIDTH 960 0
DWIDTH 14 0
BBX 14 14 0 -2
BITMAP
1000
11f0
1020
5420
5440
5440
5480
5480
5480
5508
7d08
4508
40f8
0000
ENDCHAR
STARTCHAR 02-08-24
ENCODING 10296
SWIDTH 960 0
DWIDTH 14 0
BBX 14 14 0 -2
BITMAP
0100
2108
2108
3ff8
2008
1010
1110
1110
1110
1110
1110
2110
2010
4010
ENDCHAR
STARTCHAR 02-08-25
ENCODING 10297
SWIDTH 960 0
DWIDTH 14 0
BBX 14 14 0 -2
BITMAP
1000
13fc
10a0
54a0
54a0
54a0
54a0
54a0
54a0
54a0
7d20
4524
4224
041c
ENDCHAR
STARTCHAR 02-08-26
ENCODING 10298
SWIDTH 960 0
DWIDTH 14 0
BBX 14 14 0 -2
BITMAP
1000
11f8
1108
5508
5508
55f8
5528
5520
5520
5520
7d10
4210
4208
0404
ENDCHAR
STARTCHAR 02-08-27
ENCODING 10299
SWIDTH 960 0
DWIDTH 14 0
BBX 14 14 0 -2
BITMAP
0100
2108
2108
3ff8
2008
0200
7ffc
0200
07e0
0420
0a40
1180
2660
581c
ENDCHAR
STARTCHAR 02-08-28
ENCODING 10300
SWIDTH 960 0
DWIDTH 14 0
BBX 14 14 0 -2
BITMAP
1000
10f8
1090
5490
5490
5490
57fc
5430
5430
5450
7c90
4110
4610
0030
ENDCHAR
STARTCHAR 02-08-29
ENCODING 10301
SWIDTH 960 0
DWIDTH 14 0
BBX 14 14 0 -2
BITMAP
0000
1ff0
1110
1110
1ff0
1000
1008
0ff8
0100
2108
2108
2108
3ff8
2008
ENDCHAR
STARTCHAR 02-08-30
ENCODING 10302
SWIDTH 960 0
DWIDTH 14 0
BBX 14 14 0 -2
BITMAP
1000
11fc
1100
5500
55f8
5520
5520
55fc
5520
5520
7d20
4220
4220
0420
ENDCHAR
STARTCHAR 02-08-31
ENCODING 10303
SWIDTH 960 0
DWIDTH 14 0
BBX 14 14 0 -2
BITMAP
1040
1248
1148
5550
5440
55f8
5440
5440
57fc
5440
7c40
4440
4040
0040
ENDCHAR
STARTCHAR 02-08-32
ENCODING 10304
SWIDTH 960 0
DWIDTH 14 0
BBX 14 14 0 -2
BITMAP
1008
1030
11c0
5500
5500
55fc
5520
5520
5560
5530
7e28
4220
4420
0020
ENDCHAR
STARTCHAR 02-08-33
ENCODING 10305
SWIDTH 960 0
DWIDTH 14 0
BBX 14 14 0 -2
BITMAP
1000
13fc
1100
5500
55f8
5508
5508
5508
55f8
5508
7d00
4100
43fc
0000
ENDCHAR
STARTCHAR 02-08-34
ENCODING 10306
SWIDTH 960 0
DWIDTH 14 0
BBX 14 14 0 -2
BITMAP
0100
1110
1110
1ff0
0000
7ffc
0010
1f10
1110
1110
1f10
1110
0010
0030
ENDCHAR
STARTCHAR 02-08-35
ENCODING 10307
SWIDTH 960 0
DWIDTH 14 0
BBX 14 14 0 -2
BITMAP
0100
1110
1110
1ff0
0100
0100
3ff8
0020
0820
0420
0240
0240
0080
7ffc
ENDCHAR
STARTCHAR 02-08-36
ENCODING 10308
SWIDTH 960 0
DWIDTH 14 0
BBX 14 14 0 -2
BITMAP
0100
1110
1110
1ff0
0000
3ff8
0208
0408
1830
6fe0
0820
0820
0fe0
0820
ENDCHAR
STARTCHAR 02-08-37
ENCODING 10309
SWIDTH 960 0
DWIDTH 14 0
BBX 14 14 0 -2
BITMAP
10a0
10a0
13f8
54a8
54a8
57f8
56a8
56a0
57fc
56a4
7ca4
4138
4120
0220
ENDCHAR
STARTCHAR 02-08-38
ENCODING 10310
SWIDTH 960 0
DWIDTH 14 0
BBX 14 14 0 -2
BITMAP
1040
1040
10a0
54a0
5510
56e8
5404
57f8
5448
5448
7c48
4470
4040
0040
ENDCHAR
STARTCHAR 02-08-39
ENCODING 10311
SWIDTH 960 0
DWIDTH 14 0
BBX 14 14 0 -2
BITMAP
1040
1040
1040
57fc
5440
5440
5440
55f8
5508
5508
7d08
4508
41f8
0108
ENDCHAR
STARTCHAR 02-08-40
ENCODING 10312
SWIDTH 960 0
DWIDTH 14 0
BBX 14 14 0 -2
BITMAP
0100
1110
1110
1ff0
0000
0810
0efc
1290
3290
4c90
07fc
0810
1010
6010
ENDCHAR
STARTCHAR 02-08-41
ENCODING 10313
SWIDTH 960 0
DWIDTH 14 0
BBX 14 14 0 -2
BITMAP
0100
1110
1110
1ff0
0200
07e0
0c40
3280
07c0
1830
6fec
0820
0fe0
0820
ENDCHAR
STARTCHAR 02-08-42
ENCODING 10314
SWIDTH 960 0
DWIDTH 14 0
BBX 14 14 0 -2
BITMAP
0100
1110
1110
1ff0
0000
11e0
7d20
1124
121c
1fe0
7120
10c0
1130
360c
ENDCHAR
STARTCHAR 02-08-43
ENCODING 10315
SWIDTH 960 0
DWIDTH 14 0
BBX 14 14 0 -2
BITMAP
1040
1040
13f8
5440
5510
57fc
5510
5510
57fc
54a0
7ca0
4124
4224
0c1c
ENDCHAR
STARTCHAR 02-08-44
ENCODING 10316
SWIDTH 960 0
DWIDTH 14 0
BBX 14 14 0 -2
BITMAP
1040
1040
13fc
56a8
54a0
54a8
5518
5600
57f8
5440
7c40
4440
43fc
0000
ENDCHAR
STARTCHAR 02-08-45
ENCODING 10317
SWIDTH 960 0
DWIDTH 14 0
BBX 14 14 0 -2
BITMAP
1000
11f0
1110
5510
55f0
5510
55f0
5520
5524
55f8
7d20
4524
41e4
061c
ENDCHAR
STARTCHAR 02-08-46
ENCODING 10318
SWIDTH 960 0
DWIDTH 14 0
BBX 14 14 0 -2
BITMAP
0100
2108
3ff8
0000
1ff8
1008
1ff8
1490
1490
17f0
2888
2888
4ff8
0808
ENDCHAR
STARTCHAR 02-08-47
ENCODING 10319
SWIDTH 960 0
DWIDTH 14 0
BBX 14 14 0 -2
BITMAP
1040
1040
13fc
55f8
5440
57fc
5400
55f8
5548
5548
7df8
4508
4108
0118
ENDCHAR
STARTCHAR 02-08-48
ENCODING 10320
SWIDTH 960 0
DWIDTH 14 0
BBX 14 14 0 -2
BITMAP
1040
1040
13fc
5440
55f8
5548
55f8
5548
55f8
54e0
7d50
4248
4444
0040
ENDCHAR
STARTCHAR 02-08-49
ENCODING 10321
SWIDTH 960 0
DWIDTH 14 0
BBX 14 14 0 -2
BITMAP
1008
1110
10e0
5590
57fc
5480
55f8
5508
57f8
5508
7df8
4508
4108
0118
ENDCHAR
STARTCHAR 02-08-50
ENCODING 10322
SWIDTH 960 0
DWIDTH 14 0
BBX 14 14 0 -2
BITMAP
1040
1040
13fc
54a0
5550
5548
57f4
5550
55f0
5550
7df0
4554
4044
003c
ENDCHAR
STARTCHAR 02-08-51
ENCODING 10323
SWIDTH 960 0
DWIDTH 14 0
BBX 14 14 0 -2
BITMAP
0100
2108
2108
3ff8
0000
3e08
2248
3e48
2248
3e48
2248
3e08
1408
2218
ENDCHAR
STARTCHAR 02-08-52
ENCODING 10324
SWIDTH 960 0
DWIDTH 14 0
BBX 14 14 0 -2
BITMAP
1040
1040
13fc
5510
54a0
57fc
5648
5440
55f8
5548
7d48
4548
4158
0040
ENDCHAR
STARTCHAR 02-08-53
ENCODING 10325
SWIDTH 960 0
DWIDTH 14 0
BBX 14 14 0 -2
BITMAP
0100
2108
3ff8
0040
13f8
1048
2ffc
4848
13f8
3040
53f8
1040
17fc
1040
ENDCHAR
STARTCHAR 02-08-54
ENCODING 10326
SWIDTH 960 0
DWIDTH 14 0
BBX 14 14 0 -2
BITMAP
1040
1148
1148
55f8
5400
57fc
5440
55f8
5568
5568
7d68
4568
4168
0118
ENDCHAR
STARTCHAR 02-08-55
ENCODING 10327
SWIDTH 960 0
DWIDTH 14 0
BBX 14 14 0 -2
BITMAP
0100
2108
3ff8
0be0
0820
1210
624c
0460
3f90
7ff8
2288
1658
1a68
6698
ENDCHAR
STARTCHAR 02-08-56
ENCODING 10328
SWIDTH 960 0
DWIDTH 14 0
BBX 14 14 0 -2
BITMAP
1040
11f8
1000
54f0
5490
54f0
5400
55f8
5508
55e8
7da8
45e8
4108
0118
ENDCHAR
STARTCHAR 02-08-57
ENCODING 10329
SWIDTH 960 0
DWIDTH 14 0
BBX 14 14 0 -2
BITMAP
1040
1080
11f8
5548
55f8
5548
55f8
55c8
54d0
5550
7d68
457c
4244
043c
ENDCHAR
STARTCHAR 02-08-58
ENCODING 10330
SWIDTH 960 0
DWIDTH 14 0
BBX 14 14 0 -2
BITMAP
1050
10a0
13fc
54a0
55f8
54a8
57fc
54a8
55f8
54a0
7db0
42a8
44a4
00a0
ENDCHAR
STARTCHAR 02-08-59
ENCODING 10331
SWIDTH 960 0
DWIDTH 14 0
BBX 14 14 0 -2
BITMAP
0100
1110
1110
1ff0
0878
3f48
0a50
7ff0
0848
1f44
7144
1f64
1158
1f40
ENDCHAR
STARTCHAR 02-08-60
ENCODING 10332
SWIDTH 960 0
DWIDTH 14 0
BBX 14 14 0 -2
BITMAP
1000
13fc
10a0
55f8
55a8
55f8
5400
55f8
5400
57fc
7d50
4148
4248
00c0
ENDCHAR
STARTCHAR 02-08-61
ENCODING 10333
SWIDTH 960 0
DWIDTH 14 0
BBX 14 14 0 -2
BITMAP
0100
1110
1110
1ff0
2420
2478
3da8
24b0
05c0
7c10
15fc
1490
2450
4430
ENDCHAR
STARTCHAR 02-08-62
ENCODING 10334
SWIDTH 960 0
DWIDTH 14 0
BBX 14 14 0 -2
BITMAP
0100
0fe0
0820
0fe0
0fe0
0ffc
0ff8
1548
12a8
22b0
0100
2108
2108
3ff8
ENDCHAR
STARTCHAR 02-08-63
ENCODING 10335
SWIDTH 960 0
DWIDTH 14 0
BBX 14 14 0 -2
BITMAP
10e0
1020
1110
57fc
5648
5758
5648
57f8
55f0
5510
7df0
4510
41f0
0110
ENDCHAR
STARTCHAR 02-08-64
ENCODING 10336
SWIDTH 960 0
DWIDTH 14 0
BBX 14 14 0 -2
BITMAP
0100
1110
1110
1ff0
0840
0c40
12fc
3ea8
4930
7f20
2a50
1c50
0e88
7104
ENDCHAR
STARTCHAR 02-08-65
ENCODING 10337
SWIDTH 960 0
DWIDTH 14 0
BBX 14 14 0 -2
BITMAP
1110
13b4
11b4
5518
56a4
5400
55fc
5508
5640
55f8
7c48
4448
4088
0330
ENDCHAR
STARTCHAR 02-08-66
ENCODING 10338
SWIDTH 960 0
DWIDTH 14 0
BBX 14 14 0 -2
BITMAP
1040
1248
1150
57fc
54e0
5550
564c
5548
55fc
5668
7fa8
44fc
4108
0608
ENDCHAR
STARTCHAR 02-08-67
ENCODING 10339
SWIDTH 960 0
DWIDTH 14 0
BBX 14 14 0 -2
BITMAP
1100
11fc
1294
5ca4
5be8
5ab0
5abc
5be8
5aa8
5bfc
7a28
4a28
4228
0468
ENDCHAR
STARTCHAR 02-08-68
ENCODING 10340
SWIDTH 960 0
DWIDTH 14 0
BBX 14 14 0 -2
BITMAP
0100
1110
1ff0
0880
1ff8
3100
5ff0
1ff0
1100
1ffc
3cf8
2488
2788
2018
ENDCHAR
STARTCHAR 02-08-69
ENCODING 10341
SWIDTH 960 0
DWIDTH 14 0
BBX 14 14 0 -2
BITMAP
0200
1ff0
11d0
1f50
1ff0
1390
1550
7ffc
06c0
3938
0100
1110
1110
1ff0
ENDCHAR
STARTCHAR 02-08-70
ENCODING 10342
SWIDTH 960 0
DWIDTH 14 0
BBX 14 14 0 -2
BITMAP
1040
10f0
1090
54f0
54f0
5490
55f8
5548
55f8
5548
7df8
47fc
4110
0210
ENDCHAR
STARTCHAR 02-08-71
ENCODING 10343
SWIDTH 960 0
DWIDTH 14 0
BBX 14 14 0 -2
BITMAP
1040
13f8
1040
55f0
57fc
55e8
5440
55f8
57fc
5408
7ffc
42ac
43a8
0018
ENDCHAR
STARTCHAR 02-08-72
ENCODING 10344
SWIDTH 960 0
DWIDTH 14 0
BBX 14 14 0 -2
BITMAP
1330
13fc
1350
57bc
5598
572c
55f8
5508
55f8
5508
7df8
45f8
4090
030c
ENDCHAR
STARTCHAR 02-08-73
ENCODING 10345
SWIDTH 960 0
DWIDTH 14 0
BBX 14 14 0 -2
BITMAP
13b8
12a8
13b8
5400
57fc
57d0
5690
57fc
5768
57e8
7fd0
4750
43e8
0444
ENDCHAR
STARTCHAR 02-08-74
ENCODING 10346
SWIDTH 960 0
DWIDTH 14 0
BBX 14 14 0 -2
BITMAP
1210
13d8
1214
5ffc
5f90
5d50
5fd0
5e90
5fd8
5f68
7de8
4f68
0d48
1544
ENDCHAR
STARTCHAR 02-08-75
ENCODING 10347
SWIDTH 960 0
DWIDTH 14 0
BBX 14 14 0 -2
BITMAP
0000
3ff8
0490
0920
1240
0920
0490
0000
1ff0
0100
0100
0100
7ffc
0000
ENDCHAR
STARTCHAR 02-08-76
ENCODING 10348
SWIDTH 960 0
DWIDTH 14 0
BBX 14 14 0 -2
BITMAP
0888
1110
2220
1110
0988
0200
3ff8
2448
2248
2188
2388
2c48
3ff8
2008
ENDCHAR
STARTCHAR 02-08-77
ENCODING 10349
SWIDTH 960 0
DWIDTH 14 0
BBX 14 14 0 -2
BITMAP
0490
0920
1240
0920
1ff0
16d0
1110
16d0
1ff0
1990
1dd4
154c
19ec
6704
ENDCHAR
STARTCHAR 02-08-78
ENCODING 10350
SWIDTH 960 0
DWIDTH 14 0
BBX 14 14 0 -2
BITMAP
0000
03f0
0090
7c90
1090
1090
13d0
1090
1090
1c90
6114
010c
020c
0404
ENDCHAR
STARTCHAR 02-08-79
ENCODING 10351
SWIDTH 960 0
DWIDTH 14 0
BBX 14 14 0 -2
BITMAP
0000
0000
1fe0
1020
1020
1fe0
1000
1000
1ff0
1010
1010
1010
1ff0
1010
ENDCHAR
STARTCHAR 02-08-80
ENCODING 10352
SWIDTH 960 0
DWIDTH 14 0
BBX 14 14 0 -2
BITMAP
0000
3ff8
0100
0100
1ff0
1110
1110
1110
1110
1110
1160
1100
0100
0100
ENDCHAR
STARTCHAR 02-08-81
ENCODING 10353
SWIDTH 960 0
DWIDTH 14 0
BBX 14 14 0 -2
BITMAP
1020
1020
1040
7cf0
5490
5490
5490
5490
5490
5490
5910
1114
1214
140c
ENDCHAR
STARTCHAR 02-08-82
ENCODING 10354
SWIDTH 960 0
DWIDTH 14 0
BBX 14 14 0 -2
BITMAP
0890
0888
10fc
17c0
3040
5024
1114
010c
1ff0
1110
1110
1110
1160
0100
ENDCHAR
STARTCHAR 02-08-83
ENCODING 10355
SWIDTH 960 0
DWIDTH 14 0
BBX 14 14 0 -2
BITMAP
1020
1020
1040
7c80
55f8
5508
5508
5508
55f8
5508
5908
1108
11f8
1108
ENDCHAR
STARTCHAR 02-08-84
ENCODING 10356
SWIDTH 960 0
DWIDTH 14 0
BBX 14 14 0 -2
BITMAP
0100
0940
0920
1110
2110
3ff8
2108
2588
2548
2528
2928
2108
2108
2018
ENDCHAR
STARTCHAR 02-08-85
ENCODING 10357
SWIDTH 960 0
DWIDTH 14 0
BBX 14 14 0 -2
BITMAP
0100
0100
7ffc
0240
1250
1248
24c4
4904
0100
1ff0
1110
1110
1160
0100
ENDCHAR
STARTCHAR 02-08-86
ENCODING 10358
SWIDTH 960 0
DWIDTH 14 0
BBX 14 14 0 -2
BITMAP
0400
04f8
3f88
04b0
3f90
0488
3fc8
08b0
1100
3ff0
1110
1110
1160
0100
ENDCHAR
STARTCHAR 02-08-87
ENCODING 10359
SWIDTH 960 0
DWIDTH 14 0
BBX 14 14 0 -2
BITMAP
1040
1048
11f8
7c50
5450
57fc
5440
54f8
5588
56f8
5888
1088
10f8
1088
ENDCHAR
STARTCHAR 02-08-88
ENCODING 10360
SWIDTH 960 0
DWIDTH 14 0
BBX 14 14 0 -2
BITMAP
1150
1150
13fc
7d50
5550
5570
5500
55f8
5440
57fc
58e0
1150
164c
1040
ENDCHAR
STARTCHAR 02-08-89
ENCODING 10361
SWIDTH 960 0
DWIDTH 14 0
BBX 14 14 0 -2
BITMAP
1100
11f8
1148
7ee8
56b0
5590
55f8
5604
57f8
5440
5950
1148
1248
10c0
ENDCHAR
STARTCHAR 02-08-90
ENCODING 10362
SWIDTH 960 0
DWIDTH 14 0
BBX 14 14 0 -2
BITMAP
1000
13fc
10a0
7df8
55a8
55f8
5400
55f8
5400
57fc
5950
1248
1448
10c0
ENDCHAR
STARTCHAR 02-08-91
ENCODING 10363
SWIDTH 960 0
DWIDTH 14 0
BBX 14 14 0 -2
BITMAP
1000
13fc
1200
7fc8
5608
57fc
5748
5768
57d8
5a18
5548
1548
18e8
1318
ENDCHAR
STARTCHAR 02-08-92
ENCODING 10364
SWIDTH 960 0
DWIDTH 14 0
BBX 14 14 0 -2
BITMAP
0810
3e10
09fc
7e90
3e50
0e10
7ff0
0fe0
0820
0fe0
1ff0
1110
1110
1160
ENDCHAR
STARTCHAR 02-08-93
ENCODING 10365
SWIDTH 960 0
DWIDTH 14 0
BBX 14 14 0 -2
BITMAP
1040
13f8
1040
7df0
57fc
55e8
5440
57f8
57fc
5408
5bfc
12ac
13a8
1018
ENDCHAR
STARTCHAR 02-08-94
ENCODING 10366
SWIDTH 960 0
DWIDTH 14 0
BBX 14 14 0 -2
BITMAP
1110
1110
17fc
7d10
57f8
56a8
57f8
5424
57fc
5a20
1328
1294
123c
14c4
ENDCHAR
STARTCHAR 02-12-01
ENCODING 11297
SWIDTH 960 0
DWIDTH 14 0
BBX 14 14 0 -2
BITMAP
1040
1040
13fc
7e88
57e8
56bc
57c8
5628
57d8
5b58
13c8
1548
18e8
1318
ENDCHAR
STARTCHAR 02-12-02
ENCODING 11298
SWIDTH 960 0
DWIDTH 14 0
BBX 14 14 0 -2
BITMAP
12a8
1330
17fc
7bb8
5b30
5bb8
5b30
5bbc
5800
5ff8
1230
11e0
1130
161c
ENDCHAR
STARTCHAR 02-12-03
ENCODING 11299
SWIDTH 960 0
DWIDTH 14 0
BBX 14 14 0 -2
BITMAP
0080
0080
1ffc
1220
1220
1220
15fc
1420
1c70
1470
14a8
2524
2420
4420
ENDCHAR
STARTCHAR 02-12-04
ENCODING 11300
SWIDTH 960 0
DWIDTH 14 0
BBX 14 14 0 -2
BITMAP
0080
0080
1ffc
1420
1420
1ffc
1420
15f8
1488
1690
1c50
2420
2450
4d8c
ENDCHAR
STARTCHAR 02-12-05
ENCODING 11301
SWIDTH 960 0
DWIDTH 14 0
BBX 14 14 0 -2
BITMAP
0080
0080
1ffc
1220
1ffc
1220
1248
1290
1224
13c8
1510
2564
2904
50fc
ENDCHAR
STARTCHAR 02-12-06
ENCODING 11302
SWIDTH 960 0
DWIDTH 14 0
BBX 14 14 0 -2
BITMAP
0080
0080
1ffc
1120
1ffc
1120
11e0
1000
17f8
1408
17f8
2440
2830
500c
ENDCHAR
STARTCHAR 02-12-07
ENCODING 11303
SWIDTH 960 0
DWIDTH 14 0
BBX 14 14 0 -2
BITMAP
0080
0080
1ffc
1120
1120
1ffc
1120
1120
17f8
1488
17f8
2488
27f8
4408
ENDCHAR
STARTCHAR 02-12-08
ENCODING 11304
SWIDTH 960 0
DWIDTH 14 0
BBX 14 14 0 -2
BITMAP
0080
0080
1ffc
1100
17f0
1490
17f0
1490
17f0
1290
12a8
24fc
2484
487c
ENDCHAR
STARTCHAR 02-12-09
ENCODING 11305
SWIDTH 960 0
DWIDTH 14 0
BBX 14 14 0 -2
BITMAP
0080
0080
1ffc
1220
1fa0
127c
1fc8
1248
1fa8
1230
1790
24a8
28c8
5184
ENDCHAR
STARTCHAR 02-12-10
ENCODING 11306
SWIDTH 960 0
DWIDTH 14 0
BBX 14 14 0 -2
BITMAP
0080
0080
1ffc
1000
17f0
1490
17f0
17f0
1140
17f8
1140
2ffc
2220
4c18
ENDCHAR
STARTCHAR 02-12-11
ENCODING 11307
SWIDTH 960 0
DWIDTH 14 0
BBX 14 14 0 -2
BITMAP
0000
7bf8
0a08
12e8
12a8
22a8
7ae8
0aa8
4a88
32a8
1268
2a18
2600
41fc
ENDCHAR
STARTCHAR 02-12-12
ENCODING 11308
SWIDTH 960 0
DWIDTH 14 0
BBX 14 14 0 -2
BITMAP
0000
7bf8
0aa8
12a8
12e8
22a8
7aa8
0ae8
4aa8
32a8
13f8
2a08
2600
41fc
ENDCHAR
STARTCHAR 02-12-13
ENCODING 11309
SWIDTH 960 0
DWIDTH 14 0
BBX 14 14 0 -2
BITMAP
0100
0100
7ffc
0240
1250
1248
24c4
4804
0440
7ffc
0440
0440
0840
1040
ENDCHAR
STARTCHAR 02-12-14
ENCODING 11310
SWIDTH 960 0
DWIDTH 14 0
BBX 14 14 0 -2
BITMAP
0050
0048
0048
0040
7ffc
0040
0040
3f20
0020
1e20
0010
0014
7f8c
0004
ENDCHAR
STARTCHAR 02-12-15
ENCODING 11311
SWIDTH 960 0
DWIDTH 14 0
BBX 14 14 0 -2
BITMAP
0000
7ef8
0208
0208
3ef8
2288
2080
3ef8
2288
0208
0208
0208
0410
1860
ENDCHAR
STARTCHAR 02-12-16
ENCODING 11312
SWIDTH 960 0
DWIDTH 14 0
BBX 14 14 0 -2
BITMAP
0040
7840
0840
0bf8
7a48
4a48
4248
7a48
4a48
0a48
0a70
0840
0840
3040
ENDCHAR
STARTCHAR 02-12-17
ENCODING 11313
SWIDTH 960 0
DWIDTH 14 0
BBX 14 14 0 -2
BITMAP
0080
7880
0880
0880
78fc
4928
4130
7a20
4820
0860
0850
0890
1108
6604
ENDCHAR
STARTCHAR 02-12-18
ENCODING 11314
SWIDTH 960 0
DWIDTH 14 0
BBX 14 14 0 -2
BITMAP
0040
7bf8
0848
0ffc
7848
4bf8
42e8
7bf8
4a48
0bf8
0a48
0bf8
12e8
64e8
ENDCHAR
STARTCHAR 02-12-19
ENCODING 11315
SWIDTH 960 0
DWIDTH 14 0
BBX 14 14 0 -2
BITMAP
0820
0820
0840
7f50
2290
2220
1428
1448
0890
0810
1420
1240
2180
407c
ENDCHAR
STARTCHAR 02-12-20
ENCODING 11316
SWIDTH 960 0
DWIDTH 14 0
BBX 14 14 0 -2
BITMAP
3b90
0010
3ba0
3ba8
0448
3f90
2a14
3fa4
2ac8
3f88
3e50
53a0
5e40
31c0
ENDCHAR
STARTCHAR 02-12-21
ENCODING 11317
SWIDTH 960 0
DWIDTH 14 0
BBX 14 14 0 -2
BITMAP
0840
0840
10a0
14a0
2510
0bf8
0c04
1bf8
2848
4848
0848
0870
0840
0840
ENDCHAR
STARTCHAR 02-12-22
ENCODING 11318
SWIDTH 960 0
DWIDTH 14 0
BBX 14 14 0 -2
BITMAP
0840
0840
1178
1540
2540
0bfc
0848
1948
2948
4ad0
0c20
0840
0880
0b00
ENDCHAR
STARTCHAR 02-12-23
ENCODING 11319
SWIDTH 960 0
DWIDTH 14 0
BBX 14 14 0 -2
BITMAP
0840
0bfc
1040
17f8
2448
0bfc
0848
1bf8
2848
4a40
0a7c
0b40
0cc0
083c
ENDCHAR
STARTCHAR 02-12-24
ENCODING 11320
SWIDTH 960 0
DWIDTH 14 0
BBX 14 14 0 -2
BITMAP
1020
10f8
2e28
2bfc
4a28
14f8
1720
31f8
5520
15fc
1220
1320
1480
187c
ENDCHAR
STARTCHAR 02-12-25
ENCODING 11321
SWIDTH 960 0
DWIDTH 14 0
BBX 14 14 0 -2
BITMAP
0840
0bfc
1090
17fc
25f8
0948
09f8
1948
29f8
4840
09f8
0840
0bfc
0800
ENDCHAR
STARTCHAR 02-12-26
ENCODING 11322
SWIDTH 960 0
DWIDTH 14 0
BBX 14 14 0 -2
BITMAP
0100
0100
0100
0580
0540
0520
0920
1120
0100
0100
0100
0100
0100
0100
ENDCHAR
STARTCHAR 02-12-27
ENCODING 11323
SWIDTH 960 0
DWIDTH 14 0
BBX 14 14 0 -2
BITMAP
0000
0200
0200
1220
1310
1290
1288
2248
2248
4240
0200
0200
0600
0000
ENDCHAR
STARTCHAR 02-12-28
ENCODING 11324
SWIDTH 960 0
DWIDTH 14 0
BBX 14 14 0 -2
BITMAP
1080
1080
1080
1080
3bf8
3488
3488
5088
1088
1108
1108
1208
1408
1830
ENDCHAR
STARTCHAR 02-12-29
ENCODING 11325
SWIDTH 960 0
DWIDTH 14 0
BBX 14 14 0 -2
BITMAP
1000
11f8
1008
1008
3808
35f8
3500
5100
1100
1100
1104
1104
10fc
1000
ENDCHAR
STARTCHAR 02-12-30
ENCODING 11326
SWIDTH 960 0
DWIDTH 14 0
BBX 14 14 0 -2
BITMAP
0050
0048
0048
0040
7ffc
0840
0440
0420
0920
28a0
2890
4914
070c
0004
ENDCHAR
STARTCHAR 02-12-31
ENCODING 11327
SWIDTH 960 0
DWIDTH 14 0
BBX 14 14 0 -2
BITMAP
1000
13f8
1040
1040
3840
3440
37fc
5040
1040
1040
1040
1040
1040
1040
ENDCHAR
STARTCHAR 02-12-32
ENCODING 11328
SWIDTH 960 0
DWIDTH 14 0
BBX 14 14 0 -2
BITMAP
1080
1080
1080
11fc
3900
35f8
3610
5020
1040
1080
1080
1104
1104
10fc
ENDCHAR
STARTCHAR 02-12-33
ENCODING 11329
SWIDTH 960 0
DWIDTH 14 0
BBX 14 14 0 -2
BITMAP
0000
3ff8
0200
0200
1fe0
0420
0420
7ffc
0100
0490
2488
2404
4424
03e0
ENDCHAR
STARTCHAR 02-12-34
ENCODING 11330
SWIDTH 960 0
DWIDTH 14 0
BBX 14 14 0 -2
BITMAP
1040
1040
1040
17fc
3840
3440
37f8
5108
1090
1090
1060
1060
1190
160c
ENDCHAR
STARTCHAR 02-12-35
ENCODING 11331
SWIDTH 960 0
DWIDTH 14 0
BBX 14 14 0 -2
BITMAP
1008
1030
11e0
1120
3920
35fc
3520
5120
1110
1110
1114
114c
118c
1604
ENDCHAR
STARTCHAR 02-12-36
ENCODING 11332
SWIDTH 960 0
DWIDTH 14 0
BBX 14 14 0 -2
BITMAP
1040
104c
1070
13c0
3848
3648
3648
5248
13f8
1248
1040
1044
1044
103c
ENDCHAR
STARTCHAR 02-12-37
ENCODING 11333
SWIDTH 960 0
DWIDTH 14 0
BBX 14 14 0 -2
BITMAP
1040
1040
17fc
1000
3800
35e0
3520
5120
1120
1120
1220
1224
1424
181c
ENDCHAR
STARTCHAR 02-12-38
ENCODING 11334
SWIDTH 960 0
DWIDTH 14 0
BBX 14 14 0 -2
BITMAP
0100
3ff8
0100
1ff0
0280
7ffc
0440
1a30
620c
0b20
0a90
1248
2248
0600
ENDCHAR
STARTCHAR 02-12-39
ENCODING 11335
SWIDTH 960 0
DWIDTH 14 0
BBX 14 14 0 -2
BITMAP
1040
1040
1040
107c
3840
3440
3440
51f8
1108
1108
1108
1108
11f8
1108
ENDCHAR
STARTCHAR 02-12-40
ENCODING 11336
SWIDTH 960 0
DWIDTH 14 0
BBX 14 14 0 -2
BITMAP
1040
1240
1240
1240
3bf8
3440
3440
57fc
10c0
10a0
1120
1210
1408
1804
ENDCHAR
STARTCHAR 02-12-41
ENCODING 11337
SWIDTH 960 0
DWIDTH 14 0
BBX 14 14 0 -2
BITMAP
0810
0810
17fc
1110
3090
5090
1010
1010
1130
0490
2488
2424
4424
03e0
ENDCHAR
STARTCHAR 02-12-42
ENCODING 11338
SWIDTH 960 0
DWIDTH 14 0
BBX 14 14 0 -2
BITMAP
1080
10f8
1100
1100
3a80
34fc
3490
5110
1310
1510
1110
1110
1110
1130
ENDCHAR
STARTCHAR 02-12-43
ENCODING 11339
SWIDTH 960 0
DWIDTH 14 0
BBX 14 14 0 -2
BITMAP
10a0
10a0
10a8
16a8
39b0
35a0
34b0
51a8
12a4
14a4
1120
1124
1224
141c
ENDCHAR
STARTCHAR 02-12-44
ENCODING 11340
SWIDTH 960 0
DWIDTH 14 0
BBX 14 14 0 -2
BITMAP
0000
1ff0
04c0
1ff0
1110
1ff0
1110
1ff0
1110
1130
0100
2488
2424
43e4
ENDCHAR
STARTCHAR 02-12-45
ENCODING 11341
SWIDTH 960 0
DWIDTH 14 0
BBX 14 14 0 -2
BITMAP
1010
11e0
7d00
11fc
1d20
7120
1120
1220
3120
0490
2488
2424
4424
03e0
ENDCHAR
STARTCHAR 02-12-46
ENCODING 11342
SWIDTH 960 0
DWIDTH 14 0
BBX 14 14 0 -2
BITMAP
1010
11a0
1070
1388
3880
37fc
3540
51f8
1348
1548
1148
1170
1040
1040
ENDCHAR
STARTCHAR 02-12-47
ENCODING 11343
SWIDTH 960 0
DWIDTH 14 0
BBX 14 14 0 -2
BITMAP
0900
0900
13fc
1448
3150
5160
1250
1448
1148
0490
2488
2424
4424
03e0
ENDCHAR
STARTCHAR 02-12-48
ENCODING 11344
SWIDTH 960 0
DWIDTH 14 0
BBX 14 14 0 -2
BITMAP
0100
0100
7ffc
0100
1ff0
1290
1ff0
0000
3ff8
0490
2488
2424
4424
03e0
ENDCHAR
STARTCHAR 02-12-49
ENCODING 11345
SWIDTH 960 0
DWIDTH 14 0
BBX 14 14 0 -2
BITMAP
1040
1040
13fc
1208
3df0
3400
3400
53fc
1040
1150
1148
1244
1444
10c0
ENDCHAR
STARTCHAR 02-12-50
ENCODING 11346
SWIDTH 960 0
DWIDTH 14 0
BBX 14 14 0 -2
BITMAP
10a0
10a0
10a0
17bc
38a0
34a0
37bc
50a0
10a0
17bc
10a0
1120
1220
1420
ENDCHAR
STARTCHAR 02-12-51
ENCODING 11347
SWIDTH 960 0
DWIDTH 14 0
BBX 14 14 0 -2
BITMAP
1040
1040
13fc
12a8
3ca0
34a8
3518
5200
13f8
1040
1040
1040
17fc
1000
ENDCHAR
STARTCHAR 02-12-52
ENCODING 11348
SWIDTH 960 0
DWIDTH 14 0
BBX 14 14 0 -2
BITMAP
1000
11f8
1148
1148
39f8
3548
35f8
5040
17fc
10e0
1150
1248
1444
1040
ENDCHAR
STARTCHAR 02-12-53
ENCODING 11349
SWIDTH 960 0
DWIDTH 14 0
BBX 14 14 0 -2
BITMAP
1000
13f8
10c8
12a8
3910
35b0
3648
53f8
10a8
12a8
1110
1190
1268
1444
ENDCHAR
STARTCHAR 02-12-54
ENCODING 11350
SWIDTH 960 0
DWIDTH 14 0
BBX 14 14 0 -2
BITMAP
1018
11e0
1120
11fc
3920
3510
35d4
530c
11fc
1108
11f8
1108
11f8
1108
ENDCHAR
STARTCHAR 02-12-55
ENCODING 11351
SWIDTH 960 0
DWIDTH 14 0
BBX 14 14 0 -2
BITMAP
1088
1248
1110
13f8
3a48
37f8
3648
53f8
1040
17fc
1040
1040
1040
1040
ENDCHAR
STARTCHAR 02-12-56
ENCODING 11352
SWIDTH 960 0
DWIDTH 14 0
BBX 14 14 0 -2
BITMAP
1000
13fc
1208
17fc
3840
37f8
3648
53f8
1248
13f8
1040
17fc
1040
1040
ENDCHAR
STARTCHAR 02-12-57
ENCODING 11353
SWIDTH 960 0
DWIDTH 14 0
BBX 14 14 0 -2
BITMAP
1150
1150
17fc
1150
3970
3500
35f8
5040
17fc
10e0
1150
1248
1444
1040
ENDCHAR
STARTCHAR 02-12-58
ENCODING 11354
SWIDTH 960 0
DWIDTH 14 0
BBX 14 14 0 -2
BITMAP
1000
17fc
1040
1080
3bf8
36a8
36a8
52e8
12a8
12e8
12a8
12a8
13f8
1208
ENDCHAR
STARTCHAR 02-12-59
ENCODING 11355
SWIDTH 960 0
DWIDTH 14 0
BBX 14 14 0 -2
BITMAP
1000
13f0
1210
13f0
3a10
37f0
3500
51fc
1344
1644
12a4
1314
13e4
1018
ENDCHAR
STARTCHAR 02-12-60
ENCODING 11356
SWIDTH 960 0
DWIDTH 14 0
BBX 14 14 0 -2
BITMAP
1000
11f0
1110
11f0
3910
35f0
3400
53fc
1100
13f8
14a8
1128
1248
10b0
ENDCHAR
STARTCHAR 02-12-61
ENCODING 11357
SWIDTH 960 0
DWIDTH 14 0
BBX 14 14 0 -2
BITMAP
0100
3ffc
2208
47e0
0c40
3380
0c70
7fec
0820
0fe0
0920
2488
2424
43e4
ENDCHAR
STARTCHAR 02-12-62
ENCODING 11358
SWIDTH 960 0
DWIDTH 14 0
BBX 14 14 0 -2
BITMAP
1000
13fc
1040
13f8
3aa8
36a8
36a8
5218
1040
1040
17fc
10a0
1110
160c
ENDCHAR
STARTCHAR 02-12-63
ENCODING 11359
SWIDTH 960 0
DWIDTH 14 0
BBX 14 14 0 -2
BITMAP
1110
1110
17fc
1110
3bf8
3608
37f8
5208
13f8
1040
17fc
1040
1040
1040
ENDCHAR
STARTCHAR 02-12-64
ENCODING 11360
SWIDTH 960 0
DWIDTH 14 0
BBX 14 14 0 -2
BITMAP
0030
1fe0
1110
2fe8
0100
3ff8
0fe0
0020
7ffc
0020
0fe0
2488
2424
43e4
ENDCHAR
STARTCHAR 02-12-65
ENCODING 11361
SWIDTH 960 0
DWIDTH 14 0
BBX 14 14 0 -2
BITMAP
1ff0
17d0
1310
1db0
12d0
1dd0
12b0
1590
1ff0
0100
2488
2484
4424
03e0
ENDCHAR
STARTCHAR 02-12-66
ENCODING 11362
SWIDTH 960 0
DWIDTH 14 0
BBX 14 14 0 -2
BITMAP
1008
1030
13d0
1250
3a88
3440
3480
5338
1208
13b8
1208
1208
13f8
1208
ENDCHAR
STARTCHAR 02-12-67
ENCODING 11363
SWIDTH 960 0
DWIDTH 14 0
BBX 14 14 0 -2
BITMAP
1220
1220
17a0
127c
3fc8
3a48
32a8
5fa8
1230
1390
1290
14a8
14c8
1984
ENDCHAR
STARTCHAR 02-12-68
ENCODING 11364
SWIDTH 960 0
DWIDTH 14 0
BBX 14 14 0 -2
BITMAP
0090
0088
1ffc
1248
13a8
1228
1fd0
1a94
2aac
3744
4100
2488
2424
43e4
ENDCHAR
STARTCHAR 02-12-69
ENCODING 11365
SWIDTH 960 0
DWIDTH 14 0
BBX 14 14 0 -2
BITMAP
2120
17f8
1120
4ffc
27f8
2c88
16a8
26a8
47e8
4418
0100
2488
2424
43e4
ENDCHAR
STARTCHAR 02-12-70
ENCODING 11366
SWIDTH 960 0
DWIDTH 14 0
BBX 14 14 0 -2
BITMAP
1040
11f8
1148
11f8
3ffc
35f8
3508
51f8
1108
11f8
1108
11f8
1090
130c
ENDCHAR
STARTCHAR 02-12-71
ENCODING 11367
SWIDTH 960 0
DWIDTH 14 0
BBX 14 14 0 -2
BITMAP
1040
17fc
1040
13f8
3a48
37f8
3648
53f8
1048
13fc
1080
1548
1514
18f4
ENDCHAR
STARTCHAR 02-12-72
ENCODING 11368
SWIDTH 960 0
DWIDTH 14 0
BBX 14 14 0 -2
BITMAP
0820
7f20
2a7c
2a90
5d50
1c20
2a50
4b8c
0900
0490
2488
2424
4424
03e0
ENDCHAR
STARTCHAR 02-12-73
ENCODING 11369
SWIDTH 960 0
DWIDTH 14 0
BBX 14 14 0 -2
BITMAP
1040
17fc
1040
13f8
39f8
3508
35f8
5090
13fc
1000
11f8
1108
11f8
1108
ENDCHAR
STARTCHAR 02-12-74
ENCODING 11370
SWIDTH 960 0
DWIDTH 14 0
BBX 14 14 0 -2
BITMAP
0820
2cb0
2aa8
5b68
3ffc
2108
5ff0
0210
0410
0930
2488
24a4
4424
03e0
ENDCHAR
STARTCHAR 02-12-75
ENCODING 11371
SWIDTH 960 0
DWIDTH 14 0
BBX 14 14 0 -2
BITMAP
1e40
0440
3ffc
1e88
1350
1e20
1350
1e88
3304
0490
2488
2424
4424
03e0
ENDCHAR
STARTCHAR 02-12-76
ENCODING 11372
SWIDTH 960 0
DWIDTH 14 0
BBX 14 14 0 -2
BITMAP
1040
1040
17fc
12a8
3910
37f8
3514
51f0
1110
11f0
1248
1244
1444
10c0
ENDCHAR
STARTCHAR 02-12-77
ENCODING 11373
SWIDTH 960 0
DWIDTH 14 0
BBX 14 14 0 -2
BITMAP
1040
13f8
7c40
11f0
18a0
17fc
35f0
33f8
5514
11f0
1110
2488
2424
43e4
ENDCHAR
STARTCHAR 02-12-78
ENCODING 11374
SWIDTH 960 0
DWIDTH 14 0
BBX 14 14 0 -2
BITMAP
1ff8
1f30
1f28
1ff8
1f20
1f20
1930
1f50
2948
2b88
4100
2488
2424
43e4
ENDCHAR
STARTCHAR 02-12-79
ENCODING 11375
SWIDTH 960 0
DWIDTH 14 0
BBX 14 14 0 -2
BITMAP
1400
15fc
1628
1490
3b90
3a7c
3398
5550
17dc
1150
1350
12f0
1490
190c
ENDCHAR
STARTCHAR 02-12-80
ENCODING 11376
SWIDTH 960 0
DWIDTH 14 0
BBX 14 14 0 -2
BITMAP
1410
5510
3610
7ffc
1490
3e50
0850
3e10
0810
7f30
0100
2488
2424
43e4
ENDCHAR
STARTCHAR 02-12-81
ENCODING 11377
SWIDTH 960 0
DWIDTH 14 0
BBX 14 14 0 -2
BITMAP
10a0
17fc
10a0
13f8
3aa8
37f8
37fc
5208
15f0
11f0
11f0
1110
11f0
1110
ENDCHAR
STARTCHAR 02-12-82
ENCODING 11378
SWIDTH 960 0
DWIDTH 14 0
BBX 14 14 0 -2
BITMAP
0840
0850
3f48
0848
7ffc
0040
0048
0048
0030
0020
0064
0094
070c
0004
ENDCHAR
STARTCHAR 02-12-83
ENCODING 11379
SWIDTH 960 0
DWIDTH 14 0
BBX 14 14 0 -2
BITMAP
0450
2448
2448
2440
3c7c
27c8
0448
7c50
1430
1420
1464
2494
470c
0404
ENDCHAR
STARTCHAR 02-12-84
ENCODING 11380
SWIDTH 960 0
DWIDTH 14 0
BBX 14 14 0 -2
BITMAP
3a30
0a28
54a8
3520
223c
3ee0
4928
0828
7f18
0810
1434
124c
228c
4104
ENDCHAR
STARTCHAR 02-12-85
ENCODING 11381
SWIDTH 960 0
DWIDTH 14 0
BBX 14 14 0 -2
BITMAP
0030
7f28
2228
5520
773c
11e0
7f28
0028
3e18
2210
3e34
224c
3e8c
2204
ENDCHAR
STARTCHAR 02-12-86
ENCODING 11382
SWIDTH 960 0
DWIDTH 14 0
BBX 14 14 0 -2
BITMAP
0030
1fc0
1000
1ff8
1008
1ff8
1080
1080
1ffc
1190
2e50
2220
43b0
1c0c
ENDCHAR
STARTCHAR 02-12-87
ENCODING 11383
SWIDTH 960 0
DWIDTH 14 0
BBX 14 14 0 -2
BITMAP
0100
0100
0100
1fe0
0100
0100
0100
0120
03c0
1d00
0100
0100
0100
0300
ENDCHAR
STARTCHAR 02-12-88
ENCODING 11384
SWIDTH 960 0
DWIDTH 14 0
BBX 14 14 0 -2
BITMAP
1040
1040
1040
7c40
1060
1050
1048
1c44
7044
1040
1040
1040
1040
3040
ENDCHAR
STARTCHAR 02-12-89
ENCODING 11385
SWIDTH 960 0
DWIDTH 14 0
BBX 14 14 0 -2
BITMAP
1000
11e0
1020
7c20
1120
1120
1120
1d20
7110
1110
1110
1208
1208
3404
ENDCHAR
STARTCHAR 02-12-90
ENCODING 11386
SWIDTH 960 0
DWIDTH 14 0
BBX 14 14 0 -2
BITMAP
1040
1040
1140
7d48
1178
11c8
1348
1d48
7148
1158
1140
1104
1104
30fc
ENDCHAR
STARTCHAR 02-12-91
ENCODING 11387
SWIDTH 960 0
DWIDTH 14 0
BBX 14 14 0 -2
BITMAP
1000
13fc
10a0
7ca0
10a0
10a0
10a0
1ca0
70a0
10a0
1120
1124
1224
341c
ENDCHAR
STARTCHAR 02-12-92
ENCODING 11388
SWIDTH 960 0
DWIDTH 14 0
BBX 14 14 0 -2
BITMAP
1100
1100
1100
7d00
11fc
1248
1250
1c40
7040
10a0
10a0
1110
1208
3404
ENDCHAR
STARTCHAR 02-12-93
ENCODING 11389
SWIDTH 960 0
DWIDTH 14 0
BBX 14 14 0 -2
BITMAP
1000
13f0
1090
7c90
1090
1090
13fc
1c90
7090
1090
1090
1090
13fc
3000
ENDCHAR
STARTCHAR 02-12-94
ENCODING 11390
SWIDTH 960 0
DWIDTH 14 0
BBX 14 14 0 -2
BITMAP
1000
11fc
1100
7d00
11f8
1188
1188
1d50
7150
1120
1220
1250
1488
3904
ENDCHAR
STARTCHAR 02-13-01
ENCODING 11553
SWIDTH 960 0
DWIDTH 14 0
BBX 14 14 0 -2
BITMAP
1010
1020
11c0
7c40
1040
13f8
1040
1c40
73fc
1040
1040
1040
1040
30c0
ENDCHAR
STARTCHAR 02-13-02
ENCODING 11554
SWIDTH 960 0
DWIDTH 14 0
BBX 14 14 0 -2
BITMAP
1000
17fc
1040
7c40
13f8
1248
1248
1ea8
7298
1318
1208
1208
1208
3218
ENDCHAR
STARTCHAR 02-13-03
ENCODING 11555
SWIDTH 960 0
DWIDTH 14 0
BBX 14 14 0 -2
BITMAP
1040
1040
13fc
7e04
1288
1480
1088
1c90
70e0
1080
1080
1084
1084
307c
ENDCHAR
STARTCHAR 02-13-04
ENCODING 11556
SWIDTH 960 0
DWIDTH 14 0
BBX 14 14 0 -2
BITMAP
0800
0ff8
1988
3188
4ab0
0484
18fc
60e0
0f00
1ff0
0100
7ffc
0100
0300
ENDCHAR
STARTCHAR 02-13-05
ENCODING 11557
SWIDTH 960 0
DWIDTH 14 0
BBX 14 14 0 -2
BITMAP
1040
1040
13f8
7e48
1248
13f8
1248
1ff8
7248
1030
1020
10d4
170c
3004
ENDCHAR
STARTCHAR 02-13-06
ENCODING 11558
SWIDTH 960 0
DWIDTH 14 0
BBX 14 14 0 -2
BITMAP
1000
17fc
1080
7ca0
1110
13e8
1040
1c40
73f8
1040
1040
1040
17fc
3000
ENDCHAR
STARTCHAR 02-13-07
ENCODING 11559
SWIDTH 960 0
DWIDTH 14 0
BBX 14 14 0 -2
BITMAP
1040
1040
1040
7ffc
1090
1088
1194
1e94
7250
1060
1020
1050
1188
3604
ENDCHAR
STARTCHAR 02-13-08
ENCODING 11560
SWIDTH 960 0
DWIDTH 14 0
BBX 14 14 0 -2
BITMAP
0800
7ff8
1288
1288
3c88
06f8
1988
60e0
0f00
1ff0
0100
7ffc
0100
0300
ENDCHAR
STARTCHAR 02-13-09
ENCODING 11561
SWIDTH 960 0
DWIDTH 14 0
BBX 14 14 0 -2
BITMAP
1040
1040
13f8
7c40
11f8
1080
13fc
1d10
73fc
1210
1310
1490
1890
3030
ENDCHAR
STARTCHAR 02-13-10
ENCODING 11562
SWIDTH 960 0
DWIDTH 14 0
BBX 14 14 0 -2
BITMAP
1288
1148
1150
7ffc
1208
1440
1040
1bf8
7048
1088
1088
1108
1208
3430
ENDCHAR
STARTCHAR 02-13-11
ENCODING 11563
SWIDTH 960 0
DWIDTH 14 0
BBX 14 14 0 -2
BITMAP
1040
4950
2948
2254
0cd4
1060
2380
20e0
0700
1ff0
0100
7ffc
0100
0300
ENDCHAR
STARTCHAR 02-13-12
ENCODING 11564
SWIDTH 960 0
DWIDTH 14 0
BBX 14 14 0 -2
BITMAP
1000
13f8
1040
7df0
1040
1040
17fc
1d10
7110
17fc
1110
1110
1210
3410
ENDCHAR
STARTCHAR 02-13-13
ENCODING 11565
SWIDTH 960 0
DWIDTH 14 0
BBX 14 14 0 -2
BITMAP
1000
170c
11f0
7910
1250
1250
175c
1150
1950
7350
12fc
1300
14c0
383c
ENDCHAR
STARTCHAR 02-13-14
ENCODING 11566
SWIDTH 960 0
DWIDTH 14 0
BBX 14 14 0 -2
BITMAP
1008
1030
13c0
7d28
1144
1204
1080
1ffc
7110
1110
12e0
1050
1088
3308
ENDCHAR
STARTCHAR 02-13-15
ENCODING 11567
SWIDTH 960 0
DWIDTH 14 0
BBX 14 14 0 -2
BITMAP
1040
1140
1140
7df8
1240
1040
13fc
1c40
71f8
1108
1108
1108
11f8
3108
ENDCHAR
STARTCHAR 02-13-16
ENCODING 11568
SWIDTH 960 0
DWIDTH 14 0
BBX 14 14 0 -2
BITMAP
1050
1048
1048
7ffc
1040
1248
1168
1d70
7050
10d0
1148
1644
1040
31c0
ENDCHAR
STARTCHAR 02-13-17
ENCODING 11569
SWIDTH 960 0
DWIDTH 14 0
BBX 14 14 0 -2
BITMAP
1040
1160
1150
7e48
1040
11f8
1108
1df8
7108
11f8
1108
1108
1108
3118
ENDCHAR
STARTCHAR 02-13-18
ENCODING 11570
SWIDTH 960 0
DWIDTH 14 0
BBX 14 14 0 -2
BITMAP
1018
13e0
1040
7ffc
10c0
1160
1250
1dec
70a0
10b8
1128
1108
1208
3430
ENDCHAR
STARTCHAR 02-13-19
ENCODING 11571
SWIDTH 960 0
DWIDTH 14 0
BBX 14 14 0 -2
BITMAP
1040
1040
13fc
7c40
13f8
1248
13f8
1e48
73f8
1040
13fc
1040
1040
3040
ENDCHAR
STARTCHAR 02-13-20
ENCODING 11572
SWIDTH 960 0
DWIDTH 14 0
BBX 14 14 0 -2
BITMAP
1110
1110
13fc
7d10
1090
1088
13fc
1e80
7250
1250
1220
1224
145c
3984
ENDCHAR
STARTCHAR 02-13-21
ENCODING 11573
SWIDTH 960 0
DWIDTH 14 0
BBX 14 14 0 -2
BITMAP
1040
1040
10a0
7d10
11f8
1244
11f8
1d48
7148
11f8
1060
1090
1308
3404
ENDCHAR
STARTCHAR 02-13-22
ENCODING 11574
SWIDTH 960 0
DWIDTH 14 0
BBX 14 14 0 -2
BITMAP
1040
1040
13fc
7e88
1288
1288
137c
1708
1b48
7328
1328
1508
1508
3918
ENDCHAR
STARTCHAR 02-13-23
ENCODING 11575
SWIDTH 960 0
DWIDTH 14 0
BBX 14 14 0 -2
BITMAP
1040
1040
10a0
7ca0
1110
13f8
1404
1ff8
72a8
12a8
13f8
12a8
12a8
3218
ENDCHAR
STARTCHAR 02-13-24
ENCODING 11576
SWIDTH 960 0
DWIDTH 14 0
BBX 14 14 0 -2
BITMAP
1018
13f0
1248
7a44
1404
13f8
1048
1ffc
7048
13f8
1048
1040
1040
30c0
ENDCHAR
STARTCHAR 02-13-25
ENCODING 11577
SWIDTH 960 0
DWIDTH 14 0
BBX 14 14 0 -2
BITMAP
1040
1040
13f8
7d10
1090
10a0
13fc
1c08
71e8
1128
11e8
1108
1008
3018
ENDCHAR
STARTCHAR 02-13-26
ENCODING 11578
SWIDTH 960 0
DWIDTH 14 0
BBX 14 14 0 -2
BITMAP
0000
3ff8
2888
3e50
3e20
28d0
3e0c
01c0
0f00
1ff0
0100
7ffc
0100
0300
ENDCHAR
STARTCHAR 02-13-27
ENCODING 11579
SWIDTH 960 0
DWIDTH 14 0
BBX 14 14 0 -2
BITMAP
1110
1090
10a0
7ffc
10a0
12a8
12a8
1ea8
72a8
13b8
12a8
10a0
17fc
3000
ENDCHAR
STARTCHAR 02-13-28
ENCODING 11580
SWIDTH 960 0
DWIDTH 14 0
BBX 14 14 0 -2
BITMAP
1008
1030
13c0
7ffc
1040
1158
1348
1e48
7358
1248
13f8
1248
1040
3040
ENDCHAR
STARTCHAR 02-13-29
ENCODING 11581
SWIDTH 960 0
DWIDTH 14 0
BBX 14 14 0 -2
BITMAP
1100
1100
11f8
7ea8
15a8
1148
12a8
1d30
7080
1050
1348
1314
1514
30f0
ENDCHAR
STARTCHAR 02-13-30
ENCODING 11582
SWIDTH 960 0
DWIDTH 14 0
BBX 14 14 0 -2
BITMAP
1110
17fc
1110
7df0
1110
11f0
1110
1ffc
72a0
12a8
1318
1200
13fc
3200
ENDCHAR
STARTCHAR 02-13-31
ENCODING 11583
SWIDTH 960 0
DWIDTH 14 0
BBX 14 14 0 -2
BITMAP
1040
1040
10a0
7d10
13f8
1404
11f0
1d10
71f0
1000
17fc
1120
1120
3620
ENDCHAR
STARTCHAR 02-13-32
ENCODING 11584
SWIDTH 960 0
DWIDTH 14 0
BBX 14 14 0 -2
BITMAP
1000
13fc
1200
7ef8
1288
12f8
1288
1ef8
7220
13fc
12d0
1230
12c8
33fc
ENDCHAR
STARTCHAR 02-13-33
ENCODING 11585
SWIDTH 960 0
DWIDTH 14 0
BBX 14 14 0 -2
BITMAP
0220
3c24
08a4
7ea8
1d50
2a50
4a88
01c4
0f00
1ff0
0100
7ffc
0100
0300
ENDCHAR
STARTCHAR 02-13-34
ENCODING 11586
SWIDTH 960 0
DWIDTH 14 0
BBX 14 14 0 -2
BITMAP
1040
1040
13fc
7ea8
14a4
111c
1250
1c48
73fc
1040
10a0
10a0
1110
320c
ENDCHAR
STARTCHAR 02-13-35
ENCODING 11587
SWIDTH 960 0
DWIDTH 14 0
BBX 14 14 0 -2
BITMAP
1150
1150
13fc
7d50
1170
1100
11f8
1c40
73fc
10e0
1150
1248
1444
3040
ENDCHAR
STARTCHAR 02-13-36
ENCODING 11588
SWIDTH 960 0
DWIDTH 14 0
BBX 14 14 0 -2
BITMAP
1040
1040
11fc
7d48
1290
10a0
13fc
1d20
71f8
1120
11f8
1120
11fc
3100
ENDCHAR
STARTCHAR 02-13-37
ENCODING 11589
SWIDTH 960 0
DWIDTH 14 0
BBX 14 14 0 -2
BITMAP
1040
13f8
1000
7df0
1110
11f0
1000
1ff8
7208
12e8
12a8
12e8
1208
3218
ENDCHAR
STARTCHAR 02-13-38
ENCODING 11590
SWIDTH 960 0
DWIDTH 14 0
BBX 14 14 0 -2
BITMAP
1010
1220
1178
7d48
1048
1078
1340
1578
1948
7148
1178
1148
1280
347c
ENDCHAR
STARTCHAR 02-13-39
ENCODING 11591
SWIDTH 960 0
DWIDTH 14 0
BBX 14 14 0 -2
BITMAP
1108
1108
13fc
7aa8
15a8
117c
1248
1448
1bfc
70e0
1150
1248
1444
3040
ENDCHAR
STARTCHAR 02-13-40
ENCODING 11592
SWIDTH 960 0
DWIDTH 14 0
BBX 14 14 0 -2
BITMAP
1008
1030
13d0
7e50
1288
1040
1080
1f38
7208
13b8
1208
1208
13f8
3208
ENDCHAR
STARTCHAR 02-13-41
ENCODING 11593
SWIDTH 960 0
DWIDTH 14 0
BBX 14 14 0 -2
BITMAP
1040
1248
1150
7ffc
1208
15f0
1110
1d10
71f0
1040
13f8
1040
17fc
3000
ENDCHAR
STARTCHAR 02-13-42
ENCODING 11594
SWIDTH 960 0
DWIDTH 14 0
BBX 14 14 0 -2
BITMAP
1040
13fc
1228
7ea8
1268
1298
13f8
1c40
73fc
1264
1294
13f4
1214
320c
ENDCHAR
STARTCHAR 02-13-43
ENCODING 11595
SWIDTH 960 0
DWIDTH 14 0
BBX 14 14 0 -2
BITMAP
1040
1040
13fc
7ea0
13f8
12a8
12a8
1ff8
7320
13e8
1330
1560
15a4
3b1c
ENDCHAR
STARTCHAR 02-13-44
ENCODING 11596
SWIDTH 960 0
DWIDTH 14 0
BBX 14 14 0 -2
BITMAP
1000
13fc
1200
7ef0
1290
12f0
1200
1ff8
7368
1368
13f8
1200
13fc
3000
ENDCHAR
STARTCHAR 02-13-45
ENCODING 11597
SWIDTH 960 0
DWIDTH 14 0
BBX 14 14 0 -2
BITMAP
1000
13fc
1060
7df8
1168
11f8
1000
1df8
7000
13fc
1150
1248
1448
30c0
ENDCHAR
STARTCHAR 02-13-46
ENCODING 11598
SWIDTH 960 0
DWIDTH 14 0
BBX 14 14 0 -2
BITMAP
1110
1590
155c
7d68
1128
17e8
1568
1550
1fd0
77d0
1558
1568
1568
34c4
ENDCHAR
STARTCHAR 02-13-47
ENCODING 11599
SWIDTH 960 0
DWIDTH 14 0
BBX 14 14 0 -2
BITMAP
1288
1150
13fc
7a08
15f0
1110
11f8
1de0
7040
13f8
1040
17fc
1040
30c0
ENDCHAR
STARTCHAR 02-13-48
ENCODING 11600
SWIDTH 960 0
DWIDTH 14 0
BBX 14 14 0 -2
BITMAP
1018
11f0
1148
7e28
11f0
1090
1090
1df8
7108
13fc
1154
12ac
1204
3018
ENDCHAR
STARTCHAR 02-13-49
ENCODING 11601
SWIDTH 960 0
DWIDTH 14 0
BBX 14 14 0 -2
BITMAP
1018
13e0
1040
7ffc
10a0
11f0
12a8
1ce4
73f8
1208
12e8
12a8
12e8
3218
ENDCHAR
STARTCHAR 02-13-50
ENCODING 11602
SWIDTH 960 0
DWIDTH 14 0
BBX 14 14 0 -2
BITMAP
1248
1150
13fc
7e08
11f0
1110
11f0
1c00
73f8
1248
13f8
1248
13f8
3208
ENDCHAR
STARTCHAR 02-13-51
ENCODING 11603
SWIDTH 960 0
DWIDTH 14 0
BBX 14 14 0 -2
BITMAP
1220
1220
13bc
7d50
14c8
1040
13fc
1d50
7150
1358
14a4
10a0
1110
360c
ENDCHAR
STARTCHAR 02-13-52
ENCODING 11604
SWIDTH 960 0
DWIDTH 14 0
BBX 14 14 0 -2
BITMAP
1120
11fc
1320
7ff8
1520
11f8
1120
1dfc
7000
13b8
12a8
12e8
1208
3218
ENDCHAR
STARTCHAR 02-13-53
ENCODING 11605
SWIDTH 960 0
DWIDTH 14 0
BBX 14 14 0 -2
BITMAP
1010
1390
12fc
7ea8
12a8
13a8
127c
1610
1b90
76fc
1690
1a90
1390
3010
ENDCHAR
STARTCHAR 02-13-54
ENCODING 11606
SWIDTH 960 0
DWIDTH 14 0
BBX 14 14 0 -2
BITMAP
1000
17fc
1110
7fbc
15b4
17bc
14a4
15ac
1c40
73fc
10e0
1150
124c
3040
ENDCHAR
STARTCHAR 02-13-55
ENCODING 11607
SWIDTH 960 0
DWIDTH 14 0
BBX 14 14 0 -2
BITMAP
1040
11f0
1110
7df0
11f0
11f0
13f8
1e48
73f8
13f8
1000
17fc
1110
3210
ENDCHAR
STARTCHAR 02-13-56
ENCODING 11608
SWIDTH 960 0
DWIDTH 14 0
BBX 14 14 0 -2
BITMAP
0100
7df8
4af0
7c90
7df8
4968
7ff8
41c8
0f00
1ff0
0100
7ffc
0100
0300
ENDCHAR
STARTCHAR 02-13-57
ENCODING 11609
SWIDTH 960 0
DWIDTH 14 0
BBX 14 14 0 -2
BITMAP
1420
1220
13fc
7c50
12fc
12a4
10fc
1ea4
1af4
72d4
12f4
128c
1580
387c
ENDCHAR
STARTCHAR 02-13-58
ENCODING 11610
SWIDTH 960 0
DWIDTH 14 0
BBX 14 14 0 -2
BITMAP
1080
10f8
13fc
7ee8
1390
1270
13f0
1350
1ff0
7350
15f8
15a4
1994
3270
ENDCHAR
STARTCHAR 02-13-59
ENCODING 11611
SWIDTH 960 0
DWIDTH 14 0
BBX 14 14 0 -2
BITMAP
1198
12e8
1398
7ee8
1338
12a8
17fc
1530
1ac8
75f4
1040
13f8
1040
30c0
ENDCHAR
STARTCHAR 02-13-60
ENCODING 11612
SWIDTH 960 0
DWIDTH 14 0
BBX 14 14 0 -2
BITMAP
1120
1138
17e0
7ab8
1288
17f8
1020
17b8
1ca0
77b8
14a0
17b8
14a4
359c
ENDCHAR
STARTCHAR 02-13-61
ENCODING 11613
SWIDTH 960 0
DWIDTH 14 0
BBX 14 14 0 -2
BITMAP
1000
17bc
14a4
7fbc
17bc
1444
17fc
15f4
1d54
75f4
15f4
14e4
175c
344c
ENDCHAR
STARTCHAR 02-13-62
ENCODING 11614
SWIDTH 960 0
DWIDTH 14 0
BBX 14 14 0 -2
BITMAP
1000
17bc
14a4
7fbc
17bc
14a4
17bc
1328
1cc4
77fc
1090
11d0
1078
3784
ENDCHAR
STARTCHAR 02-13-63
ENCODING 11615
SWIDTH 960 0
DWIDTH 14 0
BBX 14 14 0 -2
BITMAP
12a8
1330
17fc
7bb8
1330
13b8
1330
17bc
1800
77f8
1230
11e0
1130
361c
ENDCHAR
STARTCHAR 02-13-64
ENCODING 11616
SWIDTH 960 0
DWIDTH 14 0
BBX 14 14 0 -2
BITMAP
1000
17f8
1528
7ff8
1448
1550
15fc
1250
1d78
7750
1378
16d0
1a7c
3240
ENDCHAR
STARTCHAR 02-13-65
ENCODING 11617
SWIDTH 960 0
DWIDTH 14 0
BBX 14 14 0 -2
BITMAP
0820
0820
7ffc
0820
1420
22f8
7f88
0288
3a50
2a50
2a20
3a50
2a88
0704
ENDCHAR
STARTCHAR 02-13-66
ENCODING 11618
SWIDTH 960 0
DWIDTH 14 0
BBX 14 14 0 -2
BITMAP
0040
3e40
0440
18fc
0890
7f90
0a90
1a50
1c60
2820
4820
0850
0888
1b04
ENDCHAR
STARTCHAR 02-13-67
ENCODING 11619
SWIDTH 960 0
DWIDTH 14 0
BBX 14 14 0 -2
BITMAP
0040
7e40
0840
08fc
3c90
1590
1690
7f50
0060
3e20
2220
2250
3e88
2304
ENDCHAR
STARTCHAR 02-13-68
ENCODING 11620
SWIDTH 960 0
DWIDTH 14 0
BBX 14 14 0 -2
BITMAP
0840
1040
3e40
22fc
3e90
2390
3e90
0850
7f60
0e20
1220
1250
2288
4d04
ENDCHAR
STARTCHAR 02-13-69
ENCODING 11621
SWIDTH 960 0
DWIDTH 14 0
BBX 14 14 0 -2
BITMAP
0020
7f20
403c
5e20
5220
5ff8
4048
7f48
6d50
6d30
7f20
4050
7f88
4104
ENDCHAR
STARTCHAR 02-13-70
ENCODING 11622
SWIDTH 960 0
DWIDTH 14 0
BBX 14 14 0 -2
BITMAP
0040
7f40
5540
7ffc
0890
3f90
0890
7f50
1460
7f20
0820
3e50
0888
0904
ENDCHAR
STARTCHAR 02-13-71
ENCODING 11623
SWIDTH 960 0
DWIDTH 14 0
BBX 14 14 0 -2
BITMAP
0840
3e7c
0890
7f60
1a50
698c
1ffc
1080
1ff8
12a0
1eb8
21c0
26b0
588c
ENDCHAR
STARTCHAR 02-13-72
ENCODING 11624
SWIDTH 960 0
DWIDTH 14 0
BBX 14 14 0 -2
BITMAP
1210
2b90
249c
3b90
2a90
35fc
2aa4
3fe4
20a8
5f10
0790
7c28
0444
0d84
ENDCHAR
STARTCHAR 02-13-73
ENCODING 11625
SWIDTH 960 0
DWIDTH 14 0
BBX 14 14 0 -2
BITMAP
0100
0100
7ffc
0c40
1380
0c60
7ffc
0820
0fe0
0fe0
0820
0ff8
7820
0020
ENDCHAR
STARTCHAR 02-13-74
ENCODING 11626
SWIDTH 960 0
DWIDTH 14 0
BBX 14 14 0 -2
BITMAP
1008
2770
5540
5540
7740
557c
1450
7750
4150
7750
5490
1490
1f10
7010
ENDCHAR
STARTCHAR 02-13-75
ENCODING 11627
SWIDTH 960 0
DWIDTH 14 0
BBX 14 14 0 -2
BITMAP
1008
2f70
4540
5540
6b40
007c
7f50
1450
7750
4150
7790
5490
1510
7f10
ENDCHAR
STARTCHAR 02-13-76
ENCODING 11628
SWIDTH 960 0
DWIDTH 14 0
BBX 14 14 0 -2
BITMAP
3f88
20b0
3fa0
35a0
35a0
3fbc
2aa8
3fa8
3fa8
3fa8
35c8
3fc8
4688
1d88
ENDCHAR
STARTCHAR 02-13-77
ENCODING 11629
SWIDTH 960 0
DWIDTH 14 0
BBX 14 14 0 -2
BITMAP
1080
1080
10fc
7f00
1100
12fc
1c08
1430
1420
15fc
2420
2420
4420
1860
ENDCHAR
STARTCHAR 02-13-78
ENCODING 11630
SWIDTH 960 0
DWIDTH 14 0
BBX 14 14 0 -2
BITMAP
1080
1080
10fc
7f08
1130
12c0
1c80
14fc
1490
1490
2490
2510
4510
1a10
ENDCHAR
STARTCHAR 02-13-79
ENCODING 11631
SWIDTH 960 0
DWIDTH 14 0
BBX 14 14 0 -2
BITMAP
0120
0110
7ffc
1ff0
1ff0
1ff0
1110
1ff0
1110
0100
7ffc
02f0
0c10
30e0
ENDCHAR
STARTCHAR 02-13-80
ENCODING 11632
SWIDTH 960 0
DWIDTH 14 0
BBX 14 14 0 -2
BITMAP
1020
10f8
1728
7dfc
1128
12f8
1fa0
14f8
16a0
16fc
2520
2520
46c0
183c
ENDCHAR
STARTCHAR 02-13-81
ENCODING 11633
SWIDTH 960 0
DWIDTH 14 0
BBX 14 14 0 -2
BITMAP
0100
0100
01f0
0100
0100
7ffc
0000
0fe0
0820
0fe0
0820
0820
0fe0
0820
ENDCHAR
STARTCHAR 02-13-82
ENCODING 11634
SWIDTH 960 0
DWIDTH 14 0
BBX 14 14 0 -2
BITMAP
0000
1ff0
1010
1ff0
1010
1ff0
0100
0100
7ffc
0100
0280
0440
1830
600c
ENDCHAR
STARTCHAR 02-13-83
ENCODING 11635
SWIDTH 960 0
DWIDTH 14 0
BBX 14 14 0 -2
BITMAP
0100
1110
1110
1ff0
1110
0100
7ffc
0000
0fe0
0820
0fe0
0820
0fe0
0820
ENDCHAR
STARTCHAR 02-13-84
ENCODING 11636
SWIDTH 960 0
DWIDTH 14 0
BBX 14 14 0 -2
BITMAP
0040
0040
7840
4ffc
4910
4910
7910
4aa0
4ca0
4840
7840
48a0
0310
0c0c
ENDCHAR
STARTCHAR 02-13-85
ENCODING 11637
SWIDTH 960 0
DWIDTH 14 0
BBX 14 14 0 -2
BITMAP
0000
01fc
7900
4900
49f8
4988
7988
4950
4950
4920
7a20
4a50
0588
0a04
ENDCHAR
STARTCHAR 02-13-86
ENCODING 11638
SWIDTH 960 0
DWIDTH 14 0
BBX 14 14 0 -2
BITMAP
000c
01f0
7900
49f8
4908
4908
7908
49f8
4908
4900
7900
4a00
0200
0400
ENDCHAR
STARTCHAR 02-13-87
ENCODING 11639
SWIDTH 960 0
DWIDTH 14 0
BBX 14 14 0 -2
BITMAP
0040
0040
7ffc
4880
4890
4f10
7920
48a0
4840
4840
7890
4908
07f4
0004
ENDCHAR
STARTCHAR 02-13-88
ENCODING 11640
SWIDTH 960 0
DWIDTH 14 0
BBX 14 14 0 -2
BITMAP
0000
1ff0
1010
1ff0
1010
1ff0
0440
0830
3fc8
0440
7ffc
0440
0840
1040
ENDCHAR
STARTCHAR 02-13-89
ENCODING 11641
SWIDTH 960 0
DWIDTH 14 0
BBX 14 14 0 -2
BITMAP
0000
07fc
7800
49f0
4910
4910
79f0
4910
4910
49f0
7910
4800
07fc
0000
ENDCHAR
STARTCHAR 02-13-90
ENCODING 11642
SWIDTH 960 0
DWIDTH 14 0
BBX 14 14 0 -2
BITMAP
0000
1ff0
1010
1ff0
1010
1ff0
0400
3ff8
2008
27c8
2448
27c8
2448
2018
ENDCHAR
STARTCHAR 02-13-91
ENCODING 11643
SWIDTH 960 0
DWIDTH 14 0
BBX 14 14 0 -2
BITMAP
0120
0120
7920
4920
4ff8
4920
7920
4920
4ffc
4800
7920
4910
0208
0408
ENDCHAR
STARTCHAR 02-13-92
ENCODING 11644
SWIDTH 960 0
DWIDTH 14 0
BBX 14 14 0 -2
BITMAP
0100
0100
3ff8
0100
1ff0
0280
7ffc
0440
1bf0
6a2c
0be0
0a20
0be0
0a20
ENDCHAR
STARTCHAR 02-13-93
ENCODING 11645
SWIDTH 960 0
DWIDTH 14 0
BBX 14 14 0 -2
BITMAP
0100
1110
0920
3ff8
0280
7ffc
0440
1bf0
6a2c
0be0
0a20
0a20
0be0
0a20
ENDCHAR
STARTCHAR 02-13-94
ENCODING 11646
SWIDTH 960 0
DWIDTH 14 0
BBX 14 14 0 -2
BITMAP
0040
0040
78a0
4910
4bf8
4c04
7bf8
4820
4840
4bf0
7a10
4a10
03f0
0210
ENDCHAR
STARTCHAR 02-14-01
ENCODING 11809
SWIDTH 960 0
DWIDTH 14 0
BBX 14 14 0 -2
BITMAP
0000
01f8
7908
4908
49f8
4908
79f8
4908
49f8
48a0
78a0
4924
0224
0c1c
ENDCHAR
STARTCHAR 02-14-02
ENCODING 11810
SWIDTH 960 0
DWIDTH 14 0
BBX 14 14 0 -2
BITMAP
0104
0108
7930
4fe0
4920
493c
7928
49e8
4f28
4928
7948
4948
0188
0308
ENDCHAR
STARTCHAR 02-14-03
ENCODING 11811
SWIDTH 960 0
DWIDTH 14 0
BBX 14 14 0 -2
BITMAP
0000
1ff0
1010
1ff0
1010
1ff0
0000
3cf8
2488
3cf8
2488
3cf8
2108
0218
ENDCHAR
STARTCHAR 02-14-04
ENCODING 11812
SWIDTH 960 0
DWIDTH 14 0
BBX 14 14 0 -2
BITMAP
0800
08f8
1e88
2488
7e88
2af8
2a88
3e88
2c88
0cf8
1488
1404
2404
43fc
ENDCHAR
STARTCHAR 02-14-05
ENCODING 11813
SWIDTH 960 0
DWIDTH 14 0
BBX 14 14 0 -2
BITMAP
00a0
00a0
78a0
4bf8
4aa8
4aa8
7bf8
4aa8
4aa8
4ffc
78a0
4890
0108
0208
ENDCHAR
STARTCHAR 02-14-06
ENCODING 11814
SWIDTH 960 0
DWIDTH 14 0
BBX 14 14 0 -2
BITMAP
0040
0040
787c
4840
4bf8
4a08
7bf8
4a08
4bf8
4840
7ffc
4840
0040
0040
ENDCHAR
STARTCHAR 02-14-07
ENCODING 11815
SWIDTH 960 0
DWIDTH 14 0
BBX 14 14 0 -2
BITMAP
0040
0040
7ffc
4910
4910
4998
7a64
4c44
4840
4ffc
7840
4840
0040
0040
ENDCHAR
STARTCHAR 02-14-08
ENCODING 11816
SWIDTH 960 0
DWIDTH 14 0
BBX 14 14 0 -2
BITMAP
0000
03f8
7a48
4a48
4bf8
4a48
7bf8
4a48
4be8
4b28
7b28
45e8
0528
0818
ENDCHAR
STARTCHAR 02-14-09
ENCODING 11817
SWIDTH 960 0
DWIDTH 14 0
BBX 14 14 0 -2
BITMAP
0080
0080
7ffc
4910
4950
4a48
7ffc
4a48
4bf8
4a48
7bf8
4a44
0044
003c
ENDCHAR
STARTCHAR 02-14-10
ENCODING 11818
SWIDTH 960 0
DWIDTH 14 0
BBX 14 14 0 -2
BITMAP
0240
0220
7c20
49fc
4920
4a20
7a20
4ef8
4a20
4a20
7a20
4a20
03fc
0200
ENDCHAR
STARTCHAR 02-14-11
ENCODING 11819
SWIDTH 960 0
DWIDTH 14 0
BBX 14 14 0 -2
BITMAP
0040
01f8
7888
4ffc
4800
49f8
7908
49f8
4820
49f8
7920
47fc
0020
0020
ENDCHAR
STARTCHAR 02-14-12
ENCODING 11820
SWIDTH 960 0
DWIDTH 14 0
BBX 14 14 0 -2
BITMAP
0000
01f8
7908
49f8
4908
49f8
7940
4bfc
4c40
49f8
7840
4840
03fc
0000
ENDCHAR
STARTCHAR 02-14-13
ENCODING 11821
SWIDTH 960 0
DWIDTH 14 0
BBX 14 14 0 -2
BITMAP
0040
0040
7bf8
4840
49f0
48a0
7ffc
4910
4bf8
4d14
79f0
4910
01f0
0110
ENDCHAR
STARTCHAR 02-14-14
ENCODING 11822
SWIDTH 960 0
DWIDTH 14 0
BBX 14 14 0 -2
BITMAP
0000
1ff0
1010
1ff0
1010
1ff0
0820
32c8
0c30
1248
7ffc
2488
2244
4244
ENDCHAR
STARTCHAR 02-14-15
ENCODING 11823
SWIDTH 960 0
DWIDTH 14 0
BBX 14 14 0 -2
BITMAP
0040
0080
7bf8
4a08
4bf8
4a08
7bf8
4840
4b58
4840
7b58
47fc
0040
0040
ENDCHAR
STARTCHAR 02-14-16
ENCODING 11824
SWIDTH 960 0
DWIDTH 14 0
BBX 14 14 0 -2
BITMAP
0000
03fc
7a90
4bf8
4a90
4a40
7bfc
4a40
4af8
4b88
7af8
4a00
03fc
0200
ENDCHAR
STARTCHAR 02-14-17
ENCODING 11825
SWIDTH 960 0
DWIDTH 14 0
BBX 14 14 0 -2
BITMAP
0110
07fc
7910
49f0
4bf8
4a48
7bf8
4840
49f0
4840
7ffc
48a0
0110
060c
ENDCHAR
STARTCHAR 02-14-18
ENCODING 11826
SWIDTH 960 0
DWIDTH 14 0
BBX 14 14 0 -2
BITMAP
0120
0120
7fe0
4920
4abc
4fc8
7868
4ba8
4aa8
4b90
7a90
4bb0
02c8
0284
ENDCHAR
STARTCHAR 02-14-19
ENCODING 11827
SWIDTH 960 0
DWIDTH 14 0
BBX 14 14 0 -2
BITMAP
0040
03fc
7840
49f8
4800
49f8
7908
49f8
4890
4ffc
7800
49f8
0108
01f8
ENDCHAR
STARTCHAR 02-14-20
ENCODING 11828
SWIDTH 960 0
DWIDTH 14 0
BBX 14 14 0 -2
BITMAP
0000
7ffc
1248
7df4
0820
3ef8
0820
7efc
1ff0
1010
1ff0
1010
1ff0
1010
ENDCHAR
STARTCHAR 02-14-21
ENCODING 11829
SWIDTH 960 0
DWIDTH 14 0
BBX 14 14 0 -2
BITMAP
03bc
0000
7bbc
4bb4
4840
4bfc
7aa0
4bf8
4aa8
4bf8
7ae4
4ab8
04e4
0b1c
ENDCHAR
STARTCHAR 02-14-22
ENCODING 11830
SWIDTH 960 0
DWIDTH 14 0
BBX 14 14 0 -2
BITMAP
0000
1ff0
1010
1ff0
1010
1ff0
0000
1ff0
00c0
0100
7ffc
0100
0100
0300
ENDCHAR
STARTCHAR 02-14-23
ENCODING 11831
SWIDTH 960 0
DWIDTH 14 0
BBX 14 14 0 -2
BITMAP
0410
3ef8
2490
7ff8
0820
0f34
144c
6080
1ff0
1010
1ff0
1010
1ff0
1010
ENDCHAR
STARTCHAR 02-14-24
ENCODING 11832
SWIDTH 960 0
DWIDTH 14 0
BBX 14 14 0 -2
BITMAP
0800
09f0
0910
3ff0
0910
09f0
0880
7ff8
1148
1b68
2598
2de8
7308
0230
ENDCHAR
STARTCHAR 02-14-25
ENCODING 11833
SWIDTH 960 0
DWIDTH 14 0
BBX 14 14 0 -2
BITMAP
0020
3c20
25fc
2524
2524
3d54
254c
25ac
3d24
2554
254c
258c
2504
4d0c
ENDCHAR
STARTCHAR 02-14-26
ENCODING 11834
SWIDTH 960 0
DWIDTH 14 0
BBX 14 14 0 -2
BITMAP
0000
3ff8
2440
25f0
2490
3c90
27fc
2440
3ffc
2490
25d0
2420
24d0
4d08
ENDCHAR
STARTCHAR 02-14-27
ENCODING 11835
SWIDTH 960 0
DWIDTH 14 0
BBX 14 14 0 -2
BITMAP
0000
0078
7f48
5548
5548
5578
6348
5d48
5578
5548
7f48
0088
0088
0118
ENDCHAR
STARTCHAR 02-14-28
ENCODING 11836
SWIDTH 960 0
DWIDTH 14 0
BBX 14 14 0 -2
BITMAP
1000
11f8
1040
7c40
13fc
1880
3480
3500
31f8
5108
5008
1010
1010
1060
ENDCHAR
STARTCHAR 02-14-29
ENCODING 11837
SWIDTH 960 0
DWIDTH 14 0
BBX 14 14 0 -2
BITMAP
1080
1080
1080
7ff0
1090
1890
3690
3590
30d0
5150
5110
1114
1214
140c
ENDCHAR
STARTCHAR 02-14-30
ENCODING 11838
SWIDTH 960 0
DWIDTH 14 0
BBX 14 14 0 -2
BITMAP
1000
13fc
10a0
7ca0
10a0
18a0
34a0
34a0
30a0
50a0
5120
1124
1224
141c
ENDCHAR
STARTCHAR 02-14-31
ENCODING 11839
SWIDTH 960 0
DWIDTH 14 0
BBX 14 14 0 -2
BITMAP
1000
11f8
1008
7c10
1010
1820
3420
35fc
3020
5020
5020
1020
1020
1060
ENDCHAR
STARTCHAR 02-14-32
ENCODING 11840
SWIDTH 960 0
DWIDTH 14 0
BBX 14 14 0 -2
BITMAP
1008
1030
11c0
7c40
1040
1840
347c
37c0
3040
5040
5040
1044
1044
103c
ENDCHAR
STARTCHAR 02-14-33
ENCODING 11841
SWIDTH 960 0
DWIDTH 14 0
BBX 14 14 0 -2
BITMAP
1040
1040
1140
7d48
1178
19c8
3748
3548
3148
5158
5140
1104
1104
10fc
ENDCHAR
STARTCHAR 02-14-34
ENCODING 11842
SWIDTH 960 0
DWIDTH 14 0
BBX 14 14 0 -2
BITMAP
1040
1040
1040
7c78
1088
1888
3548
3650
3030
5010
5020
1040
1180
1600
ENDCHAR
STARTCHAR 02-14-35
ENCODING 11843
SWIDTH 960 0
DWIDTH 14 0
BBX 14 14 0 -2
BITMAP
10a0
1090
1108
7e04
1114
1910
3510
34a0
30a0
5040
5040
10a0
1110
160c
ENDCHAR
STARTCHAR 02-14-36
ENCODING 11844
SWIDTH 960 0
DWIDTH 14 0
BBX 14 14 0 -2
BITMAP
1040
1040
1040
7ffc
1040
1950
3550
3550
3150
5154
5254
124c
1440
1040
ENDCHAR
STARTCHAR 02-14-37
ENCODING 11845
SWIDTH 960 0
DWIDTH 14 0
BBX 14 14 0 -2
BITMAP
1100
1100
1100
7d00
11fc
1a48
3650
3440
3040
50a0
50a0
1110
1208
1404
ENDCHAR
STARTCHAR 02-14-38
ENCODING 11846
SWIDTH 960 0
DWIDTH 14 0
BBX 14 14 0 -2
BITMAP
1040
104c
1070
7dc0
1048
1948
3548
3548
31f8
5148
5040
1044
1044
103c
ENDCHAR
STARTCHAR 02-14-39
ENCODING 11847
SWIDTH 960 0
DWIDTH 14 0
BBX 14 14 0 -2
BITMAP
1008
1030
11e0
7f20
1120
19fc
3520
3520
3110
5110
5114
112c
11cc
1704
ENDCHAR
STARTCHAR 02-14-40
ENCODING 11848
SWIDTH 960 0
DWIDTH 14 0
BBX 14 14 0 -2
BITMAP
1000
11f8
1090
7c90
1090
1bfc
3430
3430
3050
5050
5090
1110
1610
1030
ENDCHAR
STARTCHAR 02-14-41
ENCODING 11849
SWIDTH 960 0
DWIDTH 14 0
BBX 14 14 0 -2
BITMAP
0820
0820
0820
7ffc
0820
2cb0
2cb0
2cb0
2cb0
2ab4
2b34
492c
0a20
0820
ENDCHAR
STARTCHAR 02-14-42
ENCODING 11850
SWIDTH 960 0
DWIDTH 14 0
BBX 14 14 0 -2
BITMAP
0440
0440
7ffc
0440
3ff8
2010
4100
0100
7ffc
0380
0540
1930
610c
0100
ENDCHAR
STARTCHAR 02-14-43
ENCODING 11851
SWIDTH 960 0
DWIDTH 14 0
BBX 14 14 0 -2
BITMAP
10c0
1020
1000
7fc0
1048
1848
37f0
34e0
3150
5150
5248
1444
1040
10c0
ENDCHAR
STARTCHAR 02-14-44
ENCODING 11852
SWIDTH 960 0
DWIDTH 14 0
BBX 14 14 0 -2
BITMAP
1000
13fc
1040
7d50
1148
1a48
3440
37fc
3040
5040
5040
1040
1040
1040
ENDCHAR
STARTCHAR 02-14-45
ENCODING 11853
SWIDTH 960 0
DWIDTH 14 0
BBX 14 14 0 -2
BITMAP
0200
0240
0430
7fe8
0004
0fe0
0820
0fe0
0100
7ffc
0380
0d60
711c
0100
ENDCHAR
STARTCHAR 02-14-46
ENCODING 11854
SWIDTH 960 0
DWIDTH 14 0
BBX 14 14 0 -2
BITMAP
1040
1040
10a0
7ca0
1110
1ae8
3404
37f8
3048
5048
5048
1070
1040
1040
ENDCHAR
STARTCHAR 02-14-47
ENCODING 11855
SWIDTH 960 0
DWIDTH 14 0
BBX 14 14 0 -2
BITMAP
1040
1150
1148
7e48
1040
1bf8
3440
3440
33fc
5040
5040
1040
1040
1040
ENDCHAR
STARTCHAR 02-14-48
ENCODING 11856
SWIDTH 960 0
DWIDTH 14 0
BBX 14 14 0 -2
BITMAP
1080
4880
2bfc
2080
0880
1080
207c
4100
3ff8
0380
0540
1930
610c
0100
ENDCHAR
STARTCHAR 02-14-49
ENCODING 11857
SWIDTH 960 0
DWIDTH 14 0
BBX 14 14 0 -2
BITMAP
1000
11f8
1148
7f48
11f8
1948
3548
35f8
3148
5040
5040
1040
1040
1040
ENDCHAR
STARTCHAR 02-14-50
ENCODING 11858
SWIDTH 960 0
DWIDTH 14 0
BBX 14 14 0 -2
BITMAP
1040
1040
1040
7ff8
1148
1948
35f8
3548
3148
51f8
5148
1040
1040
1040
ENDCHAR
STARTCHAR 02-14-51
ENCODING 11859
SWIDTH 960 0
DWIDTH 14 0
BBX 14 14 0 -2
BITMAP
0100
0100
7ffc
0380
0540
1930
6fec
0000
3ff8
0100
0540
1930
610c
0300
ENDCHAR
STARTCHAR 02-14-52
ENCODING 11860
SWIDTH 960 0
DWIDTH 14 0
BBX 14 14 0 -2
BITMAP
1000
11f8
1108
7f08
1108
19f8
35a8
34a0
30a0
50a0
5120
1124
1224
141c
ENDCHAR
STARTCHAR 02-14-53
ENCODING 11861
SWIDTH 960 0
DWIDTH 14 0
BBX 14 14 0 -2
BITMAP
1080
1080
1080
7ffc
1120
1920
3620
36f8
3220
5220
5220
1220
13fc
1200
ENDCHAR
STARTCHAR 02-14-54
ENCODING 11862
SWIDTH 960 0
DWIDTH 14 0
BBX 14 14 0 -2
BITMAP
1020
1020
11fc
7d08
12f8
1810
3420
3420
33fc
5020
5020
1020
1020
1060
ENDCHAR
STARTCHAR 02-14-55
ENCODING 11863
SWIDTH 960 0
DWIDTH 14 0
BBX 14 14 0 -2
BITMAP
1020
1020
11fc
7d08
1210
1810
37fc
3410
3110
5090
5090
1010
1010
1030
ENDCHAR
STARTCHAR 02-14-56
ENCODING 11864
SWIDTH 960 0
DWIDTH 14 0
BBX 14 14 0 -2
BITMAP
1040
1078
1088
7d50
1020
1840
35a0
343c
3044
50a8
5318
1010
1060
1380
ENDCHAR
STARTCHAR 02-14-57
ENCODING 11865
SWIDTH 960 0
DWIDTH 14 0
BBX 14 14 0 -2
BITMAP
1210
1110
1120
7ff8
1120
1920
3520
37fc
3120
5120
5220
1220
1420
1820
ENDCHAR
STARTCHAR 02-14-58
ENCODING 11866
SWIDTH 960 0
DWIDTH 14 0
BBX 14 14 0 -2
BITMAP
1000
17fc
1040
7ff8
12a8
1aa8
36a8
36a8
32a8
52a8
52a8
12a8
12a8
1218
ENDCHAR
STARTCHAR 02-14-59
ENCODING 11867
SWIDTH 960 0
DWIDTH 14 0
BBX 14 14 0 -2
BITMAP
1040
1048
11f8
7c50
1050
1bfc
3440
3480
31f8
5620
5020
1020
1020
1060
ENDCHAR
STARTCHAR 02-14-60
ENCODING 11868
SWIDTH 960 0
DWIDTH 14 0
BBX 14 14 0 -2
BITMAP
1040
1048
11f8
7c50
1050
1bfc
3440
3480
3198
52e0
5480
1088
1088
1078
ENDCHAR
STARTCHAR 02-14-61
ENCODING 11869
SWIDTH 960 0
DWIDTH 14 0
BBX 14 14 0 -2
BITMAP
1020
1028
1024
7ffc
1020
1820
37e0
3520
3120
5110
5150
1194
160c
1004
ENDCHAR
STARTCHAR 02-14-62
ENCODING 11870
SWIDTH 960 0
DWIDTH 14 0
BBX 14 14 0 -2
BITMAP
0100
0100
7ffc
0240
1250
1248
24c4
4904
0100
7ffc
0380
0d60
711c
0100
ENDCHAR
STARTCHAR 02-14-63
ENCODING 11871
SWIDTH 960 0
DWIDTH 14 0
BBX 14 14 0 -2
BITMAP
1040
1040
1248
7d48
1150
1840
37fc
34a0
30a0
50a0
5120
1124
1224
141c
ENDCHAR
STARTCHAR 02-14-64
ENCODING 11872
SWIDTH 960 0
DWIDTH 14 0
BBX 14 14 0 -2
BITMAP
1040
1078
1090
7f20
11fc
1900
3578
3548
3148
5170
5240
1244
1444
183c
ENDCHAR
STARTCHAR 02-14-65
ENCODING 11873
SWIDTH 960 0
DWIDTH 14 0
BBX 14 14 0 -2
BITMAP
1040
1040
11fc
7d08
1240
1840
37fc
3490
3090
5190
5160
1030
10c8
1704
ENDCHAR
STARTCHAR 02-14-66
ENCODING 11874
SWIDTH 960 0
DWIDTH 14 0
BBX 14 14 0 -2
BITMAP
0100
0100
01f8
0100
1ff0
1010
1ff0
1010
1ff0
0100
7ffc
0d60
711c
0100
ENDCHAR
STARTCHAR 02-14-67
ENCODING 11875
SWIDTH 960 0
DWIDTH 14 0
BBX 14 14 0 -2
BITMAP
1040
1080
1138
7d08
1108
1908
3508
35b8
3108
5108
5108
1108
11f8
1108
ENDCHAR
STARTCHAR 02-14-68
ENCODING 11876
SWIDTH 960 0
DWIDTH 14 0
BBX 14 14 0 -2
BITMAP
1000
11f0
1090
7c9c
1104
1904
3618
3440
33fc
50e0
50d0
1148
1244
1040
ENDCHAR
STARTCHAR 02-14-69
ENCODING 11877
SWIDTH 960 0
DWIDTH 14 0
BBX 14 14 0 -2
BITMAP
1000
11f8
1148
7d48
11f8
1948
3548
35f8
3040
53fc
5044
1084
1104
1618
ENDCHAR
STARTCHAR 02-14-70
ENCODING 11878
SWIDTH 960 0
DWIDTH 14 0
BBX 14 14 0 -2
BITMAP
1220
1120
1120
7c30
12a8
12a8
38a4
3524
3168
5230
5210
1220
1440
1580
ENDCHAR
STARTCHAR 02-14-71
ENCODING 11879
SWIDTH 960 0
DWIDTH 14 0
BBX 14 14 0 -2
BITMAP
1000
13fc
1040
7c60
10d8
1b44
3440
3440
31f8
5108
5108
1108
11f8
1108
ENDCHAR
STARTCHAR 02-14-72
ENCODING 11880
SWIDTH 960 0
DWIDTH 14 0
BBX 14 14 0 -2
BITMAP
1000
13fc
1050
7c50
11dc
1954
3554
3554
3154
51dc
5090
1090
1110
1210
ENDCHAR
STARTCHAR 02-14-73
ENCODING 11881
SWIDTH 960 0
DWIDTH 14 0
BBX 14 14 0 -2
BITMAP
0100
0100
3ff8
0380
0d60
3118
0280
0d60
719c
1190
0b50
0d20
3110
0308
ENDCHAR
STARTCHAR 02-14-74
ENCODING 11882
SWIDTH 960 0
DWIDTH 14 0
BBX 14 14 0 -2
BITMAP
1050
1048
1048
7ffc
1040
1248
3968
3570
3050
50d0
5148
1644
1040
10c0
ENDCHAR
STARTCHAR 02-14-75
ENCODING 11883
SWIDTH 960 0
DWIDTH 14 0
BBX 14 14 0 -2
BITMAP
1120
1124
1128
7ff0
1120
1924
35e4
375c
3040
53f8
5040
1040
17fc
1000
ENDCHAR
STARTCHAR 02-14-76
ENCODING 11884
SWIDTH 960 0
DWIDTH 14 0
BBX 14 14 0 -2
BITMAP
1000
11f8
1108
7d08
11f8
1908
35f8
3508
3108
51f8
5090
1088
1104
1204
ENDCHAR
STARTCHAR 02-14-77
ENCODING 11885
SWIDTH 960 0
DWIDTH 14 0
BBX 14 14 0 -2
BITMAP
1008
13a8
12a8
7ea8
12a8
1ba8
3528
3528
31a8
51a8
5288
1288
1488
1918
ENDCHAR
STARTCHAR 02-14-78
ENCODING 11886
SWIDTH 960 0
DWIDTH 14 0
BBX 14 14 0 -2
BITMAP
1000
11f8
1108
7d08
11f8
1908
35f8
3508
31f8
50a0
50a0
1124
1224
141c
ENDCHAR
STARTCHAR 02-14-79
ENCODING 11887
SWIDTH 960 0
DWIDTH 14 0
BBX 14 14 0 -2
BITMAP
1040
1040
11f8
7d48
1148
19f8
3440
37fc
3244
5244
53fc
1244
1040
1040
ENDCHAR
STARTCHAR 02-14-80
ENCODING 11888
SWIDTH 960 0
DWIDTH 14 0
BBX 14 14 0 -2
BITMAP
1080
10f0
1120
7e40
13f8
1a48
3648
37f8
3268
50a0
50a0
1124
1224
141c
ENDCHAR
STARTCHAR 02-14-81
ENCODING 11889
SWIDTH 960 0
DWIDTH 14 0
BBX 14 14 0 -2
BITMAP
1040
1040
1040
7ffc
1150
1950
3550
36e8
3444
50a0
50a0
1110
1208
1404
ENDCHAR
STARTCHAR 02-14-82
ENCODING 11890
SWIDTH 960 0
DWIDTH 14 0
BBX 14 14 0 -2
BITMAP
1000
13fc
1000
7df8
1108
1908
35f8
3508
3108
5090
5090
1020
13fc
1000
ENDCHAR
STARTCHAR 02-14-83
ENCODING 11891
SWIDTH 960 0
DWIDTH 14 0
BBX 14 14 0 -2
BITMAP
1000
11f0
1010
7ffc
1010
19f0
3400
37fc
3208
55f0
5120
10c0
1130
160c
ENDCHAR
STARTCHAR 02-14-84
ENCODING 11892
SWIDTH 960 0
DWIDTH 14 0
BBX 14 14 0 -2
BITMAP
1000
170c
11f0
7d10
1210
1a5c
3750
3550
3550
5350
52fc
1300
14c0
183c
ENDCHAR
STARTCHAR 02-14-85
ENCODING 11893
SWIDTH 960 0
DWIDTH 14 0
BBX 14 14 0 -2
BITMAP
12a0
12a0
13f8
7ea8
12a8
15f8
3ea8
3ea0
37fc
56a4
54a4
1538
1520
1620
ENDCHAR
STARTCHAR 02-14-86
ENCODING 11894
SWIDTH 960 0
DWIDTH 14 0
BBX 14 14 0 -2
BITMAP
0440
7ffc
0440
0fe0
1030
7fec
0220
0c20
31c0
7ffc
0380
0d60
711c
0100
ENDCHAR
STARTCHAR 02-14-87
ENCODING 11895
SWIDTH 960 0
DWIDTH 14 0
BBX 14 14 0 -2
BITMAP
1040
1040
13fc
7c40
10d0
1bfc
3490
3490
37fc
50a0
50a0
1124
1224
141c
ENDCHAR
STARTCHAR 02-14-88
ENCODING 11896
SWIDTH 960 0
DWIDTH 14 0
BBX 14 14 0 -2
BITMAP
1090
1090
17fc
7c90
1048
1844
37fc
3640
3248
5228
5230
1454
148c
1b04
ENDCHAR
STARTCHAR 02-14-89
ENCODING 11897
SWIDTH 960 0
DWIDTH 14 0
BBX 14 14 0 -2
BITMAP
1090
1090
13fc
7c90
1088
1888
3508
35fc
3348
5528
5128
1108
1108
1118
ENDCHAR
STARTCHAR 02-14-90
ENCODING 11898
SWIDTH 960 0
DWIDTH 14 0
BBX 14 14 0 -2
BITMAP
0140
3e78
04a8
7f28
0e48
1548
6498
0500
3ff8
0380
0540
1930
610c
0100
ENDCHAR
STARTCHAR 02-14-91
ENCODING 11899
SWIDTH 960 0
DWIDTH 14 0
BBX 14 14 0 -2
BITMAP
1010
11e0
13fc
7c40
13f8
1848
37fc
3448
33f8
50e0
50d0
1148
1244
1040
ENDCHAR
STARTCHAR 02-14-92
ENCODING 11900
SWIDTH 960 0
DWIDTH 14 0
BBX 14 14 0 -2
BITMAP
1008
1030
13c8
7d24
1124
1a40
3440
37fc
30e0
50e0
5150
1248
1444
1040
ENDCHAR
STARTCHAR 02-14-93
ENCODING 11901
SWIDTH 960 0
DWIDTH 14 0
BBX 14 14 0 -2
BITMAP
1000
11f0
1110
7df0
1110
19f0
3400
37fc
3010
57fc
5110
1090
1010
1030
ENDCHAR
STARTCHAR 02-14-94
ENCODING 11902
SWIDTH 960 0
DWIDTH 14 0
BBX 14 14 0 -2
BITMAP
1000
11f8
1100
7ff0
1100
19f0
3500
37fc
3148
5150
5120
1150
1188
1604
ENDCHAR
STARTCHAR 02-15-01
ENCODING 12065
SWIDTH 960 0
DWIDTH 14 0
BBX 14 14 0 -2
BITMAP
1018
13e0
1200
7ff8
1208
1bf8
3650
3648
33fc
5240
5440
14a0
1b10
1c0c
ENDCHAR
STARTCHAR 02-15-02
ENCODING 12066
SWIDTH 960 0
DWIDTH 14 0
BBX 14 14 0 -2
BITMAP
1090
1090
1090
7ffc
1090
1890
37fc
3400
31f8
5108
51f8
1108
11f8
1108
ENDCHAR
STARTCHAR 02-15-03
ENCODING 12067
SWIDTH 960 0
DWIDTH 14 0
BBX 14 14 0 -2
BITMAP
1010
1090
1290
7efc
1110
1918
36b4
3434
32b0
52d0
5150
1110
1290
1490
ENDCHAR
STARTCHAR 02-15-04
ENCODING 12068
SWIDTH 960 0
DWIDTH 14 0
BBX 14 14 0 -2
BITMAP
1040
1150
1148
7ff8
10a0
1bfc
3510
37f8
3514
5110
5160
1108
1108
10f8
ENDCHAR
STARTCHAR 02-15-05
ENCODING 12069
SWIDTH 960 0
DWIDTH 14 0
BBX 14 14 0 -2
BITMAP
1000
17fc
1280
7e80
13f8
1ac8
36c8
37a8
32b0
5290
53b0
14a8
10c8
1084
ENDCHAR
STARTCHAR 02-15-06
ENCODING 12070
SWIDTH 960 0
DWIDTH 14 0
BBX 14 14 0 -2
BITMAP
1040
1078
1040
7ffc
1248
1a78
37c8
3638
32a0
52a0
52a0
14a4
1524
181c
ENDCHAR
STARTCHAR 02-15-07
ENCODING 12071
SWIDTH 960 0
DWIDTH 14 0
BBX 14 14 0 -2
BITMAP
1000
11f0
1110
7f10
11f0
1910
35f0
3510
31f0
5000
57fc
10a0
1110
1608
ENDCHAR
STARTCHAR 02-15-08
ENCODING 12072
SWIDTH 960 0
DWIDTH 14 0
BBX 14 14 0 -2
BITMAP
1038
13c0
1040
7ffc
10a0
1910
3688
3484
32d0
52a8
54a4
18a4
1080
1180
ENDCHAR
STARTCHAR 02-15-09
ENCODING 12073
SWIDTH 960 0
DWIDTH 14 0
BBX 14 14 0 -2
BITMAP
1040
1040
13fc
7c40
10a0
1910
37f8
3404
37f8
5140
5150
1248
1448
10c0
ENDCHAR
STARTCHAR 02-15-10
ENCODING 12074
SWIDTH 960 0
DWIDTH 14 0
BBX 14 14 0 -2
BITMAP
1000
13fc
12f8
7e88
12f8
1a88
36f8
3600
32f8
5210
53fc
1420
1420
1860
ENDCHAR
STARTCHAR 02-15-11
ENCODING 12075
SWIDTH 960 0
DWIDTH 14 0
BBX 14 14 0 -2
BITMAP
1000
13fc
12f8
7e88
12f8
1a88
36f8
3640
33fc
5290
5260
12d8
13fc
1000
ENDCHAR
STARTCHAR 02-15-12
ENCODING 12076
SWIDTH 960 0
DWIDTH 14 0
BBX 14 14 0 -2
BITMAP
0440
7ffc
3e08
3a48
2648
3a48
2648
2618
0100
7ffc
0380
0d60
711c
0100
ENDCHAR
STARTCHAR 02-15-13
ENCODING 12077
SWIDTH 960 0
DWIDTH 14 0
BBX 14 14 0 -2
BITMAP
1000
13fc
10a0
7ff8
12a8
1aa8
37f8
3440
33fc
5090
51d0
1020
10d0
1308
ENDCHAR
STARTCHAR 02-15-14
ENCODING 12078
SWIDTH 960 0
DWIDTH 14 0
BBX 14 14 0 -2
BITMAP
1100
11fc
1120
7efc
12a4
1afc
36a4
36fc
32a4
5220
5260
1250
1288
1304
ENDCHAR
STARTCHAR 02-15-15
ENCODING 12079
SWIDTH 960 0
DWIDTH 14 0
BBX 14 14 0 -2
BITMAP
1000
11f0
1110
7df0
1110
19f0
3480
35f8
3248
5648
52a8
1318
13c8
1030
ENDCHAR
STARTCHAR 02-15-16
ENCODING 12080
SWIDTH 960 0
DWIDTH 14 0
BBX 14 14 0 -2
BITMAP
1028
1024
13fc
7e20
13e8
1aa8
37e8
3770
3350
5390
52b4
132c
124c
1484
ENDCHAR
STARTCHAR 02-15-17
ENCODING 12081
SWIDTH 960 0
DWIDTH 14 0
BBX 14 14 0 -2
BITMAP
1000
13f0
10a0
7c40
13fc
18c8
3750
34c0
3040
53fc
50e0
1150
124c
1040
ENDCHAR
STARTCHAR 02-15-18
ENCODING 12082
SWIDTH 960 0
DWIDTH 14 0
BBX 14 14 0 -2
BITMAP
1010
11e0
1040
7ffc
10e0
1950
3648
35f4
3110
51f0
5110
1110
11f0
1110
ENDCHAR
STARTCHAR 02-15-19
ENCODING 12083
SWIDTH 960 0
DWIDTH 14 0
BBX 14 14 0 -2
BITMAP
1000
17f8
1088
7c88
13b8
1a20
37b8
34c8
32a8
5198
52a8
14c8
1088
1330
ENDCHAR
STARTCHAR 02-15-20
ENCODING 12084
SWIDTH 960 0
DWIDTH 14 0
BBX 14 14 0 -2
BITMAP
0100
3ffc
2448
4920
3298
0c60
1ff0
682c
0fe0
0920
7ffc
0380
0d60
3118
ENDCHAR
STARTCHAR 02-15-21
ENCODING 12085
SWIDTH 960 0
DWIDTH 14 0
BBX 14 14 0 -2
BITMAP
0800
7ff0
0890
3e94
0094
3f0c
2200
5df8
0888
7f50
1c50
2a20
48d0
0b0c
ENDCHAR
STARTCHAR 02-15-22
ENCODING 12086
SWIDTH 960 0
DWIDTH 14 0
BBX 14 14 0 -2
BITMAP
1000
10fc
3f80
48f8
7f88
08f8
1480
22fc
4100
7ffc
0380
0d60
711c
0100
ENDCHAR
STARTCHAR 02-15-23
ENCODING 12087
SWIDTH 960 0
DWIDTH 14 0
BBX 14 14 0 -2
BITMAP
0820
0820
7f50
0888
3f24
2220
3ffc
2270
3e70
08a8
7fa8
0924
0820
0820
ENDCHAR
STARTCHAR 02-15-24
ENCODING 12088
SWIDTH 960 0
DWIDTH 14 0
BBX 14 14 0 -2
BITMAP
1048
11f8
1050
7ffc
10c0
1898
35e4
3684
307c
51f8
5108
11f8
1108
11f8
ENDCHAR
STARTCHAR 02-15-25
ENCODING 12089
SWIDTH 960 0
DWIDTH 14 0
BBX 14 14 0 -2
BITMAP
1040
1040
11fc
7d48
1290
18a0
35fc
3720
31f8
5120
51f8
1120
11fc
1100
ENDCHAR
STARTCHAR 02-15-26
ENCODING 12090
SWIDTH 960 0
DWIDTH 14 0
BBX 14 14 0 -2
BITMAP
0040
3e48
2550
27f8
2440
3ffc
24a0
2550
3e48
27fc
24e0
24d0
2548
4e44
ENDCHAR
STARTCHAR 02-15-27
ENCODING 12091
SWIDTH 960 0
DWIDTH 14 0
BBX 14 14 0 -2
BITMAP
1040
11f0
1040
7ffc
10a0
1910
37e8
3400
33f8
52a8
52a8
12a8
17fc
1000
ENDCHAR
STARTCHAR 02-15-28
ENCODING 12092
SWIDTH 960 0
DWIDTH 14 0
BBX 14 14 0 -2
BITMAP
0100
7ffc
0fe0
0820
0fe0
3ff8
27c8
2448
27d8
0100
7ffc
0d60
711c
0100
ENDCHAR
STARTCHAR 02-15-29
ENCODING 12093
SWIDTH 960 0
DWIDTH 14 0
BBX 14 14 0 -2
BITMAP
0000
3ef8
2288
2288
3ef8
2aa8
0820
7ffc
0820
1c70
1a68
29a4
4924
0820
ENDCHAR
STARTCHAR 02-15-30
ENCODING 12094
SWIDTH 960 0
DWIDTH 14 0
BBX 14 14 0 -2
BITMAP
0100
3ff8
0100
1ff0
3ffc
2008
5ff8
0fe0
1820
6fe0
0100
7ffc
0920
3118
ENDCHAR
STARTCHAR 02-15-31
ENCODING 12095
SWIDTH 960 0
DWIDTH 14 0
BBX 14 14 0 -2
BITMAP
1040
1040
13fc
7e08
13fc
1840
35f8
3548
31f8
5148
51f8
1090
1108
1604
ENDCHAR
STARTCHAR 02-15-32
ENCODING 12096
SWIDTH 960 0
DWIDTH 14 0
BBX 14 14 0 -2
BITMAP
1110
1120
13fc
7d20
11f8
15f8
1920
61fc
0100
7ffc
0380
0d60
711c
0100
ENDCHAR
STARTCHAR 02-15-33
ENCODING 12097
SWIDTH 960 0
DWIDTH 14 0
BBX 14 14 0 -2
BITMAP
1000
13f8
1040
7ffc
1444
1b58
3758
3440
33f8
5008
57fc
1008
13f8
1008
ENDCHAR
STARTCHAR 02-15-34
ENCODING 12098
SWIDTH 960 0
DWIDTH 14 0
BBX 14 14 0 -2
BITMAP
1000
11f8
1148
7df8
1148
19f8
3440
35f8
3040
53fc
5000
1348
12a4
14a4
ENDCHAR
STARTCHAR 02-15-35
ENCODING 12099
SWIDTH 960 0
DWIDTH 14 0
BBX 14 14 0 -2
BITMAP
1080
1080
11fc
7d90
12f0
1890
34f0
3490
33fc
5204
52f4
1294
12f4
120c
ENDCHAR
STARTCHAR 02-15-36
ENCODING 12100
SWIDTH 960 0
DWIDTH 14 0
BBX 14 14 0 -2
BITMAP
1040
1040
13fc
7e48
11f8
18a0
3510
37fc
3008
51c8
5148
11c8
1148
1018
ENDCHAR
STARTCHAR 02-15-37
ENCODING 12101
SWIDTH 960 0
DWIDTH 14 0
BBX 14 14 0 -2
BITMAP
1040
1090
13f8
7d10
1198
1a64
37fc
34a0
3350
51ac
5048
1190
1060
1380
ENDCHAR
STARTCHAR 02-15-38
ENCODING 12102
SWIDTH 960 0
DWIDTH 14 0
BBX 14 14 0 -2
BITMAP
1040
1248
1248
7ff8
1098
1920
37fc
3620
33f8
5220
53f8
1220
13fc
1200
ENDCHAR
STARTCHAR 02-15-39
ENCODING 12103
SWIDTH 960 0
DWIDTH 14 0
BBX 14 14 0 -2
BITMAP
2440
24f8
3f50
04f0
7f90
15fc
2490
4430
0100
7ffc
0380
0d60
711c
0100
ENDCHAR
STARTCHAR 02-15-40
ENCODING 12104
SWIDTH 960 0
DWIDTH 14 0
BBX 14 14 0 -2
BITMAP
1120
1538
1548
7d68
1790
1550
3168
3f48
55fc
5548
1528
1528
1908
1118
ENDCHAR
STARTCHAR 02-15-41
ENCODING 12105
SWIDTH 960 0
DWIDTH 14 0
BBX 14 14 0 -2
BITMAP
1018
13e0
1200
7ff8
1208
1bf8
36f0
36f0
33f8
5328
55f8
1504
1904
10fc
ENDCHAR
STARTCHAR 02-15-42
ENCODING 12106
SWIDTH 960 0
DWIDTH 14 0
BBX 14 14 0 -2
BITMAP
1000
11f0
1110
7df0
1110
19f0
37f8
36a8
33f8
57f8
5090
1060
11b0
160c
ENDCHAR
STARTCHAR 02-15-43
ENCODING 12107
SWIDTH 960 0
DWIDTH 14 0
BBX 14 14 0 -2
BITMAP
1200
11f0
1450
7ed8
1154
1a54
36a4
3440
37fc
50e0
50d0
1148
1244
1040
ENDCHAR
STARTCHAR 02-15-44
ENCODING 12108
SWIDTH 960 0
DWIDTH 14 0
BBX 14 14 0 -2
BITMAP
1040
1040
13fc
7ea0
13f8
1aa8
36a8
37f8
3320
53e8
5330
1560
15a4
131c
ENDCHAR
STARTCHAR 02-15-45
ENCODING 12109
SWIDTH 960 0
DWIDTH 14 0
BBX 14 14 0 -2
BITMAP
1040
1078
1040
7ffc
12e8
1b90
3670
36f0
3290
52f0
5290
14f0
1490
1bfc
ENDCHAR
STARTCHAR 02-15-46
ENCODING 12110
SWIDTH 960 0
DWIDTH 14 0
BBX 14 14 0 -2
BITMAP
1090
13fc
1090
7df8
1148
19f8
3548
35f8
3040
53fc
5254
1274
1394
120c
ENDCHAR
STARTCHAR 02-15-47
ENCODING 12111
SWIDTH 960 0
DWIDTH 14 0
BBX 14 14 0 -2
BITMAP
1028
1024
17fc
7be0
1020
17e0
3fe0
3250
33d0
53d4
524c
13cc
1184
1244
ENDCHAR
STARTCHAR 02-15-48
ENCODING 12112
SWIDTH 960 0
DWIDTH 14 0
BBX 14 14 0 -2
BITMAP
1000
13f0
1010
7ffc
1010
1bf0
37b8
3528
31b8
5610
57fc
1110
1090
1030
ENDCHAR
STARTCHAR 02-15-49
ENCODING 12113
SWIDTH 960 0
DWIDTH 14 0
BBX 14 14 0 -2
BITMAP
1120
1130
17e8
7aa8
12a0
17fc
3820
37a8
32a8
5390
5290
13b4
124c
1084
ENDCHAR
STARTCHAR 02-15-50
ENCODING 12114
SWIDTH 960 0
DWIDTH 14 0
BBX 14 14 0 -2
BITMAP
1000
13b8
12a8
7fb8
1000
1bf8
3648
37f8
3248
53f8
5040
17fc
1040
1040
ENDCHAR
STARTCHAR 02-15-51
ENCODING 12115
SWIDTH 960 0
DWIDTH 14 0
BBX 14 14 0 -2
BITMAP
0800
0800
1ff8
2aa0
7ffc
0aa0
3ff8
0820
7ffc
1c60
1a70
2aa8
4924
0820
ENDCHAR
STARTCHAR 02-15-52
ENCODING 12116
SWIDTH 960 0
DWIDTH 14 0
BBX 14 14 0 -2
BITMAP
1040
1248
1150
7ffc
10e0
1950
364c
3548
31fc
5268
53a8
14fc
1108
1608
ENDCHAR
STARTCHAR 02-15-53
ENCODING 12117
SWIDTH 960 0
DWIDTH 14 0
BBX 14 14 0 -2
BITMAP
1000
13b8
12a8
7fb8
12a8
1bb8
3608
36e8
32a8
52e8
52a8
12e8
12a8
1218
ENDCHAR
STARTCHAR 02-15-54
ENCODING 12118
SWIDTH 960 0
DWIDTH 14 0
BBX 14 14 0 -2
BITMAP
1018
13e8
1248
7d50
13fc
18e0
3550
37f8
3154
51f0
5150
1150
11f0
1110
ENDCHAR
STARTCHAR 02-15-55
ENCODING 12119
SWIDTH 960 0
DWIDTH 14 0
BBX 14 14 0 -2
BITMAP
1000
13f8
1040
7ffc
1248
1d50
3550
3400
33f8
5000
57fc
1090
1138
17c4
ENDCHAR
STARTCHAR 02-15-56
ENCODING 12120
SWIDTH 960 0
DWIDTH 14 0
BBX 14 14 0 -2
BITMAP
0100
1490
1488
2428
0be0
36f8
3144
5554
4d30
0100
7ffc
0380
0d60
711c
ENDCHAR
STARTCHAR 02-15-57
ENCODING 12121
SWIDTH 960 0
DWIDTH 14 0
BBX 14 14 0 -2
BITMAP
10c0
1338
1208
7fb8
1208
1bf8
3400
3768
32d8
5248
5368
12dc
136c
16c4
ENDCHAR
STARTCHAR 02-15-58
ENCODING 12122
SWIDTH 960 0
DWIDTH 14 0
BBX 14 14 0 -2
BITMAP
1000
11f0
1110
7df0
1000
1bbc
36a4
37bc
3040
57fc
50e0
1150
164c
1040
ENDCHAR
STARTCHAR 02-15-59
ENCODING 12123
SWIDTH 960 0
DWIDTH 14 0
BBX 14 14 0 -2
BITMAP
0018
3de8
2524
3bf8
2bfc
25f8
2408
3bfc
21f8
2100
7ffc
0d60
711c
0100
ENDCHAR
STARTCHAR 02-15-60
ENCODING 12124
SWIDTH 960 0
DWIDTH 14 0
BBX 14 14 0 -2
BITMAP
1110
1110
13f8
7d10
17fc
1910
35f0
3648
35f4
51f0
5150
11f0
17fc
1040
ENDCHAR
STARTCHAR 02-15-61
ENCODING 12125
SWIDTH 960 0
DWIDTH 14 0
BBX 14 14 0 -2
BITMAP
1000
11f8
1168
7df8
1020
1bfc
34f8
3688
32f8
52f8
5288
12f8
13fc
1200
ENDCHAR
STARTCHAR 02-15-62
ENCODING 12126
SWIDTH 960 0
DWIDTH 14 0
BBX 14 14 0 -2
BITMAP
1000
13f8
1040
7ffc
1444
1b58
3758
3400
33f8
5248
53f8
1248
13f8
1208
ENDCHAR
STARTCHAR 02-15-63
ENCODING 12127
SWIDTH 960 0
DWIDTH 14 0
BBX 14 14 0 -2
BITMAP
1000
13fc
1090
7ffc
1294
1bfc
35f8
3508
31f8
51f8
5108
11f8
1090
130c
ENDCHAR
STARTCHAR 02-15-64
ENCODING 12128
SWIDTH 960 0
DWIDTH 14 0
BBX 14 14 0 -2
BITMAP
1000
13f8
12a8
7ff8
1040
1bf8
3440
37fc
30a0
57fc
5040
13f8
1040
1040
ENDCHAR
STARTCHAR 02-15-65
ENCODING 12129
SWIDTH 960 0
DWIDTH 14 0
BBX 14 14 0 -2
BITMAP
1040
1248
1248
7ff8
1448
1290
3afc
3990
36f8
52f8
5290
12fc
1500
18fc
ENDCHAR
STARTCHAR 02-15-66
ENCODING 12130
SWIDTH 960 0
DWIDTH 14 0
BBX 14 14 0 -2
BITMAP
1040
13fc
1308
7df8
1368
1af0
3590
37f8
3004
53f8
5150
1248
1048
10c0
ENDCHAR
STARTCHAR 02-15-67
ENCODING 12131
SWIDTH 960 0
DWIDTH 14 0
BBX 14 14 0 -2
BITMAP
1000
13f8
1040
7ffc
1444
1b58
3758
37fc
3040
53f8
52a8
12a8
12a8
12b8
ENDCHAR
STARTCHAR 02-15-68
ENCODING 12132
SWIDTH 960 0
DWIDTH 14 0
BBX 14 14 0 -2
BITMAP
1108
1228
17d8
7d48
17e8
1558
37cc
3d38
5948
5348
13a8
15ec
1484
187c
ENDCHAR
STARTCHAR 02-15-69
ENCODING 12133
SWIDTH 960 0
DWIDTH 14 0
BBX 14 14 0 -2
BITMAP
1000
13fc
1250
7ffc
12f8
1aa8
36f8
36a8
32f8
53fc
5534
15fc
1904
110c
ENDCHAR
STARTCHAR 02-15-70
ENCODING 12134
SWIDTH 960 0
DWIDTH 14 0
BBX 14 14 0 -2
BITMAP
0000
0fe0
0920
0fe0
0fe0
3ef8
3ef8
2aa8
3ef8
0100
7ffc
0380
0d60
711c
ENDCHAR
STARTCHAR 02-15-71
ENCODING 12135
SWIDTH 960 0
DWIDTH 14 0
BBX 14 14 0 -2
BITMAP
0100
3ff8
0fe0
0920
3ffc
2f48
5970
0640
39f8
1ff0
1ff0
7ffc
0920
3118
ENDCHAR
STARTCHAR 02-15-72
ENCODING 12136
SWIDTH 960 0
DWIDTH 14 0
BBX 14 14 0 -2
BITMAP
1040
13fc
1040
7df8
13fc
1a94
37fc
35f8
31f8
51f8
5108
11f8
1090
130c
ENDCHAR
STARTCHAR 02-15-73
ENCODING 12137
SWIDTH 960 0
DWIDTH 14 0
BBX 14 14 0 -2
BITMAP
1110
17fc
1150
7df4
1318
19f0
3718
35f4
3040
57fc
50e0
1150
164c
1040
ENDCHAR
STARTCHAR 02-15-74
ENCODING 12138
SWIDTH 960 0
DWIDTH 14 0
BBX 14 14 0 -2
BITMAP
1020
14f8
12a8
7af8
11fc
10f8
3e88
3af8
32f8
5288
52f8
1650
1588
18fc
ENDCHAR
STARTCHAR 02-15-75
ENCODING 12139
SWIDTH 960 0
DWIDTH 14 0
BBX 14 14 0 -2
BITMAP
1200
1278
17c8
7cc8
1378
1fc8
3278
3fc8
5a78
5738
16b0
1a50
1254
128c
ENDCHAR
STARTCHAR 02-15-76
ENCODING 12140
SWIDTH 960 0
DWIDTH 14 0
BBX 14 14 0 -2
BITMAP
0820
4920
7ffc
3e88
3e50
21fc
3e20
23fc
3e20
2120
7ffc
0380
0d60
711c
ENDCHAR
STARTCHAR 02-15-77
ENCODING 12141
SWIDTH 960 0
DWIDTH 14 0
BBX 14 14 0 -2
BITMAP
1020
17b8
1148
7dfc
1254
1fd4
32fc
3b24
3ad4
5278
52b8
1254
1294
1660
ENDCHAR
STARTCHAR 02-15-78
ENCODING 12142
SWIDTH 960 0
DWIDTH 14 0
BBX 14 14 0 -2
BITMAP
1120
1138
17e0
7ab8
1288
17f8
3820
3fb8
34a0
57b8
54a0
17b8
14a4
159c
ENDCHAR
STARTCHAR 02-15-79
ENCODING 12143
SWIDTH 960 0
DWIDTH 14 0
BBX 14 14 0 -2
BITMAP
0018
3de8
2524
3bf8
2bfc
2408
27fc
39f8
2548
2534
29f0
7ffc
0920
3118
ENDCHAR
STARTCHAR 02-15-80
ENCODING 12144
SWIDTH 960 0
DWIDTH 14 0
BBX 14 14 0 -2
BITMAP
1200
1278
17c8
7d48
17f8
1248
37f8
3d48
3ff8
5530
57b0
1554
17d4
148c
ENDCHAR
STARTCHAR 02-15-81
ENCODING 12145
SWIDTH 960 0
DWIDTH 14 0
BBX 14 14 0 -2
BITMAP
1000
13b8
12a8
7fb8
13b8
1aa8
37b8
3520
31fc
5320
55f8
19f8
1120
11fc
ENDCHAR
STARTCHAR 02-15-82
ENCODING 12146
SWIDTH 960 0
DWIDTH 14 0
BBX 14 14 0 -2
BITMAP
1000
17f8
1548
7ff8
1248
12d0
34fc
3b50
3afc
57d0
577c
16d0
1a7c
1240
ENDCHAR
STARTCHAR 02-15-83
ENCODING 12147
SWIDTH 960 0
DWIDTH 14 0
BBX 14 14 0 -2
BITMAP
13bc
1000
13bc
7fb4
1040
1bfc
36a0
37f8
32a8
53f8
52e4
12b8
14e4
1b1c
ENDCHAR
STARTCHAR 02-15-84
ENCODING 12148
SWIDTH 960 0
DWIDTH 14 0
BBX 14 14 0 -2
BITMAP
1330
13b8
1550
7ffc
1330
1bb4
354c
35f0
3110
51f0
51f0
11f0
1190
1608
ENDCHAR
STARTCHAR 02-15-85
ENCODING 12149
SWIDTH 960 0
DWIDTH 14 0
BBX 14 14 0 -2
BITMAP
1000
17fc
13f8
7ea8
12e8
1280
37f8
3ba8
3ff8
5568
57f8
1fe8
1148
1198
ENDCHAR
STARTCHAR 02-15-86
ENCODING 12150
SWIDTH 960 0
DWIDTH 14 0
BBX 14 14 0 -2
BITMAP
1110
17fc
1110
7fbc
17bc
14a4
37bc
3c44
3df4
55f4
5554
15f4
14e4
155c
ENDCHAR
STARTCHAR 02-15-87
ENCODING 12151
SWIDTH 960 0
DWIDTH 14 0
BBX 14 14 0 -2
BITMAP
0840
0840
0840
3e40
08fc
08a8
0930
7f20
1020
1460
1250
2690
7908
0104
ENDCHAR
STARTCHAR 02-15-88
ENCODING 12152
SWIDTH 960 0
DWIDTH 14 0
BBX 14 14 0 -2
BITMAP
0840
0840
0840
7f40
08fc
09a8
3e30
0020
3e20
2260
2250
2290
3f08
2204
ENDCHAR
STARTCHAR 02-15-89
ENCODING 12153
SWIDTH 960 0
DWIDTH 14 0
BBX 14 14 0 -2
BITMAP
0840
7f40
0040
1e40
12fc
1ea8
0130
3f20
2120
3d60
3550
3d90
2108
2304
ENDCHAR
STARTCHAR 02-15-90
ENCODING 12154
SWIDTH 960 0
DWIDTH 14 0
BBX 14 14 0 -2
BITMAP
0840
2940
2940
5a40
14fc
22a8
5130
1220
36a0
3b60
5250
3690
2d08
4884
ENDCHAR
STARTCHAR 02-15-91
ENCODING 12155
SWIDTH 960 0
DWIDTH 14 0
BBX 14 14 0 -2
BITMAP
0100
1100
11f8
1100
7ffc
0100
0fe0
0a20
0920
7ffc
0920
1120
2120
4060
ENDCHAR
STARTCHAR 02-15-92
ENCODING 12156
SWIDTH 960 0
DWIDTH 14 0
BBX 14 14 0 -2
BITMAP
0820
09fc
0820
28f8
2820
2ffc
28f8
2888
28f8
28f8
2888
2ef8
30c8
6304
ENDCHAR
STARTCHAR 02-15-93
ENCODING 12157
SWIDTH 960 0
DWIDTH 14 0
BBX 14 14 0 -2
BITMAP
0100
0100
01f0
0100
0500
07e0
0820
1420
2240
0380
0100
0200
0c00
3000
ENDCHAR
STARTCHAR 02-15-94
ENCODING 12158
SWIDTH 960 0
DWIDTH 14 0
BBX 14 14 0 -2
BITMAP
0000
7fe0
1120
1124
1d24
261c
2400
57f0
1910
0920
10c0
10c0
2130
460c
ENDCHAR
STARTCHAR 02-78-01
ENCODING 28193
SWIDTH 960 0
DWIDTH 14 0
BBX 14 14 0 -2
BITMAP
0000
7ffc
1080
1080
1ddc
2524
27b4
56a8
1aa8
0bb4
1224
1040
27fc
4000
ENDCHAR
STARTCHAR 02-78-02
ENCODING 28194
SWIDTH 960 0
DWIDTH 14 0
BBX 14 14 0 -2
BITMAP
0040
7c40
10a0
1110
1ff8
2404
27b8
56a8
1aa8
0bb8
1110
1198
2264
4444
ENDCHAR
STARTCHAR 02-78-03
ENCODING 28195
SWIDTH 960 0
DWIDTH 14 0
BBX 14 14 0 -2
BITMAP
1000
20f0
7c90
4494
7d14
460c
7c00
47f8
0088
4c50
7050
4020
44d0
3d0c
ENDCHAR
STARTCHAR 02-78-04
ENCODING 28196
SWIDTH 960 0
DWIDTH 14 0
BBX 14 14 0 -2
BITMAP
1200
0cf0
7a90
0a94
7f14
100c
1f00
33f8
5e88
1250
1e50
1220
12d0
170c
ENDCHAR
STARTCHAR 02-78-05
ENCODING 28197
SWIDTH 960 0
DWIDTH 14 0
BBX 14 14 0 -2
BITMAP
0800
0870
3e50
0a54
0c94
7f0c
0a00
1ff8
3288
5e50
1250
1220
1e50
128c
ENDCHAR
STARTCHAR 02-78-06
ENCODING 28198
SWIDTH 960 0
DWIDTH 14 0
BBX 14 14 0 -2
BITMAP
1000
66f0
4290
7e94
4314
7e0c
4300
13f8
5488
3850
7e50
3820
34d0
530c
ENDCHAR
STARTCHAR 02-78-07
ENCODING 28199
SWIDTH 960 0
DWIDTH 14 0
BBX 14 14 0 -2
BITMAP
0840
10b8
2fa8
2da8
2de8
3fcc
3f80
2dfc
2da4
2fa8
74d8
1590
14a8
24c4
ENDCHAR
STARTCHAR 02-78-08
ENCODING 28200
SWIDTH 960 0
DWIDTH 14 0
BBX 14 14 0 -2
BITMAP
3f70
2854
2e8c
3ff8
2448
2a30
3fcc
0000
3ff8
0920
0920
17d0
2108
7ffc
ENDCHAR
STARTCHAR 02-78-09
ENCODING 28201
SWIDTH 960 0
DWIDTH 14 0
BBX 14 14 0 -2
BITMAP
03c0
0480
3fe0
0820
0fe8
0ef0
0884
7ffc
0480
3ff0
1110
1ff4
048c
787c
ENDCHAR
STARTCHAR 02-78-10
ENCODING 28202
SWIDTH 960 0
DWIDTH 14 0
BBX 14 14 0 -2
BITMAP
0008
7f10
12e0
1240
1e78
13c0
1240
1e40
127c
13c0
1e40
7244
0244
023c
ENDCHAR
STARTCHAR 02-78-11
ENCODING 28203
SWIDTH 960 0
DWIDTH 14 0
BBX 14 14 0 -2
BITMAP
0420
0828
7024
13fc
1c20
70a8
10a8
1ce8
73b0
1094
111c
122c
1044
0ffc
ENDCHAR
STARTCHAR 02-78-12
ENCODING 28204
SWIDTH 960 0
DWIDTH 14 0
BBX 14 14 0 -2
BITMAP
1040
1150
1148
7a4c
14d4
1060
1198
1fe0
1078
73c0
107c
17c0
1044
303c
ENDCHAR
STARTCHAR 02-78-13
ENCODING 28205
SWIDTH 960 0
DWIDTH 14 0
BBX 14 14 0 -2
BITMAP
0480
0880
71f8
1248
1d58
70e8
1048
1df8
70e8
1158
1258
1074
1004
0ffc
ENDCHAR
STARTCHAR 02-78-14
ENCODING 28206
SWIDTH 960 0
DWIDTH 14 0
BBX 14 14 0 -2
BITMAP
0840
3e7c
7fd0
1c30
2acc
5ff8
1060
1780
11f0
1f00
11f8
2f04
41fc
0000
ENDCHAR
STARTCHAR 02-78-15
ENCODING 28207
SWIDTH 960 0
DWIDTH 14 0
BBX 14 14 0 -2
BITMAP
0440
0bfc
71f8
11f8
1d98
71f8
10f0
1c90
70f0
1090
10f0
13fc
1004
0ffc
ENDCHAR
STARTCHAR 02-78-16
ENCODING 28208
SWIDTH 960 0
DWIDTH 14 0
BBX 14 14 0 -2
BITMAP
1f08
1570
1f10
7f9c
5bf0
7b90
7b90
041c
3ff0
2490
4f10
1914
0614
7fcc
ENDCHAR
STARTCHAR 02-78-17
ENCODING 28209
SWIDTH 960 0
DWIDTH 14 0
BBX 14 14 0 -2
BITMAP
0200
0100
0080
1080
0800
0400
0400
0040
0080
0100
0100
0200
0200
0400
ENDCHAR
STARTCHAR 02-78-18
ENCODING 28210
SWIDTH 960 0
DWIDTH 14 0
BBX 14 14 0 -2
BITMAP
0000
0fe0
0040
0188
0108
7f90
0560
0540
0920
1110
2108
4104
0100
0300
ENDCHAR
STARTCHAR 02-78-19
ENCODING 28211
SWIDTH 960 0
DWIDTH 14 0
BBX 14 14 0 -2
BITMAP
0100
0100
0100
2110
1110
1120
03c0
0580
0940
1120
2110
410c
0100
0300
ENDCHAR
STARTCHAR 02-78-20
ENCODING 28212
SWIDTH 960 0
DWIDTH 14 0
BBX 14 14 0 -2
BITMAP
11c0
0840
0840
4040
2040
2040
0040
08e0
08a0
10a0
1110
2110
2208
2404
ENDCHAR
STARTCHAR 02-78-21
ENCODING 28213
SWIDTH 960 0
DWIDTH 14 0
BBX 14 14 0 -2
BITMAP
1100
0900
0900
4100
21e0
2720
0120
0920
0920
1120
1224
2224
2424
281c
ENDCHAR
STARTCHAR 02-78-22
ENCODING 28214
SWIDTH 960 0
DWIDTH 14 0
BBX 14 14 0 -2
BITMAP
1080
0880
0880
47f0
2090
2290
0190
0890
08d0
1150
1110
2114
2214
240c
ENDCHAR
STARTCHAR 02-78-23
ENCODING 28215
SWIDTH 960 0
DWIDTH 14 0
BBX 14 14 0 -2
BITMAP
1000
0bf0
0910
4110
2110
2110
0150
0990
0b10
1110
1114
220c
220c
2404
ENDCHAR
STARTCHAR 02-78-24
ENCODING 28216
SWIDTH 960 0
DWIDTH 14 0
BBX 14 14 0 -2
BITMAP
11c0
0840
0840
43f8
2248
2248
0248
0aa8
0a98
1318
1208
2208
2208
2218
ENDCHAR
STARTCHAR 02-78-25
ENCODING 28217
SWIDTH 960 0
DWIDTH 14 0
BBX 14 14 0 -2
BITMAP
1000
0bf8
0800
4000
2000
27fc
0080
0880
08a0
1110
1108
2238
2fc4
2004
ENDCHAR
STARTCHAR 02-78-26
ENCODING 28218
SWIDTH 960 0
DWIDTH 14 0
BBX 14 14 0 -2
BITMAP
1000
0bfc
0a08
4400
21e0
2120
0120
0920
0920
1120
1220
2224
2424
281c
ENDCHAR
STARTCHAR 02-78-27
ENCODING 28219
SWIDTH 960 0
DWIDTH 14 0
BBX 14 14 0 -2
BITMAP
1080
0880
0be0
40a0
2124
2124
021c
0840
0840
13fc
1040
2040
2040
2040
ENDCHAR
STARTCHAR 02-78-28
ENCODING 28220
SWIDTH 960 0
DWIDTH 14 0
BBX 14 14 0 -2
BITMAP
1000
0ffc
0840
4240
2278
2248
0248
0a48
0bf8
1208
1208
2008
2008
2030
ENDCHAR
STARTCHAR 02-78-29
ENCODING 28221
SWIDTH 960 0
DWIDTH 14 0
BBX 14 14 0 -2
BITMAP
1100
0900
0900
41f8
22a8
22a8
04a8
0928
0928
1248
1048
2088
2108
2030
ENDCHAR
STARTCHAR 02-78-30
ENCODING 28222
SWIDTH 960 0
DWIDTH 14 0
BBX 14 14 0 -2
BITMAP
0000
3ff8
0100
7ffc
0280
0440
1930
611c
1120
0940
07c0
1930
610c
0300
ENDCHAR
STARTCHAR 02-78-31
ENCODING 28223
SWIDTH 960 0
DWIDTH 14 0
BBX 14 14 0 -2
BITMAP
1050
0848
0848
47fc
2040
2040
0150
0950
0950
1154
1254
224c
2440
2040
ENDCHAR
STARTCHAR 02-78-32
ENCODING 28224
SWIDTH 960 0
DWIDTH 14 0
BBX 14 14 0 -2
BITMAP
1000
0bf8
0a08
4208
22e8
22a8
02a8
0aa8
0aa8
12e8
12a8
2208
2208
2218
ENDCHAR
STARTCHAR 02-78-33
ENCODING 28225
SWIDTH 960 0
DWIDTH 14 0
BBX 14 14 0 -2
BITMAP
1040
0f40
0d40
45f8
2648
2648
0548
0d48
0d48
1548
1688
2488
2508
2630
ENDCHAR
STARTCHAR 02-78-34
ENCODING 28226
SWIDTH 960 0
DWIDTH 14 0
BBX 14 14 0 -2
BITMAP
1080
0880
0880
47fc
2110
2110
0248
0a48
0c44
10a0
1090
2118
27e4
2004
ENDCHAR
STARTCHAR 02-78-35
ENCODING 28227
SWIDTH 960 0
DWIDTH 14 0
BBX 14 14 0 -2
BITMAP
1040
0880
0b38
42a8
22a8
22a8
02a8
0aa8
0aa8
13a8
14b8
2120
2120
2220
ENDCHAR
STARTCHAR 02-78-36
ENCODING 28228
SWIDTH 960 0
DWIDTH 14 0
BBX 14 14 0 -2
BITMAP
10a0
08a0
08a0
40a4
22a4
22e8
02b0
0aa0
0aa0
12a0
12a0
22e4
2324
261c
ENDCHAR
STARTCHAR 02-78-37
ENCODING 28229
SWIDTH 960 0
DWIDTH 14 0
BBX 14 14 0 -2
BITMAP
1018
09e0
0920
4120
2120
21fc
0120
0920
0920
11d0
1614
200c
27fc
2004
ENDCHAR
STARTCHAR 02-78-38
ENCODING 28230
SWIDTH 960 0
DWIDTH 14 0
BBX 14 14 0 -2
BITMAP
1040
0940
0940
43f8
2240
2440
0040
0bf8
0840
1040
1040
2040
27fc
2000
ENDCHAR
STARTCHAR 02-78-39
ENCODING 28231
SWIDTH 960 0
DWIDTH 14 0
BBX 14 14 0 -2
BITMAP
1040
0840
0bfc
4208
2400
20e0
0020
0920
0920
1110
1110
2210
2208
2404
ENDCHAR
STARTCHAR 02-78-40
ENCODING 28232
SWIDTH 960 0
DWIDTH 14 0
BBX 14 14 0 -2
BITMAP
1088
0888
0888
4108
21fc
2308
0348
0d28
0928
1108
1108
2108
2108
2118
ENDCHAR
STARTCHAR 02-78-41
ENCODING 28233
SWIDTH 960 0
DWIDTH 14 0
BBX 14 14 0 -2
BITMAP
1000
0bf8
0848
4048
2088
2330
0000
0fbc
0a94
1294
1294
24a4
24a4
29cc
ENDCHAR
STARTCHAR 02-78-42
ENCODING 28234
SWIDTH 960 0
DWIDTH 14 0
BBX 14 14 0 -2
BITMAP
1020
0840
09f0
4190
2150
2150
0110
0ffc
0950
1150
1150
2250
2210
2430
ENDCHAR
STARTCHAR 02-78-43
ENCODING 28235
SWIDTH 960 0
DWIDTH 14 0
BBX 14 14 0 -2
BITMAP
1080
0880
0880
47fc
2080
21f8
0108
0b10
0b10
15fc
1110
2110
2110
2130
ENDCHAR
STARTCHAR 02-78-44
ENCODING 28236
SWIDTH 960 0
DWIDTH 14 0
BBX 14 14 0 -2
BITMAP
11c0
0840
08a0
40a0
2110
2208
07fc
0840
0840
11f0
1040
2040
27fc
2000
ENDCHAR
STARTCHAR 02-78-45
ENCODING 28237
SWIDTH 960 0
DWIDTH 14 0
BBX 14 14 0 -2
BITMAP
1000
0ffc
0840
4080
23f8
2208
0208
0a08
0bf8
1208
1208
2208
23f8
2208
ENDCHAR
STARTCHAR 02-78-46
ENCODING 28238
SWIDTH 960 0
DWIDTH 14 0
BBX 14 14 0 -2
BITMAP
1080
0880
0ffc
4100
2100
23f8
0308
0df8
0908
11f8
1108
2108
2108
2118
ENDCHAR
STARTCHAR 02-78-47
ENCODING 28239
SWIDTH 960 0
DWIDTH 14 0
BBX 14 14 0 -2
BITMAP
1000
0fbc
0910
4110
2110
21d0
073c
0910
0910
1110
1110
2210
2210
2410
ENDCHAR
STARTCHAR 02-78-48
ENCODING 28240
SWIDTH 960 0
DWIDTH 14 0
BBX 14 14 0 -2
BITMAP
0800
09f8
0f48
7848
0e48
3888
0f08
7130
0108
7f90
0560
1930
610c
0700
ENDCHAR
STARTCHAR 02-78-49
ENCODING 28241
SWIDTH 960 0
DWIDTH 14 0
BBX 14 14 0 -2
BITMAP
1040
0840
0bf8
4040
2040
27fc
0040
0840
0bf8
1040
1040
2040
27fc
2000
ENDCHAR
STARTCHAR 02-78-50
ENCODING 28242
SWIDTH 960 0
DWIDTH 14 0
BBX 14 14 0 -2
BITMAP
1040
0840
08a0
4110
23f8
2404
03f8
0820
0840
11f0
1110
2110
21f0
2110
ENDCHAR
STARTCHAR 02-78-51
ENCODING 28243
SWIDTH 960 0
DWIDTH 14 0
BBX 14 14 0 -2
BITMAP
1000
0bf8
0a08
4208
23f8
2248
0040
0a40
0a78
1240
1240
2340
24c0
283c
ENDCHAR
STARTCHAR 02-78-52
ENCODING 28244
SWIDTH 960 0
DWIDTH 14 0
BBX 14 14 0 -2
BITMAP
1010
09a0
0870
4388
2080
27fc
0140
09f8
0b48
1548
1148
2170
2040
2040
ENDCHAR
STARTCHAR 02-78-53
ENCODING 28245
SWIDTH 960 0
DWIDTH 14 0
BBX 14 14 0 -2
BITMAP
1088
0928
0f28
4128
2128
2fe8
0128
0ba8
0b68
1528
1508
2908
2108
2118
ENDCHAR
STARTCHAR 02-78-54
ENCODING 28246
SWIDTH 960 0
DWIDTH 14 0
BBX 14 14 0 -2
BITMAP
1000
09f8
0908
4108
21f8
2108
01f8
0908
09f8
10a0
10a0
2124
2224
241c
ENDCHAR
STARTCHAR 02-78-55
ENCODING 28247
SWIDTH 960 0
DWIDTH 14 0
BBX 14 14 0 -2
BITMAP
1108
0908
0910
47e0
2108
2108
0390
0b60
0b44
1504
1508
2110
2120
2140
ENDCHAR
STARTCHAR 02-78-56
ENCODING 28248
SWIDTH 960 0
DWIDTH 14 0
BBX 14 14 0 -2
BITMAP
1000
0bf8
0848
4248
2488
2108
0230
0840
08a0
12a8
1284
2494
2090
2070
ENDCHAR
STARTCHAR 02-78-57
ENCODING 28249
SWIDTH 960 0
DWIDTH 14 0
BBX 14 14 0 -2
BITMAP
1040
0848
0bf8
4048
2050
27fc
0080
09f0
0a20
1440
13fc
2040
2040
20c0
ENDCHAR
STARTCHAR 02-78-58
ENCODING 28250
SWIDTH 960 0
DWIDTH 14 0
BBX 14 14 0 -2
BITMAP
1040
0840
0ffc
4040
23f8
2248
0248
0bf8
0ae8
10e0
1150
2248
2444
2040
ENDCHAR
STARTCHAR 02-78-59
ENCODING 28251
SWIDTH 960 0
DWIDTH 14 0
BBX 14 14 0 -2
BITMAP
1080
08a0
0890
4138
27c8
2100
01f8
0a40
0c40
17fc
1040
20a0
2110
260c
ENDCHAR
STARTCHAR 02-78-60
ENCODING 28252
SWIDTH 960 0
DWIDTH 14 0
BBX 14 14 0 -2
BITMAP
1000
09f0
0910
41f0
2110
21f0
0110
0800
0bf8
1040
1040
2040
27fc
2000
ENDCHAR
STARTCHAR 02-78-61
ENCODING 28253
SWIDTH 960 0
DWIDTH 14 0
BBX 14 14 0 -2
BITMAP
1040
0860
0890
43e8
2040
23fc
00a0
0910
0a4c
11a0
1048
2190
2060
2380
ENDCHAR
STARTCHAR 02-78-62
ENCODING 28254
SWIDTH 960 0
DWIDTH 14 0
BBX 14 14 0 -2
BITMAP
1000
0fbc
0a94
45ac
2294
24a4
0000
0bf8
0908
1110
10e0
2060
2190
260c
ENDCHAR
STARTCHAR 02-78-63
ENCODING 28255
SWIDTH 960 0
DWIDTH 14 0
BBX 14 14 0 -2
BITMAP
1038
0bc0
0840
47fc
20a0
2110
0288
1484
10d0
17e0
22a0
2290
448c
4180
ENDCHAR
STARTCHAR 02-78-64
ENCODING 28256
SWIDTH 960 0
DWIDTH 14 0
BBX 14 14 0 -2
BITMAP
1080
0900
0f38
4128
2128
27e8
0128
0ba8
0b68
1328
1528
2538
2128
2100
ENDCHAR
STARTCHAR 02-78-65
ENCODING 28257
SWIDTH 960 0
DWIDTH 14 0
BBX 14 14 0 -2
BITMAP
1040
0840
0bfc
4208
25f0
2110
0110
09f0
0900
11f8
1108
2108
21f8
2108
ENDCHAR
STARTCHAR 02-78-66
ENCODING 28258
SWIDTH 960 0
DWIDTH 14 0
BBX 14 14 0 -2
BITMAP
2008
17e8
1468
4468
27e8
2528
0528
17e8
1768
2b68
2b68
4388
4308
4118
ENDCHAR
STARTCHAR 02-78-67
ENCODING 28259
SWIDTH 960 0
DWIDTH 14 0
BBX 14 14 0 -2
BITMAP
1040
0840
0bfc
4208
2100
21f8
0168
0968
0ae8
12b8
10a0
2124
2224
241c
ENDCHAR
STARTCHAR 02-78-68
ENCODING 28260
SWIDTH 960 0
DWIDTH 14 0
BBX 14 14 0 -2
BITMAP
1000
09f0
0910
41f0
2110
21f0
0000
0bfc
0810
13fc
1110
2090
2010
2030
ENDCHAR
STARTCHAR 02-78-69
ENCODING 28261
SWIDTH 960 0
DWIDTH 14 0
BBX 14 14 0 -2
BITMAP
1088
0888
0910
47bc
2110
2110
01d0
0f3c
0910
1110
1210
2210
2410
2810
ENDCHAR
STARTCHAR 02-78-70
ENCODING 28262
SWIDTH 960 0
DWIDTH 14 0
BBX 14 14 0 -2
BITMAP
1000
0bfc
0a04
43fc
2224
22a8
02a8
0af8
0aa8
1324
1524
2524
29fc
2104
ENDCHAR
STARTCHAR 02-78-71
ENCODING 28263
SWIDTH 960 0
DWIDTH 14 0
BBX 14 14 0 -2
BITMAP
1040
0840
0bf8
4040
21f0
20a0
07fc
0950
0bf8
1444
13f8
2040
2040
2040
ENDCHAR
STARTCHAR 02-78-72
ENCODING 28264
SWIDTH 960 0
DWIDTH 14 0
BBX 14 14 0 -2
BITMAP
1000
09f0
0910
41f0
2110
21f0
0110
0800
0bf8
1040
17fc
20a0
2110
260c
ENDCHAR
STARTCHAR 02-78-73
ENCODING 28265
SWIDTH 960 0
DWIDTH 14 0
BBX 14 14 0 -2
BITMAP
1000
09f0
0910
41f0
2110
21f0
0110
0800
0bf8
1208
13f8
2208
23f8
2208
ENDCHAR
STARTCHAR 02-78-74
ENCODING 28266
SWIDTH 960 0
DWIDTH 14 0
BBX 14 14 0 -2
BITMAP
10a0
08a0
08a0
43f8
22a8
22a8
03f8
0aa8
0aa8
17fc
1000
2110
2208
2408
ENDCHAR
STARTCHAR 02-78-75
ENCODING 28267
SWIDTH 960 0
DWIDTH 14 0
BBX 14 14 0 -2
BITMAP
1040
0840
0bf8
4040
27fc
20a0
0124
0e9c
08f0
1190
1660
2060
2190
260c
ENDCHAR
STARTCHAR 02-78-76
ENCODING 28268
SWIDTH 960 0
DWIDTH 14 0
BBX 14 14 0 -2
BITMAP
1040
0840
0ffc
4150
2150
2358
02e4
0c44
08e0
10d0
1150
2248
2444
2040
ENDCHAR
STARTCHAR 02-78-77
ENCODING 28269
SWIDTH 960 0
DWIDTH 14 0
BBX 14 14 0 -2
BITMAP
1110
0910
0ffc
4110
2040
23f8
0248
0a48
0ffc
1040
1060
2090
2108
2604
ENDCHAR
STARTCHAR 02-78-78
ENCODING 28270
SWIDTH 960 0
DWIDTH 14 0
BBX 14 14 0 -2
BITMAP
1110
08a0
0ffc
4040
2080
23f8
0208
0bf8
0a08
13f8
1208
2208
23f8
2208
ENDCHAR
STARTCHAR 02-78-79
ENCODING 28271
SWIDTH 960 0
DWIDTH 14 0
BBX 14 14 0 -2
BITMAP
1000
0bf8
0a38
43c8
2248
23f8
0358
0b58
0bf8
136c
125c
247c
2784
2804
ENDCHAR
STARTCHAR 02-78-80
ENCODING 28272
SWIDTH 960 0
DWIDTH 14 0
BBX 14 14 0 -2
BITMAP
1040
0840
0ffc
4110
20a0
27fc
0444
0bf8
0a48
1248
1248
2270
2040
2040
ENDCHAR
STARTCHAR 02-78-81
ENCODING 28273
SWIDTH 960 0
DWIDTH 14 0
BBX 14 14 0 -2
BITMAP
1020
0820
0bfc
4288
2250
23fc
0220
0aa8
0aa8
12a8
14f8
24a8
2840
2080
ENDCHAR
STARTCHAR 02-78-82
ENCODING 28274
SWIDTH 960 0
DWIDTH 14 0
BBX 14 14 0 -2
BITMAP
1040
0840
0bfc
4208
25f0
2000
01f0
0910
09f0
1110
11f0
2000
27fc
2000
ENDCHAR
STARTCHAR 02-78-83
ENCODING 28275
SWIDTH 960 0
DWIDTH 14 0
BBX 14 14 0 -2
BITMAP
1108
0888
0890
47fc
2040
23f8
0040
0ffc
0840
17fc
10a0
2090
2108
2604
ENDCHAR
STARTCHAR 02-78-84
ENCODING 28276
SWIDTH 960 0
DWIDTH 14 0
BBX 14 14 0 -2
BITMAP
1110
0910
0ffc
4110
21f0
2110
01f0
0840
0ffc
10e0
1150
2248
2444
2040
ENDCHAR
STARTCHAR 02-78-85
ENCODING 28277
SWIDTH 960 0
DWIDTH 14 0
BBX 14 14 0 -2
BITMAP
2208
1210
1270
4310
2690
26fc
0690
1a10
1278
2248
2248
4248
4278
4248
ENDCHAR
STARTCHAR 02-78-86
ENCODING 28278
SWIDTH 960 0
DWIDTH 14 0
BBX 14 14 0 -2
BITMAP
1040
0bf0
0890
47fc
2000
21f0
0110
09f0
0820
13f8
1220
23fc
2020
2020
ENDCHAR
STARTCHAR 02-78-87
ENCODING 28279
SWIDTH 960 0
DWIDTH 14 0
BBX 14 14 0 -2
BITMAP
1040
0840
08a0
41f0
2208
25f4
0110
09f0
0910
11f4
1148
2130
21d0
260c
ENDCHAR
STARTCHAR 02-78-88
ENCODING 28280
SWIDTH 960 0
DWIDTH 14 0
BBX 14 14 0 -2
BITMAP
1000
0bfc
0820
4040
21f8
2108
01f8
0908
09f8
1108
11f8
2090
2108
2604
ENDCHAR
STARTCHAR 02-78-89
ENCODING 28281
SWIDTH 960 0
DWIDTH 14 0
BBX 14 14 0 -2
BITMAP
1000
0ff8
0a90
42f8
2580
28fc
0000
0bf0
0a10
13f0
1210
23f0
2210
2230
ENDCHAR
STARTCHAR 02-78-90
ENCODING 28282
SWIDTH 960 0
DWIDTH 14 0
BBX 14 14 0 -2
BITMAP
10e0
0920
0910
43f8
2494
2090
0110
0a60
0bf8
12a8
12a8
22a8
27fc
2000
ENDCHAR
STARTCHAR 02-78-91
ENCODING 28283
SWIDTH 960 0
DWIDTH 14 0
BBX 14 14 0 -2
BITMAP
1110
0890
08a0
47fc
2000
23a8
02a8
0aa8
0ba8
12a8
13a8
2288
2288
2398
ENDCHAR
STARTCHAR 02-78-92
ENCODING 28284
SWIDTH 960 0
DWIDTH 14 0
BBX 14 14 0 -2
BITMAP
2208
1208
1788
427c
2208
2f88
0248
1228
1728
2208
2208
4388
4e08
4018
ENDCHAR
STARTCHAR 02-78-93
ENCODING 28285
SWIDTH 960 0
DWIDTH 14 0
BBX 14 14 0 -2
BITMAP
1000
0bf8
0a08
43f8
2220
23fc
0210
0b8c
0ffc
1208
13f8
2208
23f8
2208
ENDCHAR
STARTCHAR 02-78-94
ENCODING 28286
SWIDTH 960 0
DWIDTH 14 0
BBX 14 14 0 -2
BITMAP
1018
0be4
0a44
4128
2130
2000
02f8
0a88
0a88
12f8
1288
2288
22f8
2288
ENDCHAR
STARTCHAR 02-79-01
ENCODING 28449
SWIDTH 960 0
DWIDTH 14 0
BBX 14 14 0 -2
BITMAP
1090
0920
0ffc
40a0
23f8
20a8
07fc
08a8
0bf8
10a8
11b0
22a8
24a4
20a0
ENDCHAR
STARTCHAR 02-79-02
ENCODING 28450
SWIDTH 960 0
DWIDTH 14 0
BBX 14 14 0 -2
BITMAP
1000
0ffc
08a0
43f8
22a8
22a8
03f8
0840
0ffc
10e0
1150
2248
2444
2040
ENDCHAR
STARTCHAR 02-79-03
ENCODING 28451
SWIDTH 960 0
DWIDTH 14 0
BBX 14 14 0 -2
BITMAP
1040
0880
0bf0
4210
23f0
2210
03f0
0a10
0bf0
1088
17fc
20c0
2120
2218
ENDCHAR
STARTCHAR 02-79-04
ENCODING 28452
SWIDTH 960 0
DWIDTH 14 0
BBX 14 14 0 -2
BITMAP
2020
1070
1f68
4ba4
2b24
2bf8
0f20
1b20
1bfc
2b20
2f20
4920
4820
4020
ENDCHAR
STARTCHAR 02-79-05
ENCODING 28453
SWIDTH 960 0
DWIDTH 14 0
BBX 14 14 0 -2
BITMAP
1070
0910
0948
4244
2090
21f8
0000
0bb8
0998
12a8
1198
22a8
2088
2198
ENDCHAR
STARTCHAR 02-79-06
ENCODING 28454
SWIDTH 960 0
DWIDTH 14 0
BBX 14 14 0 -2
BITMAP
1100
0900
0bf8
4200
25f0
2000
07f0
0530
0b50
0ff0
1394
134c
252c
2104
ENDCHAR
STARTCHAR 02-79-07
ENCODING 28455
SWIDTH 960 0
DWIDTH 14 0
BBX 14 14 0 -2
BITMAP
1000
0ff8
0c90
44a0
25f8
2720
05f8
0d20
0df8
1520
15f8
2500
27fc
2400
ENDCHAR
STARTCHAR 02-79-08
ENCODING 28456
SWIDTH 960 0
DWIDTH 14 0
BBX 14 14 0 -2
BITMAP
2110
1110
1290
425c
27e8
2928
0168
1fd8
1110
2590
25a8
4da8
4944
4384
ENDCHAR
STARTCHAR 02-79-09
ENCODING 28457
SWIDTH 960 0
DWIDTH 14 0
BBX 14 14 0 -2
BITMAP
2240
1240
127c
45c8
2530
2d50
0d8c
1578
1548
2578
2548
4578
4548
4458
ENDCHAR
STARTCHAR 02-79-10
ENCODING 28458
SWIDTH 960 0
DWIDTH 14 0
BBX 14 14 0 -2
BITMAP
1040
0878
0840
43fc
2270
23c4
023c
0a08
0bf0
12a8
13fc
2420
2420
2860
ENDCHAR
STARTCHAR 02-79-11
ENCODING 28459
SWIDTH 960 0
DWIDTH 14 0
BBX 14 14 0 -2
BITMAP
1020
0bfc
0888
4050
23fc
2220
02a0
0af8
0b20
12f8
1220
2420
25fc
2800
ENDCHAR
STARTCHAR 02-79-12
ENCODING 28460
SWIDTH 960 0
DWIDTH 14 0
BBX 14 14 0 -2
BITMAP
1040
0bf8
0a48
47fc
2248
23f8
03f8
0a48
0bf8
1080
17fc
2190
2070
2788
ENDCHAR
STARTCHAR 02-79-13
ENCODING 28461
SWIDTH 960 0
DWIDTH 14 0
BBX 14 14 0 -2
BITMAP
1120
0ffc
0920
41e0
23f8
2248
03f8
0840
0bf8
1040
13f8
2040
27fc
2000
ENDCHAR
STARTCHAR 02-79-14
ENCODING 28462
SWIDTH 960 0
DWIDTH 14 0
BBX 14 14 0 -2
BITMAP
1000
0bfc
0bf8
4200
23fc
22a8
02d0
0b8c
0af8
1288
12f8
24f8
2488
2898
ENDCHAR
STARTCHAR 02-79-15
ENCODING 28463
SWIDTH 960 0
DWIDTH 14 0
BBX 14 14 0 -2
BITMAP
1040
0bfc
0aa8
44a8
2118
2240
03f8
0840
0ffc
1040
13f8
2040
27fc
2000
ENDCHAR
STARTCHAR 02-79-16
ENCODING 28464
SWIDTH 960 0
DWIDTH 14 0
BBX 14 14 0 -2
BITMAP
1040
0bf8
0a48
43f8
2040
23f8
0248
0bf8
0840
1090
1548
2554
2914
20f0
ENDCHAR
STARTCHAR 02-79-17
ENCODING 28465
SWIDTH 960 0
DWIDTH 14 0
BBX 14 14 0 -2
BITMAP
1040
0a48
0a48
43f8
2298
2120
03fc
0e20
0bf8
1220
13f8
2220
23fc
2200
ENDCHAR
STARTCHAR 02-79-18
ENCODING 28466
SWIDTH 960 0
DWIDTH 14 0
BBX 14 14 0 -2
BITMAP
1040
0bf8
0920
40a0
27fc
2000
01f0
0910
09f0
11f0
1110
21f0
2124
261c
ENDCHAR
STARTCHAR 02-79-19
ENCODING 28467
SWIDTH 960 0
DWIDTH 14 0
BBX 14 14 0 -2
BITMAP
1080
09f0
0a20
47f8
2248
23f8
0040
0988
0ad0
1160
16b0
2128
2624
20c0
ENDCHAR
STARTCHAR 02-79-20
ENCODING 28468
SWIDTH 960 0
DWIDTH 14 0
BBX 14 14 0 -2
BITMAP
1120
0bfc
0a20
47f8
2620
2bf8
0220
0bfc
0840
17fc
10e0
2150
264c
2040
ENDCHAR
STARTCHAR 02-79-21
ENCODING 28469
SWIDTH 960 0
DWIDTH 14 0
BBX 14 14 0 -2
BITMAP
1080
0ff8
0888
47fc
2088
27f8
05a8
0fb8
0c88
17f8
1488
27b8
25a8
29a8
ENDCHAR
STARTCHAR 02-79-22
ENCODING 28470
SWIDTH 960 0
DWIDTH 14 0
BBX 14 14 0 -2
BITMAP
1000
0bb8
0aa8
43b8
2220
2264
01dc
0910
0bf8
1110
17fc
2110
2208
2408
ENDCHAR
STARTCHAR 02-79-23
ENCODING 28471
SWIDTH 960 0
DWIDTH 14 0
BBX 14 14 0 -2
BITMAP
1040
0880
0bf8
42a8
22a8
27fc
0060
09c8
0950
1660
10e0
2150
264c
2040
ENDCHAR
STARTCHAR 02-79-24
ENCODING 28472
SWIDTH 960 0
DWIDTH 14 0
BBX 14 14 0 -2
BITMAP
1110
0910
0ffc
4330
23b8
2554
0554
0910
0bf0
1210
13f0
2210
23f0
2210
ENDCHAR
STARTCHAR 02-79-25
ENCODING 28473
SWIDTH 960 0
DWIDTH 14 0
BBX 14 14 0 -2
BITMAP
1108
0890
0ffc
42a8
21a8
21b0
07fc
0800
0bf8
1208
13f8
2208
23f8
2208
ENDCHAR
STARTCHAR 02-79-26
ENCODING 28474
SWIDTH 960 0
DWIDTH 14 0
BBX 14 14 0 -2
BITMAP
1000
0bf8
0840
47fc
2444
2b58
0358
0800
0bf8
1000
17fc
2090
2130
27c8
ENDCHAR
STARTCHAR 02-79-27
ENCODING 28475
SWIDTH 960 0
DWIDTH 14 0
BBX 14 14 0 -2
BITMAP
2000
1f78
1948
4f78
2948
2f78
0888
1888
1be8
29c8
29c8
4aa8
4888
4898
ENDCHAR
STARTCHAR 02-79-28
ENCODING 28476
SWIDTH 960 0
DWIDTH 14 0
BBX 14 14 0 -2
BITMAP
2420
12f8
1220
41fc
2888
2450
05fc
1e20
12f8
2220
23fc
4220
4520
48fc
ENDCHAR
STARTCHAR 02-79-29
ENCODING 28477
SWIDTH 960 0
DWIDTH 14 0
BBX 14 14 0 -2
BITMAP
1040
0ffc
0800
43f8
22e8
22a8
02e8
0bf8
0bf0
1040
17fc
21f0
264c
2040
ENDCHAR
STARTCHAR 02-79-30
ENCODING 28478
SWIDTH 960 0
DWIDTH 14 0
BBX 14 14 0 -2
BITMAP
2200
13bc
1494
4d14
27ac
25c0
05bc
17d0
1590
27fc
2490
4490
4490
4990
ENDCHAR
STARTCHAR 02-79-31
ENCODING 28479
SWIDTH 960 0
DWIDTH 14 0
BBX 14 14 0 -2
BITMAP
1100
09fc
0924
43a8
2290
25ac
0100
0a48
0950
17fc
10e0
2150
264c
2040
ENDCHAR
STARTCHAR 02-79-32
ENCODING 28480
SWIDTH 960 0
DWIDTH 14 0
BBX 14 14 0 -2
BITMAP
1000
0fbc
0a94
45ac
2294
24a4
0040
0ffc
0950
1150
1358
24a4
2110
260c
ENDCHAR
STARTCHAR 02-79-33
ENCODING 28481
SWIDTH 960 0
DWIDTH 14 0
BBX 14 14 0 -2
BITMAP
2104
1108
1ff0
44a0
22a0
233c
0fe8
1228
1fe8
2728
26a8
4ac8
5248
4288
ENDCHAR
STARTCHAR 02-79-34
ENCODING 28482
SWIDTH 960 0
DWIDTH 14 0
BBX 14 14 0 -2
BITMAP
2010
1398
1294
4394
201c
2ff0
0294
1394
1298
2398
2290
43d4
4eac
4084
ENDCHAR
STARTCHAR 02-79-35
ENCODING 28483
SWIDTH 960 0
DWIDTH 14 0
BBX 14 14 0 -2
BITMAP
2048
1048
1e90
4afc
2b90
2e90
0af8
1a90
1e90
2af8
2a90
4e90
4afc
4080
ENDCHAR
STARTCHAR 02-79-36
ENCODING 28484
SWIDTH 960 0
DWIDTH 14 0
BBX 14 14 0 -2
BITMAP
1110
0db4
0bb8
4158
2294
24a4
07fc
0c48
0bf8
10e0
1150
2248
2444
2040
ENDCHAR
STARTCHAR 02-79-37
ENCODING 28485
SWIDTH 960 0
DWIDTH 14 0
BBX 14 14 0 -2
BITMAP
1040
09f0
0910
41f0
21f0
21f0
03f8
0a48
0bf8
13f8
1000
27fc
2110
2210
ENDCHAR
STARTCHAR 02-79-38
ENCODING 28486
SWIDTH 960 0
DWIDTH 14 0
BBX 14 14 0 -2
BITMAP
1110
0ffc
0930
41fc
2320
25f8
01f8
0920
09fc
13f8
1090
2060
20f0
270c
ENDCHAR
STARTCHAR 02-79-39
ENCODING 28487
SWIDTH 960 0
DWIDTH 14 0
BBX 14 14 0 -2
BITMAP
2008
1788
1490
4790
24a4
2788
0208
1fd0
17a4
2484
2788
4588
5950
4320
ENDCHAR
STARTCHAR 02-79-40
ENCODING 28488
SWIDTH 960 0
DWIDTH 14 0
BBX 14 14 0 -2
BITMAP
1248
0a88
0cf0
45b4
22e8
22a8
05b4
0ffc
0840
17fc
10e0
2150
264c
2040
ENDCHAR
STARTCHAR 02-79-41
ENCODING 28489
SWIDTH 960 0
DWIDTH 14 0
BBX 14 14 0 -2
BITMAP
1000
0ffc
0840
41f0
21f0
21f0
07fc
0f58
0ae8
14f4
11a0
2640
21b0
2e0c
ENDCHAR
STARTCHAR 02-79-42
ENCODING 28490
SWIDTH 960 0
DWIDTH 14 0
BBX 14 14 0 -2
BITMAP
1020
0bfc
0a50
43fc
2250
2270
03fc
0af8
0aa8
12f8
12a8
24f8
24c8
2b04
ENDCHAR
STARTCHAR 02-79-43
ENCODING 28491
SWIDTH 960 0
DWIDTH 14 0
BBX 14 14 0 -2
BITMAP
2200
1fb0
1cb4
4acc
2ff8
2aa8
0ab0
11cc
17f0
2550
2550
4550
5ffc
4000
ENDCHAR
STARTCHAR 02-79-44
ENCODING 28492
SWIDTH 960 0
DWIDTH 14 0
BBX 14 14 0 -2
BITMAP
1100
09fc
0924
43a8
2290
25ac
0100
0aa0
0bb8
13b8
10a0
23b8
20a0
27fc
ENDCHAR
STARTCHAR 02-79-45
ENCODING 28493
SWIDTH 960 0
DWIDTH 14 0
BBX 14 14 0 -2
BITMAP
2000
1f78
1948
4f78
2948
2f78
0a28
19c8
1df8
2a48
29e8
4aa8
4ce8
4818
ENDCHAR
STARTCHAR 02-79-46
ENCODING 28494
SWIDTH 960 0
DWIDTH 14 0
BBX 14 14 0 -2
BITMAP
1040
08a0
0910
43f8
2404
27fc
05b4
0ffc
0800
13f8
12a8
23f8
22a8
22b8
ENDCHAR
STARTCHAR 02-79-47
ENCODING 28495
SWIDTH 960 0
DWIDTH 14 0
BBX 14 14 0 -2
BITMAP
10f0
0920
0ff8
4488
27f8
23b0
03e4
0e5c
09e0
13f0
1690
23f4
214c
263c
ENDCHAR
STARTCHAR 02-79-48
ENCODING 28496
SWIDTH 960 0
DWIDTH 14 0
BBX 14 14 0 -2
BITMAP
1040
0ffc
0bb8
42a8
23b8
20a0
03f8
09f0
08a0
17fc
10c8
2730
21d0
270c
ENDCHAR
STARTCHAR 02-79-49
ENCODING 28497
SWIDTH 960 0
DWIDTH 14 0
BBX 14 14 0 -2
BITMAP
2aa8
1ff8
1aa8
4ff8
2ff8
2aa8
0ff8
1ffc
13f0
2210
23f0
4120
4ffc
4000
ENDCHAR
STARTCHAR 02-79-50
ENCODING 28498
SWIDTH 960 0
DWIDTH 14 0
BBX 14 14 0 -2
BITMAP
1140
0d48
0b50
47fc
2220
27f8
03f0
0ffc
0f80
17f8
17c8
24b0
27b0
28cc
ENDCHAR
STARTCHAR 02-79-51
ENCODING 28499
SWIDTH 960 0
DWIDTH 14 0
BBX 14 14 0 -2
BITMAP
2040
17fc
14a0
47f8
27f8
25fc
0554
15ac
164c
25f0
2440
4bf8
4890
53f8
ENDCHAR
STARTCHAR 02-79-52
ENCODING 28500
SWIDTH 960 0
DWIDTH 14 0
BBX 14 14 0 -2
BITMAP
2000
1ffc
17f8
4548
27f8
2500
0ff8
1728
1fb8
2aa8
2fb8
4fe8
4228
4258
ENDCHAR
STARTCHAR 02-79-53
ENCODING 28501
SWIDTH 960 0
DWIDTH 14 0
BBX 14 14 0 -2
BITMAP
2b50
1ffc
1b48
4fd0
2ffc
2b74
0ff4
1034
1ffc
27a0
24a0
47a4
45e4
5e1c
ENDCHAR
STARTCHAR 02-79-54
ENCODING 28502
SWIDTH 960 0
DWIDTH 14 0
BBX 14 14 0 -2
BITMAP
0100
0fe0
0fe0
0fe8
3f90
0d60
731c
0820
3ef8
3ef8
3ffc
7ae8
2cb0
5b6c
ENDCHAR
STARTCHAR 02-79-55
ENCODING 28503
SWIDTH 960 0
DWIDTH 14 0
BBX 14 14 0 -2
BITMAP
2b50
1fd0
1b7c
4fd0
2ffc
2b60
0fe8
1034
1fc0
27bc
24b4
47b4
45f4
5e7c
ENDCHAR
STARTCHAR 02-79-56
ENCODING 28504
SWIDTH 960 0
DWIDTH 14 0
BBX 14 14 0 -2
BITMAP
0000
0000
0000
0000
0000
1490
1248
1248
2124
4124
0000
0000
0000
0000
ENDCHAR
STARTCHAR 02-79-57
ENCODING 28505
SWIDTH 960 0
DWIDTH 14 0
BBX 14 14 0 -2
BITMAP
0100
1110
1110
22a0
0440
1830
648c
0480
0480
0880
0880
1084
2084
407c
ENDCHAR
STARTCHAR 02-79-58
ENCODING 28506
SWIDTH 960 0
DWIDTH 14 0
BBX 14 14 0 -2
BITMAP
0820
0820
0820
0a20
2a20
2cf8
2820
4820
0820
0c20
1220
1220
21fc
4000
ENDCHAR
STARTCHAR 02-79-59
ENCODING 28507
SWIDTH 960 0
DWIDTH 14 0
BBX 14 14 0 -2
BITMAP
0100
0100
3ffc
2008
4100
0110
1110
1110
1320
22c0
0440
0820
1010
600c
ENDCHAR
STARTCHAR 02-79-60
ENCODING 28508
SWIDTH 960 0
DWIDTH 14 0
BBX 14 14 0 -2
BITMAP
0000
1ff8
1100
1100
7ffc
0100
0280
0484
1884
607c
0000
2488
2244
4244
ENDCHAR
STARTCHAR 02-79-61
ENCODING 28509
SWIDTH 960 0
DWIDTH 14 0
BBX 14 14 0 -2
BITMAP
0820
0820
0820
0bfc
2a90
2c90
2890
4950
0960
0c20
1260
1250
2088
4104
ENDCHAR
STARTCHAR 02-79-62
ENCODING 28510
SWIDTH 960 0
DWIDTH 14 0
BBX 14 14 0 -2
BITMAP
0840
0840
0840
0bfc
2a00
2cf0
2890
4890
0890
0c90
1290
1314
2114
420c
ENDCHAR
STARTCHAR 02-79-63
ENCODING 28511
SWIDTH 960 0
DWIDTH 14 0
BBX 14 14 0 -2
BITMAP
0440
0440
7ffc
0440
0440
07c0
0100
0100
1110
1110
22a0
0440
1830
600c
ENDCHAR
STARTCHAR 02-79-64
ENCODING 28512
SWIDTH 960 0
DWIDTH 14 0
BBX 14 14 0 -2
BITMAP
0800
09fc
0840
0a40
2a40
2c80
28f8
4988
0a88
0c88
1288
1288
20f8
4088
ENDCHAR
STARTCHAR 02-79-65
ENCODING 28513
SWIDTH 960 0
DWIDTH 14 0
BBX 14 14 0 -2
BITMAP
0800
09f8
0908
0b08
2be8
2d28
2928
4928
09e8
0d28
1308
1308
21f8
4108
ENDCHAR
STARTCHAR 02-79-66
ENCODING 28514
SWIDTH 960 0
DWIDTH 14 0
BBX 14 14 0 -2
BITMAP
0800
08f0
0890
0a90
2a90
2cf0
2890
4890
0890
0cf0
1290
1200
23fc
4000
ENDCHAR
STARTCHAR 02-79-67
ENCODING 28515
SWIDTH 960 0
DWIDTH 14 0
BBX 14 14 0 -2
BITMAP
0200
0240
0430
7fe8
0004
0fe0
0820
0820
0fe0
0100
0910
12a0
0c60
701c
ENDCHAR
STARTCHAR 02-79-68
ENCODING 28516
SWIDTH 960 0
DWIDTH 14 0
BBX 14 14 0 -2
BITMAP
0000
0820
0a28
2aa8
2cb0
4930
1448
2288
0000
3ffc
2008
4000
0000
0000
ENDCHAR
STARTCHAR 02-79-69
ENCODING 28517
SWIDTH 960 0
DWIDTH 14 0
BBX 14 14 0 -2
BITMAP
0800
09f8
0908
0b08
2bf8
2d28
2920
4990
0950
0d48
1204
12c0
2020
4010
ENDCHAR
STARTCHAR 02-79-70
ENCODING 28518
SWIDTH 960 0
DWIDTH 14 0
BBX 14 14 0 -2
BITMAP
0888
0848
0850
0bfc
2a20
2c20
28f8
4820
0820
0dfc
1220
1220
2020
4020
ENDCHAR
STARTCHAR 02-79-71
ENCODING 28519
SWIDTH 960 0
DWIDTH 14 0
BBX 14 14 0 -2
BITMAP
0850
0850
0854
0b54
2ad8
2cd0
2850
48d8
0954
0c54
1290
1294
2114
420c
ENDCHAR
STARTCHAR 02-79-72
ENCODING 28520
SWIDTH 960 0
DWIDTH 14 0
BBX 14 14 0 -2
BITMAP
0840
0840
09f8
0a40
2a40
2ffc
2840
4840
09f8
0c40
1240
1240
23fc
4000
ENDCHAR
STARTCHAR 02-79-73
ENCODING 28521
SWIDTH 960 0
DWIDTH 14 0
BBX 14 14 0 -2
BITMAP
0800
0bfc
0800
0af0
2a90
2c90
28f0
4890
0890
0cf0
1290
1200
23fc
4000
ENDCHAR
STARTCHAR 02-79-74
ENCODING 28522
SWIDTH 960 0
DWIDTH 14 0
BBX 14 14 0 -2
BITMAP
0820
0820
08f8
0a20
2a20
2dfc
2850
48d0
08d8
0d54
1254
1290
2090
4130
ENDCHAR
STARTCHAR 02-79-75
ENCODING 28523
SWIDTH 960 0
DWIDTH 14 0
BBX 14 14 0 -2
BITMAP
0000
1fe0
0220
7ffc
0220
1fe0
0400
0ff0
1410
67f0
0410
2488
2244
4244
ENDCHAR
STARTCHAR 02-79-76
ENCODING 28524
SWIDTH 960 0
DWIDTH 14 0
BBX 14 14 0 -2
BITMAP
0800
08f8
0888
0a88
2af8
2c00
28f8
4888
08f8
0c88
12f8
1288
2088
4098
ENDCHAR
STARTCHAR 02-79-77
ENCODING 28525
SWIDTH 960 0
DWIDTH 14 0
BBX 14 14 0 -2
BITMAP
0840
08d0
08c8
0b44
2a44
2df8
2908
49f8
0908
0df8
1308
1308
2108
4118
ENDCHAR
STARTCHAR 02-79-78
ENCODING 28526
SWIDTH 960 0
DWIDTH 14 0
BBX 14 14 0 -2
BITMAP
0600
38f8
2088
3ef8
2288
3e84
207c
4100
1110
1110
22a0
0440
1830
600c
ENDCHAR
STARTCHAR 02-79-79
ENCODING 28527
SWIDTH 960 0
DWIDTH 14 0
BBX 14 14 0 -2
BITMAP
0840
0850
0888
0bfc
2aa4
2ca4
299c
4af0
0890
0d90
1260
1260
2190
420c
ENDCHAR
STARTCHAR 02-79-80
ENCODING 28528
SWIDTH 960 0
DWIDTH 14 0
BBX 14 14 0 -2
BITMAP
0820
2aa8
2cb0
4930
1448
2288
3ff0
0010
0210
0210
1fd4
020c
020c
0204
ENDCHAR
STARTCHAR 02-79-81
ENCODING 28529
SWIDTH 960 0
DWIDTH 14 0
BBX 14 14 0 -2
BITMAP
0820
0820
083c
0a20
2af8
2c88
28f8
4888
08f8
0c20
13fc
1220
2020
4020
ENDCHAR
STARTCHAR 02-79-82
ENCODING 28530
SWIDTH 960 0
DWIDTH 14 0
BBX 14 14 0 -2
BITMAP
0100
1110
1110
22a0
0440
1830
600c
0820
0820
2aa8
2cb0
4930
1448
6284
ENDCHAR
STARTCHAR 02-79-83
ENCODING 28531
SWIDTH 960 0
DWIDTH 14 0
BBX 14 14 0 -2
BITMAP
0890
0890
0bfc
0a90
2a40
2df8
2948
4948
0bfc
0c40
1260
1290
2108
4204
ENDCHAR
STARTCHAR 02-79-84
ENCODING 28532
SWIDTH 960 0
DWIDTH 14 0
BBX 14 14 0 -2
BITMAP
0840
0840
09fc
0b08
2af8
2c00
28f0
4890
08f0
0c90
12f0
1200
23fc
4000
ENDCHAR
STARTCHAR 02-79-85
ENCODING 28533
SWIDTH 960 0
DWIDTH 14 0
BBX 14 14 0 -2
BITMAP
0840
0948
0948
0bf8
2a00
2dfc
2840
49f8
0968
0d68
1368
1368
2168
4118
ENDCHAR
STARTCHAR 02-79-86
ENCODING 28534
SWIDTH 960 0
DWIDTH 14 0
BBX 14 14 0 -2
BITMAP
1020
1f20
223c
4448
3ec8
0330
0210
7f90
0228
0244
3e84
2488
2244
4244
ENDCHAR
STARTCHAR 02-79-87
ENCODING 28535
SWIDTH 960 0
DWIDTH 14 0
BBX 14 14 0 -2
BITMAP
0818
09e4
0a44
0b28
2b30
2c00
2978
4948
0948
0d78
1348
1348
2178
4148
ENDCHAR
STARTCHAR 02-79-88
ENCODING 28536
SWIDTH 960 0
DWIDTH 14 0
BBX 14 14 0 -2
BITMAP
0818
09f0
0948
0b24
2a24
2c00
2840
49b8
0908
0d08
13b8
1308
2108
41f8
ENDCHAR
STARTCHAR 02-79-89
ENCODING 28537
SWIDTH 960 0
DWIDTH 14 0
BBX 14 14 0 -2
BITMAP
0800
09f8
0908
0bf8
2b08
2df8
2948
48d0
09fc
0ca0
12a0
12a4
2124
421c
ENDCHAR
STARTCHAR 02-79-90
ENCODING 28538
SWIDTH 960 0
DWIDTH 14 0
BBX 14 14 0 -2
BITMAP
0800
09fc
0850
0bfc
2b54
2dfc
2800
48f8
0800
0ffc
14b0
1528
2228
4060
ENDCHAR
STARTCHAR 02-79-91
ENCODING 28539
SWIDTH 960 0
DWIDTH 14 0
BBX 14 14 0 -2
BITMAP
0800
0bfc
0954
0aec
2b54
2c64
28cc
49f8
0908
0df8
1308
1308
21f8
4108
ENDCHAR
STARTCHAR 02-79-92
ENCODING 28540
SWIDTH 960 0
DWIDTH 14 0
BBX 14 14 0 -2
BITMAP
1220
1138
10c8
1630
35e8
3824
37f8
5120
11f8
1920
15fc
2520
22e0
443c
ENDCHAR
STARTCHAR 02-79-93
ENCODING 28541
SWIDTH 960 0
DWIDTH 14 0
BBX 14 14 0 -2
BITMAP
1000
17f8
1198
16a8
35d8
3aa8
30c8
5120
1250
1dac
1448
2590
2060
4380
ENDCHAR
STARTCHAR 02-79-94
ENCODING 28542
SWIDTH 960 0
DWIDTH 14 0
BBX 14 14 0 -2
BITMAP
0890
0bfc
0890
0af0
2bf8
2d48
29f8
4840
09f8
0c40
13fc
1260
2090
430c
ENDCHAR
STARTCHAR 02-80-01
ENCODING 28705
SWIDTH 960 0
DWIDTH 14 0
BBX 14 14 0 -2
BITMAP
0800
09f0
0910
0bf0
2b10
2df0
2bf8
4aa8
0bf8
0ff8
1290
1260
21b0
460c
ENDCHAR
STARTCHAR 02-80-02
ENCODING 28706
SWIDTH 960 0
DWIDTH 14 0
BBX 14 14 0 -2
BITMAP
0830
7f28
3ffc
2220
3e60
0860
2aa4
591c
0100
0910
0910
12a0
0c60
701c
ENDCHAR
STARTCHAR 02-80-03
ENCODING 28707
SWIDTH 960 0
DWIDTH 14 0
BBX 14 14 0 -2
BITMAP
0890
0890
08a0
0bfc
2b20
2df8
2920
49f8
0920
0dfc
1200
13a8
2154
4204
ENDCHAR
STARTCHAR 02-80-04
ENCODING 28708
SWIDTH 960 0
DWIDTH 14 0
BBX 14 14 0 -2
BITMAP
1090
1090
7f7c
1190
3ab8
34b8
5354
5194
1310
0910
0910
12a0
0c60
701c
ENDCHAR
STARTCHAR 02-80-05
ENCODING 28709
SWIDTH 960 0
DWIDTH 14 0
BBX 14 14 0 -2
BITMAP
11f0
0910
41f0
2110
01f0
0ffc
1100
13fc
24a4
2158
0910
12a0
0c60
701c
ENDCHAR
STARTCHAR 02-80-06
ENCODING 28710
SWIDTH 960 0
DWIDTH 14 0
BBX 14 14 0 -2
BITMAP
1000
13b8
12a8
17b8
36a8
3bb8
3288
5248
12e8
1b98
17b8
26a8
2268
4218
ENDCHAR
STARTCHAR 02-80-07
ENCODING 28711
SWIDTH 960 0
DWIDTH 14 0
BBX 14 14 0 -2
BITMAP
0440
7ffc
0440
0840
3ef0
7f50
12d0
2b50
7e70
0894
7f0c
2488
2244
4244
ENDCHAR
STARTCHAR 02-80-08
ENCODING 28712
SWIDTH 960 0
DWIDTH 14 0
BBX 14 14 0 -2
BITMAP
1110
1110
13bc
1550
3488
3fbc
34a4
57a4
17a4
1c24
17a4
2438
24a0
43a0
ENDCHAR
STARTCHAR 02-80-09
ENCODING 28713
SWIDTH 960 0
DWIDTH 14 0
BBX 14 14 0 -2
BITMAP
0000
0000
0030
00c0
1f00
0010
0210
2110
1120
0920
0840
0000
0000
0000
ENDCHAR
STARTCHAR 02-80-10
ENCODING 28714
SWIDTH 960 0
DWIDTH 14 0
BBX 14 14 0 -2
BITMAP
0000
0000
0010
00e0
1f40
0a20
0910
1110
1088
2088
0000
0000
0000
0000
ENDCHAR
STARTCHAR 02-80-11
ENCODING 28715
SWIDTH 960 0
DWIDTH 14 0
BBX 14 14 0 -2
BITMAP
0004
7f18
4778
4558
7f58
4558
7d58
6f58
7f58
4d58
7758
4b5c
7f5c
4194
ENDCHAR
STARTCHAR 02-80-12
ENCODING 28716
SWIDTH 960 0
DWIDTH 14 0
BBX 14 14 0 -2
BITMAP
02c0
0c30
3248
0180
0660
781c
1ff0
1110
1110
1ff0
1010
1004
1004
0ffc
ENDCHAR
STARTCHAR 02-80-13
ENCODING 28717
SWIDTH 960 0
DWIDTH 14 0
BBX 14 14 0 -2
BITMAP
02c0
0c30
3248
0180
0660
791c
03c0
0e40
0180
3e70
0190
0f20
01c0
3e00
ENDCHAR
STARTCHAR 02-80-14
ENCODING 28718
SWIDTH 960 0
DWIDTH 14 0
BBX 14 14 0 -2
BITMAP
0040
0040
0440
0240
0240
00c0
00c0
0140
0140
0240
0440
0840
0040
0040
ENDCHAR
STARTCHAR 02-80-15
ENCODING 28719
SWIDTH 960 0
DWIDTH 14 0
BBX 14 14 0 -2
BITMAP
0510
2490
24a0
27fc
3c40
2440
05f8
7c40
1440
17fc
1440
2440
2440
4440
ENDCHAR
STARTCHAR 02-80-16
ENCODING 28720
SWIDTH 960 0
DWIDTH 14 0
BBX 14 14 0 -2
BITMAP
2420
2420
25fc
2488
3e50
21fc
2124
3ffc
2440
2478
2488
2488
2508
4630
ENDCHAR
STARTCHAR 02-80-17
ENCODING 28721
SWIDTH 960 0
DWIDTH 14 0
BBX 14 14 0 -2
BITMAP
2820
29fc
2920
29f8
3d28
21fc
21f8
3920
29f8
29a8
2af8
2af8
2ca8
48b8
ENDCHAR
STARTCHAR 02-80-18
ENCODING 28722
SWIDTH 960 0
DWIDTH 14 0
BBX 14 14 0 -2
BITMAP
0800
09f8
2848
2848
3d48
2948
2948
4a48
0c48
7848
0888
0888
0908
0a30
ENDCHAR
STARTCHAR 02-80-19
ENCODING 28723
SWIDTH 960 0
DWIDTH 14 0
BBX 14 14 0 -2
BITMAP
0000
3ff8
1188
1290
0c60
1290
610c
1100
1100
1ff8
2100
7ffc
0100
0100
ENDCHAR
STARTCHAR 02-80-20
ENCODING 28724
SWIDTH 960 0
DWIDTH 14 0
BBX 14 14 0 -2
BITMAP
0890
0888
10fc
17c0
3040
5024
1014
110c
1100
1ff8
2100
7ffc
0100
0100
ENDCHAR
STARTCHAR 02-80-21
ENCODING 28725
SWIDTH 960 0
DWIDTH 14 0
BBX 14 14 0 -2
BITMAP
0820
0820
2820
29fc
3e20
2820
2820
48f8
0e88
7888
0888
0888
08f8
0888
ENDCHAR
STARTCHAR 02-80-22
ENCODING 28726
SWIDTH 960 0
DWIDTH 14 0
BBX 14 14 0 -2
BITMAP
0820
0820
29fc
2908
3ef8
2810
2820
4820
0dfc
7820
0820
0820
0820
0860
ENDCHAR
STARTCHAR 02-80-23
ENCODING 28727
SWIDTH 960 0
DWIDTH 14 0
BBX 14 14 0 -2
BITMAP
0840
0940
2940
29f8
3e40
2840
2bfc
4840
0ff8
7908
0908
0908
09f8
0908
ENDCHAR
STARTCHAR 02-80-24
ENCODING 28728
SWIDTH 960 0
DWIDTH 14 0
BBX 14 14 0 -2
BITMAP
0810
3e10
09fc
7f10
0890
3e50
0e10
7830
1100
1ff8
2100
7ffc
0100
0100
ENDCHAR
STARTCHAR 02-80-25
ENCODING 28729
SWIDTH 960 0
DWIDTH 14 0
BBX 14 14 0 -2
BITMAP
1040
1040
14a0
2290
7ff8
2a04
29f8
3e20
4840
09f0
7f10
0910
09f0
0910
ENDCHAR
STARTCHAR 02-80-26
ENCODING 28730
SWIDTH 960 0
DWIDTH 14 0
BBX 14 14 0 -2
BITMAP
0020
0c20
0240
0180
0180
0680
1840
00c0
0140
0640
1840
0040
0780
0100
ENDCHAR
STARTCHAR 02-80-27
ENCODING 28731
SWIDTH 960 0
DWIDTH 14 0
BBX 14 14 0 -2
BITMAP
0220
0210
0210
7ffc
0200
0220
0420
0640
0a40
0980
1080
2140
4630
180c
ENDCHAR
STARTCHAR 02-80-28
ENCODING 28732
SWIDTH 960 0
DWIDTH 14 0
BBX 14 14 0 -2
BITMAP
0900
4900
3100
1100
31e0
4f20
0920
1920
2920
4920
0a24
0a24
3224
141c
ENDCHAR
STARTCHAR 02-80-29
ENCODING 28733
SWIDTH 960 0
DWIDTH 14 0
BBX 14 14 0 -2
BITMAP
0880
4880
3080
13f0
3090
4a90
0990
1890
2890
4950
0950
0914
3214
140c
ENDCHAR
STARTCHAR 02-80-30
ENCODING 28734
SWIDTH 960 0
DWIDTH 14 0
BBX 14 14 0 -2
BITMAP
0880
48a0
3110
1238
37e4
48a0
08a0
18a0
28a0
4920
0920
0924
3224
141c
ENDCHAR
STARTCHAR 02-80-31
ENCODING 28735
SWIDTH 960 0
DWIDTH 14 0
BBX 14 14 0 -2
BITMAP
0840
484c
3070
17c0
3048
4a48
0a48
1a48
2bf8
4a48
0840
0844
3044
103c
ENDCHAR
STARTCHAR 02-80-32
ENCODING 28736
SWIDTH 960 0
DWIDTH 14 0
BBX 14 14 0 -2
BITMAP
0840
4940
3140
13f8
3240
4c40
0840
1bf8
2840
4840
0840
0840
37fc
1000
ENDCHAR
STARTCHAR 02-80-33
ENCODING 28737
SWIDTH 960 0
DWIDTH 14 0
BBX 14 14 0 -2
BITMAP
0800
4bf8
3088
1088
3088
4908
0930
1a00
29f8
4908
0908
0908
31f8
1108
ENDCHAR
STARTCHAR 02-80-34
ENCODING 28738
SWIDTH 960 0
DWIDTH 14 0
BBX 14 14 0 -2
BITMAP
0840
4840
3040
1040
33f8
4a48
0a48
1a48
2bf8
4a48
0a48
0a48
33f8
1208
ENDCHAR
STARTCHAR 02-80-35
ENCODING 28739
SWIDTH 960 0
DWIDTH 14 0
BBX 14 14 0 -2
BITMAP
0840
4840
30a0
1110
3208
4df4
0840
1bfc
2840
4950
0948
0a44
3444
10c0
ENDCHAR
STARTCHAR 02-80-36
ENCODING 28740
SWIDTH 960 0
DWIDTH 14 0
BBX 14 14 0 -2
BITMAP
0800
48f0
3000
13fc
3000
49f8
0800
19f8
2800
49f8
0908
0908
31f8
1108
ENDCHAR
STARTCHAR 02-80-37
ENCODING 28741
SWIDTH 960 0
DWIDTH 14 0
BBX 14 14 0 -2
BITMAP
0840
4878
3040
13fc
3248
4a78
0bc8
1a38
2aa0
4aa0
0aa0
0ca4
3524
1a1c
ENDCHAR
STARTCHAR 02-80-38
ENCODING 28742
SWIDTH 960 0
DWIDTH 14 0
BBX 14 14 0 -2
BITMAP
0020
7e28
4224
7e24
43fc
7e20
3c20
2430
3c50
2450
3c88
2488
2504
2e04
ENDCHAR
STARTCHAR 02-80-39
ENCODING 28743
SWIDTH 960 0
DWIDTH 14 0
BBX 14 14 0 -2
BITMAP
1104
5514
37d4
2514
3114
57f4
1114
17d4
3554
3554
5554
1584
1504
610c
ENDCHAR
STARTCHAR 02-80-40
ENCODING 28744
SWIDTH 960 0
DWIDTH 14 0
BBX 14 14 0 -2
BITMAP
0818
4bf0
3248
1244
3404
4bf8
0848
1ffc
2848
4bf8
0848
0840
3040
10c0
ENDCHAR
STARTCHAR 02-80-41
ENCODING 28745
SWIDTH 960 0
DWIDTH 14 0
BBX 14 14 0 -2
BITMAP
0890
4890
33fc
1090
3100
49f8
0a08
1de8
2928
4928
09e8
0928
3008
1030
ENDCHAR
STARTCHAR 02-80-42
ENCODING 28746
SWIDTH 960 0
DWIDTH 14 0
BBX 14 14 0 -2
BITMAP
0840
4840
37fc
10e0
3150
4a48
0df4
1910
29f0
4910
09f0
0910
37fc
1000
ENDCHAR
STARTCHAR 02-80-43
ENCODING 28747
SWIDTH 960 0
DWIDTH 14 0
BBX 14 14 0 -2
BITMAP
0800
4bf8
3248
13f8
3248
4bf8
0800
19f0
2910
49f0
0910
09f0
3110
1130
ENDCHAR
STARTCHAR 02-80-44
ENCODING 28748
SWIDTH 960 0
DWIDTH 14 0
BBX 14 14 0 -2
BITMAP
0800
4bf0
30a0
1040
37fc
48c8
0b50
1cc0
2840
4ffc
08e0
0950
364c
1040
ENDCHAR
STARTCHAR 02-80-45
ENCODING 28749
SWIDTH 960 0
DWIDTH 14 0
BBX 14 14 0 -2
BITMAP
1000
57b8
2488
2488
37b8
5488
1400
3778
3448
5428
1730
1410
1428
64c4
ENDCHAR
STARTCHAR 02-80-46
ENCODING 28750
SWIDTH 960 0
DWIDTH 14 0
BBX 14 14 0 -2
BITMAP
0800
4bfc
3208
15f0
3110
49f0
0910
19f0
2840
4ffc
0800
0890
3108
1608
ENDCHAR
STARTCHAR 02-80-47
ENCODING 28751
SWIDTH 960 0
DWIDTH 14 0
BBX 14 14 0 -2
BITMAP
0840
3e40
087c
7fd0
0850
7f30
1e30
2248
4da4
0110
7ffc
0280
0c60
701c
ENDCHAR
STARTCHAR 02-80-48
ENCODING 28752
SWIDTH 960 0
DWIDTH 14 0
BBX 14 14 0 -2
BITMAP
0830
4be0
3290
1448
33f0
4a10
0bf8
1a08
2a08
4bfc
0d54
0eac
3284
1418
ENDCHAR
STARTCHAR 02-80-49
ENCODING 28753
SWIDTH 960 0
DWIDTH 14 0
BBX 14 14 0 -2
BITMAP
0840
4840
30a0
1110
33f8
4c04
0bb8
1aa8
2aa8
4bb8
0910
0998
3264
1444
ENDCHAR
STARTCHAR 02-80-50
ENCODING 28754
SWIDTH 960 0
DWIDTH 14 0
BBX 14 14 0 -2
BITMAP
1200
53bc
2494
2d14
37ac
55c0
15bc
37d0
3590
57fc
1490
1490
1490
6990
ENDCHAR
STARTCHAR 02-80-51
ENCODING 28755
SWIDTH 960 0
DWIDTH 14 0
BBX 14 14 0 -2
BITMAP
0800
49f0
3110
11f0
3000
4bbc
0aa4
1bbc
2840
4ffc
08e0
0950
364c
1040
ENDCHAR
STARTCHAR 02-80-52
ENCODING 28756
SWIDTH 960 0
DWIDTH 14 0
BBX 14 14 0 -2
BITMAP
0800
4ffc
3150
164c
33f8
4ad8
0bf8
1ad8
2b68
4ad8
0bf8
0ad8
3368
1258
ENDCHAR
STARTCHAR 02-80-53
ENCODING 28757
SWIDTH 960 0
DWIDTH 14 0
BBX 14 14 0 -2
BITMAP
0818
4be0
3040
17fc
33f8
4b58
0ae8
1bf8
2840
4bf8
0840
0ffc
32a8
1454
ENDCHAR
STARTCHAR 02-80-54
ENCODING 28758
SWIDTH 960 0
DWIDTH 14 0
BBX 14 14 0 -2
BITMAP
0840
4bfc
3208
15f8
3150
4a60
09f8
1f08
29f8
49f8
0908
09f8
3090
130c
ENDCHAR
STARTCHAR 02-80-55
ENCODING 28759
SWIDTH 960 0
DWIDTH 14 0
BBX 14 14 0 -2
BITMAP
0820
4bfc
3250
13fc
3250
4a70
0bfc
1af8
2aa8
4af8
0aa8
0af8
34c8
1b04
ENDCHAR
STARTCHAR 02-80-56
ENCODING 28760
SWIDTH 960 0
DWIDTH 14 0
BBX 14 14 0 -2
BITMAP
13b8
52a8
23b8
2000
37fc
57a0
1520
37fc
36e8
57a8
1790
16d0
1fa8
68c4
ENDCHAR
STARTCHAR 02-80-57
ENCODING 28761
SWIDTH 960 0
DWIDTH 14 0
BBX 14 14 0 -2
BITMAP
0820
0820
7f20
08b0
12a8
62a8
24a4
152c
0928
1070
1410
2420
7ac0
0300
ENDCHAR
STARTCHAR 02-80-58
ENCODING 28762
SWIDTH 960 0
DWIDTH 14 0
BBX 14 14 0 -2
BITMAP
0000
3ff8
0100
0120
0110
0110
1ff0
0100
0100
0100
0100
0100
7ffc
0000
ENDCHAR
STARTCHAR 02-80-59
ENCODING 28763
SWIDTH 960 0
DWIDTH 14 0
BBX 14 14 0 -2
BITMAP
0008
0108
7d48
1148
1148
1148
7d48
1148
1148
1148
1d48
6208
0208
0008
ENDCHAR
STARTCHAR 02-80-60
ENCODING 28764
SWIDTH 960 0
DWIDTH 14 0
BBX 14 14 0 -2
BITMAP
0000
01f8
7c08
1008
1008
1008
7df8
1108
1100
1100
1d00
6104
0104
00fc
ENDCHAR
STARTCHAR 02-80-61
ENCODING 28765
SWIDTH 960 0
DWIDTH 14 0
BBX 14 14 0 -2
BITMAP
0070
0010
7d10
1110
1110
1208
7e48
1044
1040
10a0
1c90
6118
07e4
0004
ENDCHAR
STARTCHAR 02-80-62
ENCODING 28766
SWIDTH 960 0
DWIDTH 14 0
BBX 14 14 0 -2
BITMAP
0040
0040
7c40
13f8
1040
1040
7c40
13fc
1040
10a0
1ca0
6110
0208
0c04
ENDCHAR
STARTCHAR 02-80-63
ENCODING 28767
SWIDTH 960 0
DWIDTH 14 0
BBX 14 14 0 -2
BITMAP
0000
00f8
7c88
1088
1088
10f8
7c88
1088
1088
10f8
1d08
6108
0208
0418
ENDCHAR
STARTCHAR 02-80-64
ENCODING 28768
SWIDTH 960 0
DWIDTH 14 0
BBX 14 14 0 -2
BITMAP
0000
03fc
7c40
1040
1040
1040
7df8
1040
1040
1040
1c40
6040
03fc
0000
ENDCHAR
STARTCHAR 02-80-65
ENCODING 28769
SWIDTH 960 0
DWIDTH 14 0
BBX 14 14 0 -2
BITMAP
0110
0110
7d10
1110
17fc
1110
7d10
1110
11f0
1110
1d10
6110
01f0
0110
ENDCHAR
STARTCHAR 02-80-66
ENCODING 28770
SWIDTH 960 0
DWIDTH 14 0
BBX 14 14 0 -2
BITMAP
0040
0040
7c40
107c
1040
1040
7c40
11f8
1108
1108
1d08
6108
01f8
0108
ENDCHAR
STARTCHAR 02-80-67
ENCODING 28771
SWIDTH 960 0
DWIDTH 14 0
BBX 14 14 0 -2
BITMAP
0040
0040
7ffc
1040
1048
1388
7c90
1050
1020
1020
1c50
6088
03f4
0004
ENDCHAR
STARTCHAR 02-80-68
ENCODING 28772
SWIDTH 960 0
DWIDTH 14 0
BBX 14 14 0 -2
BITMAP
00a0
00a0
7ca0
10a4
12a4
12e8
7eb0
12a0
12a0
12a0
1ea0
62e4
0324
061c
ENDCHAR
STARTCHAR 02-80-69
ENCODING 28773
SWIDTH 960 0
DWIDTH 14 0
BBX 14 14 0 -2
BITMAP
0000
03f8
7c88
1088
1088
1108
7d30
1200
11f8
1108
1d08
6108
01f8
0108
ENDCHAR
STARTCHAR 02-80-70
ENCODING 28774
SWIDTH 960 0
DWIDTH 14 0
BBX 14 14 0 -2
BITMAP
0040
0040
7c40
13f8
1248
1248
7ff8
1248
1248
13f8
1e48
6040
0040
0040
ENDCHAR
STARTCHAR 02-80-71
ENCODING 28775
SWIDTH 960 0
DWIDTH 14 0
BBX 14 14 0 -2
BITMAP
0040
0080
7f38
12a8
12a8
12a8
7ea8
12a8
12a8
13a8
1cb8
6120
0120
0220
ENDCHAR
STARTCHAR 02-80-72
ENCODING 28776
SWIDTH 960 0
DWIDTH 14 0
BBX 14 14 0 -2
BITMAP
0000
3ef8
0820
3ef8
0820
0820
0ffc
7900
0100
0280
0280
0440
1830
600c
ENDCHAR
STARTCHAR 02-80-73
ENCODING 28777
SWIDTH 960 0
DWIDTH 14 0
BBX 14 14 0 -2
BITMAP
00a0
00a0
7ca8
12a8
11b0
11a0
7cb0
11a8
12a4
10a4
1d20
6124
0224
041c
ENDCHAR
STARTCHAR 02-80-74
ENCODING 28778
SWIDTH 960 0
DWIDTH 14 0
BBX 14 14 0 -2
BITMAP
0050
0048
7c48
13fc
1240
1248
7fe8
12a8
12b0
1290
1c90
66b4
05cc
0804
ENDCHAR
STARTCHAR 02-80-75
ENCODING 28779
SWIDTH 960 0
DWIDTH 14 0
BBX 14 14 0 -2
BITMAP
0040
0040
7dfc
1108
1200
11f8
7c00
13fc
10a0
10a0
1d20
6124
0224
041c
ENDCHAR
STARTCHAR 02-80-76
ENCODING 28780
SWIDTH 960 0
DWIDTH 14 0
BBX 14 14 0 -2
BITMAP
0000
03f0
7c90
13fc
1090
1090
7ff0
1100
1100
11f8
1b08
6508
0108
01f8
ENDCHAR
STARTCHAR 02-80-77
ENCODING 28781
SWIDTH 960 0
DWIDTH 14 0
BBX 14 14 0 -2
BITMAP
0080
0080
7c80
11fc
1100
11fc
7e28
10b0
10a0
10bc
1ca0
60a0
0160
021c
ENDCHAR
STARTCHAR 02-80-78
ENCODING 28782
SWIDTH 960 0
DWIDTH 14 0
BBX 14 14 0 -2
BITMAP
0018
03f0
7e48
1244
1404
13f8
7c48
13fc
1048
13f8
1c48
6040
0040
00c0
ENDCHAR
STARTCHAR 02-80-79
ENCODING 28783
SWIDTH 960 0
DWIDTH 14 0
BBX 14 14 0 -2
BITMAP
0000
03f8
7e48
1248
12e8
1248
7ee8
1248
12e8
12a8
1ea8
64e8
0488
0818
ENDCHAR
STARTCHAR 02-80-80
ENCODING 28784
SWIDTH 960 0
DWIDTH 14 0
BBX 14 14 0 -2
BITMAP
0000
3ef8
0820
3ef8
0820
0820
0ffc
7900
0100
7ffc
0380
0d60
711c
0100
ENDCHAR
STARTCHAR 02-80-81
ENCODING 28785
SWIDTH 960 0
DWIDTH 14 0
BBX 14 14 0 -2
BITMAP
0040
0040
7ffc
1040
13f8
1358
7ed8
12e8
13f8
10e0
1d50
624c
0440
0040
ENDCHAR
STARTCHAR 02-80-82
ENCODING 28786
SWIDTH 960 0
DWIDTH 14 0
BBX 14 14 0 -2
BITMAP
0018
03e0
7c40
11f0
1150
1150
7df0
1040
13f8
1258
1e78
63d8
0208
0218
ENDCHAR
STARTCHAR 02-80-83
ENCODING 28787
SWIDTH 960 0
DWIDTH 14 0
BBX 14 14 0 -2
BITMAP
0040
0040
7ff8
1040
11f0
10a0
7ffc
1110
13f8
1514
1df0
6110
01f0
0110
ENDCHAR
STARTCHAR 02-80-84
ENCODING 28788
SWIDTH 960 0
DWIDTH 14 0
BBX 14 14 0 -2
BITMAP
0080
00f0
7d20
13f8
12a8
12a8
7f38
1258
1040
17fc
1c40
60a0
0110
060c
ENDCHAR
STARTCHAR 02-80-85
ENCODING 28789
SWIDTH 960 0
DWIDTH 14 0
BBX 14 14 0 -2
BITMAP
0000
01f0
7d10
11f0
1110
11f0
7c00
13fc
1100
13f8
1ca8
6128
0248
00b0
ENDCHAR
STARTCHAR 02-80-86
ENCODING 28790
SWIDTH 960 0
DWIDTH 14 0
BBX 14 14 0 -2
BITMAP
0040
0080
7df0
1110
11f0
1110
7df0
1000
13f8
1040
1df0
6040
07fc
0000
ENDCHAR
STARTCHAR 02-80-87
ENCODING 28791
SWIDTH 960 0
DWIDTH 14 0
BBX 14 14 0 -2
BITMAP
0108
0134
7dc4
12fc
12f8
1288
7ef8
1288
12f8
1288
1ef8
63fc
0188
0604
ENDCHAR
STARTCHAR 02-80-88
ENCODING 28792
SWIDTH 960 0
DWIDTH 14 0
BBX 14 14 0 -2
BITMAP
0020
0040
7ff8
1368
1298
1368
7e68
1298
13f8
1248
1d28
6324
0314
04f0
ENDCHAR
STARTCHAR 02-80-89
ENCODING 28793
SWIDTH 960 0
DWIDTH 14 0
BBX 14 14 0 -2
BITMAP
0148
0290
7d48
11f8
1148
11f8
7d48
11f8
1040
13fc
1ce0
6150
064c
0040
ENDCHAR
STARTCHAR 02-80-90
ENCODING 28794
SWIDTH 960 0
DWIDTH 14 0
BBX 14 14 0 -2
BITMAP
0220
0220
7fa0
127c
17c8
1248
7ea8
17a8
1230
1390
1e90
64a8
04c8
0984
ENDCHAR
STARTCHAR 02-80-91
ENCODING 28795
SWIDTH 960 0
DWIDTH 14 0
BBX 14 14 0 -2
BITMAP
0020
7f20
1220
3ff8
1220
1f20
6820
15fc
1e20
2160
7e50
0490
0888
1104
ENDCHAR
STARTCHAR 02-80-92
ENCODING 28796
SWIDTH 960 0
DWIDTH 14 0
BBX 14 14 0 -2
BITMAP
01a8
00a8
7eb4
1114
11f8
1208
7ffc
1108
11f8
1110
1c90
60a0
07fc
0000
ENDCHAR
STARTCHAR 02-80-93
ENCODING 28797
SWIDTH 960 0
DWIDTH 14 0
BBX 14 14 0 -2
BITMAP
1000
09f0
49f0
2110
21f0
1ffc
13f8
32a8
2558
7ffc
0100
1ff0
0108
7ffc
ENDCHAR
STARTCHAR 02-80-94
ENCODING 28798
SWIDTH 960 0
DWIDTH 14 0
BBX 14 14 0 -2
BITMAP
0040
0040
7ffc
10a4
1318
13f8
7d14
11f0
1110
11f0
1e48
6244
0444
00c0
ENDCHAR
STARTCHAR 02-81-01
ENCODING 28961
SWIDTH 960 0
DWIDTH 14 0
BBX 14 14 0 -2
BITMAP
0018
03e8
7e48
1150
13fc
10e0
7d50
13f8
1554
11f0
1d50
6150
01f0
0110
ENDCHAR
STARTCHAR 02-81-02
ENCODING 28962
SWIDTH 960 0
DWIDTH 14 0
BBX 14 14 0 -2
BITMAP
0248
0148
7c90
16fc
1190
1090
7ff8
1190
11f8
1190
1dfc
6180
02c0
043c
ENDCHAR
STARTCHAR 02-81-03
ENCODING 28963
SWIDTH 960 0
DWIDTH 14 0
BBX 14 14 0 -2
BITMAP
0320
0320
7fa0
133c
1228
13e8
7ca8
1798
1598
1590
1f98
64a8
00a4
0344
ENDCHAR
STARTCHAR 02-81-04
ENCODING 28964
SWIDTH 960 0
DWIDTH 14 0
BBX 14 14 0 -2
BITMAP
0000
01f0
7d10
11f0
1000
13bc
7ea4
13bc
1040
13fc
1ce0
6150
064c
0040
ENDCHAR
STARTCHAR 02-81-05
ENCODING 28965
SWIDTH 960 0
DWIDTH 14 0
BBX 14 14 0 -2
BITMAP
0248
0150
7ffc
1208
15f0
1110
7df0
1000
13f8
1248
1ff8
6248
03f8
0208
ENDCHAR
STARTCHAR 02-81-06
ENCODING 28966
SWIDTH 960 0
DWIDTH 14 0
BBX 14 14 0 -2
BITMAP
0040
03f8
7c40
11f0
13fc
11e8
7c40
11f0
13fc
1008
1ffc
62a8
0398
0218
ENDCHAR
STARTCHAR 02-81-07
ENCODING 28967
SWIDTH 960 0
DWIDTH 14 0
BBX 14 14 0 -2
BITMAP
0000
03fc
7d54
12ec
1154
1264
7c40
13fc
1110
12a8
1e64
63fc
0040
0040
ENDCHAR
STARTCHAR 02-81-08
ENCODING 28968
SWIDTH 960 0
DWIDTH 14 0
BBX 14 14 0 -2
BITMAP
1830
13d0
1a70
13d0
1bf0
12d0
3ffc
2008
5ff0
0100
1ff0
0120
0110
7ffc
ENDCHAR
STARTCHAR 02-81-09
ENCODING 28969
SWIDTH 960 0
DWIDTH 14 0
BBX 14 14 0 -2
BITMAP
0040
07fc
7fb8
12a8
13b8
10a0
7ffc
13f8
10a0
17fc
1948
6730
01d0
070c
ENDCHAR
STARTCHAR 02-81-10
ENCODING 28970
SWIDTH 960 0
DWIDTH 14 0
BBX 14 14 0 -2
BITMAP
00a0
03fc
7ca0
13b8
12a8
13b8
7c90
11fc
1320
11f8
1df8
6120
01fc
0100
ENDCHAR
STARTCHAR 02-81-11
ENCODING 28971
SWIDTH 960 0
DWIDTH 14 0
BBX 14 14 0 -2
BITMAP
0120
06a0
3aa0
2af8
2b20
2a20
2bfc
2a60
2a50
2a88
2f08
2d08
32c0
403c
ENDCHAR
STARTCHAR 02-81-12
ENCODING 28972
SWIDTH 960 0
DWIDTH 14 0
BBX 14 14 0 -2
BITMAP
0000
3ffc
2240
2240
3278
2a48
2468
2658
2a58
2948
314c
205c
3f64
2184
ENDCHAR
STARTCHAR 02-81-13
ENCODING 28973
SWIDTH 960 0
DWIDTH 14 0
BBX 14 14 0 -2
BITMAP
03c0
0820
1010
3ff8
4224
0420
18c0
7ffc
0400
07e0
0520
08a4
0fa4
701c
ENDCHAR
STARTCHAR 02-81-14
ENCODING 28974
SWIDTH 960 0
DWIDTH 14 0
BBX 14 14 0 -2
BITMAP
0000
7ff8
1080
10f0
1ef0
1280
1bfc
1680
16a0
1290
13e8
160c
1a04
61fc
ENDCHAR
STARTCHAR 02-81-15
ENCODING 28975
SWIDTH 960 0
DWIDTH 14 0
BBX 14 14 0 -2
BITMAP
0000
3efc
2040
3c40
2078
3c48
2068
7f58
1058
1848
2448
2a5c
726c
0184
ENDCHAR
STARTCHAR 02-81-16
ENCODING 28976
SWIDTH 960 0
DWIDTH 14 0
BBX 14 14 0 -2
BITMAP
0020
7e40
10f8
10f8
1e88
12f8
1a20
17e4
1678
12b0
1328
1664
1a04
61fc
ENDCHAR
STARTCHAR 02-81-17
ENCODING 28977
SWIDTH 960 0
DWIDTH 14 0
BBX 14 14 0 -2
BITMAP
0040
0140
7940
4940
4bfc
4a40
7c40
4840
4bf8
4840
7840
4840
07fc
0000
ENDCHAR
STARTCHAR 02-81-18
ENCODING 28978
SWIDTH 960 0
DWIDTH 14 0
BBX 14 14 0 -2
BITMAP
0020
7fa0
10a0
10a0
32fc
4b20
1d20
2cf8
4c20
1a20
2bfc
4a00
0980
307c
ENDCHAR
STARTCHAR 02-81-19
ENCODING 28979
SWIDTH 960 0
DWIDTH 14 0
BBX 14 14 0 -2
BITMAP
0100
0100
0200
1ff0
1110
1110
1ff0
1110
1110
1ff0
1110
1110
2110
4030
ENDCHAR
STARTCHAR 02-81-20
ENCODING 28980
SWIDTH 960 0
DWIDTH 14 0
BBX 14 14 0 -2
BITMAP
0040
0040
7c40
5440
5440
5440
7c40
54c0
54a0
54a0
7d10
4510
0208
0404
ENDCHAR
STARTCHAR 02-81-21
ENCODING 28981
SWIDTH 960 0
DWIDTH 14 0
BBX 14 14 0 -2
BITMAP
0000
03f8
7c08
5408
5508
5510
7c90
54a0
5460
5440
7ca0
4510
0208
0404
ENDCHAR
STARTCHAR 02-81-22
ENCODING 28982
SWIDTH 960 0
DWIDTH 14 0
BBX 14 14 0 -2
BITMAP
0008
0108
7d48
5548
5548
5548
7d48
5548
5548
5548
7d48
4508
0208
0008
ENDCHAR
STARTCHAR 02-81-23
ENCODING 28983
SWIDTH 960 0
DWIDTH 14 0
BBX 14 14 0 -2
BITMAP
0888
0888
1110
2220
1110
0888
0000
1ff0
1110
1ff0
1110
1110
1ff0
1010
ENDCHAR
STARTCHAR 02-81-24
ENCODING 28984
SWIDTH 960 0
DWIDTH 14 0
BBX 14 14 0 -2
BITMAP
0000
1ff0
1110
1ff0
1110
1110
1ff0
0000
7ffc
0440
0440
0840
1040
2040
ENDCHAR
STARTCHAR 02-81-25
ENCODING 28985
SWIDTH 960 0
DWIDTH 14 0
BBX 14 14 0 -2
BITMAP
0000
01fc
7d00
5500
55f8
5588
7d88
5550
5550
5520
7d20
4650
0288
0504
ENDCHAR
STARTCHAR 02-81-26
ENCODING 28986
SWIDTH 960 0
DWIDTH 14 0
BBX 14 14 0 -2
BITMAP
0040
0050
7c48
5448
57fc
5440
7c40
5460
54a0
54a0
7d10
4510
0208
0404
ENDCHAR
STARTCHAR 02-81-27
ENCODING 28987
SWIDTH 960 0
DWIDTH 14 0
BBX 14 14 0 -2
BITMAP
0000
3ff8
0000
0fe0
0820
0820
0fe0
0000
1ff0
1110
1ff0
1110
1ff0
1010
ENDCHAR
STARTCHAR 02-81-28
ENCODING 28988
SWIDTH 960 0
DWIDTH 14 0
BBX 14 14 0 -2
BITMAP
0820
0820
0820
7f20
0020
3e20
2a20
2a60
3e70
2a50
2a90
2a88
3f08
2204
ENDCHAR
STARTCHAR 02-81-29
ENCODING 28989
SWIDTH 960 0
DWIDTH 14 0
BBX 14 14 0 -2
BITMAP
0100
0280
0440
1ff0
610c
3ff8
0920
3310
1ff8
1110
1ff0
1110
1ff0
1010
ENDCHAR
STARTCHAR 02-81-30
ENCODING 28990
SWIDTH 960 0
DWIDTH 14 0
BBX 14 14 0 -2
BITMAP
0100
0280
0440
1ff0
600c
3ff8
0920
3318
1ff0
1110
1ff0
1110
1ff0
1010
ENDCHAR
STARTCHAR 02-81-31
ENCODING 28991
SWIDTH 960 0
DWIDTH 14 0
BBX 14 14 0 -2
BITMAP
0000
7ffc
0280
3ef8
2288
3ef8
0480
0880
1ff0
1110
1ff0
1110
1ff0
1010
ENDCHAR
STARTCHAR 02-81-32
ENCODING 28992
SWIDTH 960 0
DWIDTH 14 0
BBX 14 14 0 -2
BITMAP
0000
7ffc
1ff0
1110
1ff0
1110
1ff0
7ffc
1ff0
1110
1ff0
1110
1ff0
7ffc
ENDCHAR
STARTCHAR 02-81-33
ENCODING 28993
SWIDTH 960 0
DWIDTH 14 0
BBX 14 14 0 -2
BITMAP
0008
01f0
7c40
57fc
5440
55f8
7d48
55f8
5548
55f8
7c40
45f8
0040
03fc
ENDCHAR
STARTCHAR 02-81-34
ENCODING 28994
SWIDTH 960 0
DWIDTH 14 0
BBX 14 14 0 -2
BITMAP
0000
0fe0
0920
0fe0
0920
0fe0
0820
3ef8
2aa8
2aa8
3ef8
2aa8
3ef8
2288
ENDCHAR
STARTCHAR 02-81-35
ENCODING 28995
SWIDTH 960 0
DWIDTH 14 0
BBX 14 14 0 -2
BITMAP
0000
03f8
7d98
56a8
55d8
56a8
7cc8
5520
5650
55ac
7c48
4590
0060
0380
ENDCHAR
STARTCHAR 02-81-36
ENCODING 28996
SWIDTH 960 0
DWIDTH 14 0
BBX 14 14 0 -2
BITMAP
0000
1ff0
0040
0180
0900
0900
09f0
0900
0900
0900
0930
09c0
0e00
1800
ENDCHAR
STARTCHAR 02-81-37
ENCODING 28997
SWIDTH 960 0
DWIDTH 14 0
BBX 14 14 0 -2
BITMAP
0100
3ff8
0100
1ff0
0110
7ffc
0110
1ff0
0100
09f0
0900
1d00
1300
20f8
ENDCHAR
STARTCHAR 02-81-38
ENCODING 28998
SWIDTH 960 0
DWIDTH 14 0
BBX 14 14 0 -2
BITMAP
0080
0080
0ffc
4800
2880
2880
0880
1ff8
2880
4880
1080
1080
3ffc
4000
ENDCHAR
STARTCHAR 02-81-39
ENCODING 28999
SWIDTH 960 0
DWIDTH 14 0
BBX 14 14 0 -2
BITMAP
0080
0080
0ffc
4800
2880
2888
0a88
1a90
2ca0
4940
1140
1220
2410
580c
ENDCHAR
STARTCHAR 02-81-40
ENCODING 29000
SWIDTH 960 0
DWIDTH 14 0
BBX 14 14 0 -2
BITMAP
0080
0080
0ffc
4800
2888
2888
08d0
1fe0
29a0
4990
1290
1488
2884
4180
ENDCHAR
STARTCHAR 02-81-41
ENCODING 29001
SWIDTH 960 0
DWIDTH 14 0
BBX 14 14 0 -2
BITMAP
0080
0080
0ffc
4900
2880
2ff8
0880
1880
2bf0
4880
1080
1080
3ffc
4000
ENDCHAR
STARTCHAR 02-81-42
ENCODING 29002
SWIDTH 960 0
DWIDTH 14 0
BBX 14 14 0 -2
BITMAP
0080
0080
0ffc
4818
2be0
2a40
0a40
1bfc
2a20
4a20
1390
1c14
27ec
4004
ENDCHAR
STARTCHAR 02-81-43
ENCODING 29003
SWIDTH 960 0
DWIDTH 14 0
BBX 14 14 0 -2
BITMAP
0080
0080
0ffc
4920
2ff8
2928
0ff8
1d20
2ffc
4d24
1124
1238
2220
4420
ENDCHAR
STARTCHAR 02-81-44
ENCODING 29004
SWIDTH 960 0
DWIDTH 14 0
BBX 14 14 0 -2
BITMAP
0080
0080
0ffc
4900
2900
2bf8
0a08
1de8
2928
49e8
1128
1008
2008
4030
ENDCHAR
STARTCHAR 02-81-45
ENCODING 29005
SWIDTH 960 0
DWIDTH 14 0
BBX 14 14 0 -2
BITMAP
0080
0080
0ffc
4800
2bf8
2a08
0bf8
1a08
2a80
4a98
12e0
1484
2484
487c
ENDCHAR
STARTCHAR 02-81-46
ENCODING 29006
SWIDTH 960 0
DWIDTH 14 0
BBX 14 14 0 -2
BITMAP
0080
0080
0ffc
4880
2880
2ffc
0900
1bf0
2e10
4bf0
1210
13f0
2210
4230
ENDCHAR
STARTCHAR 02-81-47
ENCODING 29007
SWIDTH 960 0
DWIDTH 14 0
BBX 14 14 0 -2
BITMAP
0080
0080
0ffc
4800
2ff8
2940
0a30
1fc8
2880
4ff8
1080
1080
3ffc
4000
ENDCHAR
STARTCHAR 02-81-48
ENCODING 29008
SWIDTH 960 0
DWIDTH 14 0
BBX 14 14 0 -2
BITMAP
0080
0080
4ffc
2a20
2ffc
0a20
1a48
2a90
4a24
0bc8
1510
1564
2904
50fc
ENDCHAR
STARTCHAR 02-81-49
ENCODING 29009
SWIDTH 960 0
DWIDTH 14 0
BBX 14 14 0 -2
BITMAP
0080
0080
0ffc
48d0
2948
2a48
0bf8
1a08
2bf8
4a08
13f8
1208
2208
4218
ENDCHAR
STARTCHAR 02-81-50
ENCODING 29010
SWIDTH 960 0
DWIDTH 14 0
BBX 14 14 0 -2
BITMAP
0080
0080
0ffc
48a0
2910
2ff8
0948
1a44
2d3c
4be0
1520
10c0
2330
4c0c
ENDCHAR
STARTCHAR 02-81-51
ENCODING 29011
SWIDTH 960 0
DWIDTH 14 0
BBX 14 14 0 -2
BITMAP
0080
0080
0ffc
4c20
2a20
2ab0
0ca8
1aa4
2b2c
4828
1270
1410
2460
4980
ENDCHAR
STARTCHAR 02-81-52
ENCODING 29012
SWIDTH 960 0
DWIDTH 14 0
BBX 14 14 0 -2
BITMAP
0080
0080
0ffc
4800
2bf0
2bf0
0a10
1bf0
2ffc
4bf8
12a8
1528
2248
40b0
ENDCHAR
STARTCHAR 02-81-53
ENCODING 29013
SWIDTH 960 0
DWIDTH 14 0
BBX 14 14 0 -2
BITMAP
0080
0080
0ffc
4800
2bf8
2a00
0bf0
1bf0
2a00
4ffc
1290
1260
2330
4c0c
ENDCHAR
STARTCHAR 02-81-54
ENCODING 29014
SWIDTH 960 0
DWIDTH 14 0
BBX 14 14 0 -2
BITMAP
0080
0080
0ffc
4920
2920
2f3c
0920
1920
2f3c
4920
1f3c
1220
2220
4420
ENDCHAR
STARTCHAR 02-81-55
ENCODING 29015
SWIDTH 960 0
DWIDTH 14 0
BBX 14 14 0 -2
BITMAP
0080
0ffc
0800
4bf0
2a90
2bf0
0a90
1bf0
2800
4ffc
1120
1120
2220
4420
ENDCHAR
STARTCHAR 02-81-56
ENCODING 29016
SWIDTH 960 0
DWIDTH 14 0
BBX 14 14 0 -2
BITMAP
0080
0080
0ffc
4800
2ff8
2900
0ea8
19e8
2ef0
4ed0
1350
1248
2c44
4180
ENDCHAR
STARTCHAR 02-81-57
ENCODING 29017
SWIDTH 960 0
DWIDTH 14 0
BBX 14 14 0 -2
BITMAP
0080
0ffc
0c90
4aa0
2ff8
29c0
09a0
1a90
2c88
4ffc
1220
1720
20e0
4f18
ENDCHAR
STARTCHAR 02-81-58
ENCODING 29018
SWIDTH 960 0
DWIDTH 14 0
BBX 14 14 0 -2
BITMAP
0080
0ffc
0830
4bc0
2ffc
2880
0bf0
1a90
2bf0
4a90
13f0
17f8
2080
4ffc
ENDCHAR
STARTCHAR 02-81-59
ENCODING 29019
SWIDTH 960 0
DWIDTH 14 0
BBX 14 14 0 -2
BITMAP
0080
0080
0ffc
4890
2ff0
28a0
0ffc
1910
2bf8
4d10
11f0
1110
21f0
4110
ENDCHAR
STARTCHAR 02-81-60
ENCODING 29020
SWIDTH 960 0
DWIDTH 14 0
BBX 14 14 0 -2
BITMAP
0080
0080
0ffc
4880
2bf0
2a10
0bf0
1a10
2bf0
4ff8
1080
13f0
2080
4ffc
ENDCHAR
STARTCHAR 02-81-61
ENCODING 29021
SWIDTH 960 0
DWIDTH 14 0
BBX 14 14 0 -2
BITMAP
0080
0ffc
0800
4bf0
2a10
2bf0
0a10
1bf0
2900
4bf8
1c88
1548
2648
47d8
ENDCHAR
STARTCHAR 02-81-62
ENCODING 29022
SWIDTH 960 0
DWIDTH 14 0
BBX 14 14 0 -2
BITMAP
0080
0080
0ffc
4900
29e0
2a40
0ff8
1aa8
2ab8
4b08
17fc
1120
2210
4c0c
ENDCHAR
STARTCHAR 02-81-63
ENCODING 29023
SWIDTH 960 0
DWIDTH 14 0
BBX 14 14 0 -2
BITMAP
0080
0080
0ffc
4b00
2ef8
2b28
0e28
1b48
2e88
4ab0
1148
1554
2514
48f0
ENDCHAR
STARTCHAR 02-81-64
ENCODING 29024
SWIDTH 960 0
DWIDTH 14 0
BBX 14 14 0 -2
BITMAP
0080
0080
0ffc
4880
2bf0
2a10
0bf0
1bf0
2a10
4bf0
1188
1554
2514
48f0
ENDCHAR
STARTCHAR 02-81-65
ENCODING 29025
SWIDTH 960 0
DWIDTH 14 0
BBX 14 14 0 -2
BITMAP
0080
0ffc
0800
4ff0
2ffc
2910
0ff0
1bf8
2d08
49f8
17f8
1488
2488
44b0
ENDCHAR
STARTCHAR 02-81-66
ENCODING 29026
SWIDTH 960 0
DWIDTH 14 0
BBX 14 14 0 -2
BITMAP
0080
0080
0ffc
4910
2bf8
2840
09f0
1840
2ffc
4900
13f8
1440
2bfc
4000
ENDCHAR
STARTCHAR 02-81-67
ENCODING 29027
SWIDTH 960 0
DWIDTH 14 0
BBX 14 14 0 -2
BITMAP
0080
0ffc
0a00
4bf8
2df8
2c00
0df0
1d10
2df0
4d10
15f0
17fc
2210
440c
ENDCHAR
STARTCHAR 02-81-68
ENCODING 29028
SWIDTH 960 0
DWIDTH 14 0
BBX 14 14 0 -2
BITMAP
0080
0080
0ffc
4920
2ffc
2920
0bf0
1a10
2bf0
4bf0
1080
17fc
2320
4c18
ENDCHAR
STARTCHAR 02-81-69
ENCODING 29029
SWIDTH 960 0
DWIDTH 14 0
BBX 14 14 0 -2
BITMAP
0080
0ffc
0800
4ff8
2998
2ee8
0998
1ee8
2b70
4cdc
1360
1190
2060
4780
ENDCHAR
STARTCHAR 02-81-70
ENCODING 29030
SWIDTH 960 0
DWIDTH 14 0
BBX 14 14 0 -2
BITMAP
0080
0ffc
0800
4bfc
2a00
2af0
0a90
1af0
2bf8
4b68
13f8
1200
23fc
4200
ENDCHAR
STARTCHAR 02-81-71
ENCODING 29031
SWIDTH 960 0
DWIDTH 14 0
BBX 14 14 0 -2
BITMAP
0080
0080
0ffc
4bf0
2a90
2bf0
0ffc
1bf0
2a10
4bf0
13f0
1210
23f0
4418
ENDCHAR
STARTCHAR 02-81-72
ENCODING 29032
SWIDTH 960 0
DWIDTH 14 0
BBX 14 14 0 -2
BITMAP
0080
0ffc
0a40
4a7c
2cf8
2948
0a78
1a48
2e78
4a20
1278
1390
2270
438c
ENDCHAR
STARTCHAR 02-81-73
ENCODING 29033
SWIDTH 960 0
DWIDTH 14 0
BBX 14 14 0 -2
BITMAP
0080
0ffc
0800
4a20
2fb0
2a48
0f94
1ea0
2fc8
4e90
17e4
1208
2f90
4260
ENDCHAR
STARTCHAR 02-81-74
ENCODING 29034
SWIDTH 960 0
DWIDTH 14 0
BBX 14 14 0 -2
BITMAP
0080
0080
0ffc
4b70
2b50
2b70
0bf0
1a90
2bf0
4a90
13f0
1ffc
2080
4080
ENDCHAR
STARTCHAR 02-81-75
ENCODING 29035
SWIDTH 960 0
DWIDTH 14 0
BBX 14 14 0 -2
BITMAP
0080
0ffc
0880
4ffc
2950
2950
0e7c
1ad0
2978
4ad0
17f8
1150
227c
4440
ENDCHAR
STARTCHAR 02-81-76
ENCODING 29036
SWIDTH 960 0
DWIDTH 14 0
BBX 14 14 0 -2
BITMAP
0080
0ffc
0800
4f7c
2a10
2ffc
0a44
1f7c
2ac4
487c
1544
157c
25a8
4944
ENDCHAR
STARTCHAR 02-81-77
ENCODING 29037
SWIDTH 960 0
DWIDTH 14 0
BBX 14 14 0 -2
BITMAP
0080
0ffc
0818
4fe8
2da4
2ef8
0ffc
1d78
2dfc
4d78
1648
15a4
258c
4678
ENDCHAR
STARTCHAR 02-81-78
ENCODING 29038
SWIDTH 960 0
DWIDTH 14 0
BBX 14 14 0 -2
BITMAP
0000
7ffc
0820
1040
3ef8
2288
2288
2288
3ef8
2288
2288
2288
3ef8
2288
ENDCHAR
STARTCHAR 02-81-79
ENCODING 29039
SWIDTH 960 0
DWIDTH 14 0
BBX 14 14 0 -2
BITMAP
1040
13f8
2000
79f0
4910
49f0
7800
4bf8
4a08
4ae8
7aa8
4ae8
0208
0218
ENDCHAR
STARTCHAR 02-81-80
ENCODING 29040
SWIDTH 960 0
DWIDTH 14 0
BBX 14 14 0 -2
BITMAP
1040
1080
23f8
7a08
4bf8
4a08
7bf8
4840
4b58
4840
7b58
4ffc
0040
0040
ENDCHAR
STARTCHAR 02-81-81
ENCODING 29041
SWIDTH 960 0
DWIDTH 14 0
BBX 14 14 0 -2
BITMAP
1040
1248
2248
7bf8
4a98
48a0
79fc
4920
4bf8
4d20
79f8
4920
01fc
0100
ENDCHAR
STARTCHAR 02-81-82
ENCODING 29042
SWIDTH 960 0
DWIDTH 14 0
BBX 14 14 0 -2
BITMAP
1030
13c8
2290
7960
4bfc
4a48
7da8
4a94
4cf0
49f8
7a90
4860
0090
030c
ENDCHAR
STARTCHAR 02-81-83
ENCODING 29043
SWIDTH 960 0
DWIDTH 14 0
BBX 14 14 0 -2
BITMAP
0200
0fe0
0820
0fe0
0fe0
1040
3ef8
2288
3ef8
3ef8
0100
1ff0
0100
7ffc
ENDCHAR
STARTCHAR 02-81-84
ENCODING 29044
SWIDTH 960 0
DWIDTH 14 0
BBX 14 14 0 -2
BITMAP
0800
09fc
3f20
2a20
2c20
2820
3ffc
3220
2a20
2420
2420
2a20
3220
4020
ENDCHAR
STARTCHAR 02-81-85
ENCODING 29045
SWIDTH 960 0
DWIDTH 14 0
BBX 14 14 0 -2
BITMAP
0200
0200
7ffc
0200
07e0
0420
0a40
1180
6e78
1ff0
1290
1290
7ffc
0000
ENDCHAR
STARTCHAR 02-81-86
ENCODING 29046
SWIDTH 960 0
DWIDTH 14 0
BBX 14 14 0 -2
BITMAP
0070
1f80
0100
7ffc
0380
0540
1930
610c
1ff0
1290
1290
1290
7ffc
0000
ENDCHAR
STARTCHAR 02-81-87
ENCODING 29047
SWIDTH 960 0
DWIDTH 14 0
BBX 14 14 0 -2
BITMAP
0000
1ff0
1110
1110
1390
1450
1850
1ff0
0000
1ff0
1290
1290
7ffc
0000
ENDCHAR
STARTCHAR 02-81-88
ENCODING 29048
SWIDTH 960 0
DWIDTH 14 0
BBX 14 14 0 -2
BITMAP
1000
17fc
2840
49f8
15f8
25f8
4908
11f8
2188
4604
1ff0
1290
7ffc
0000
ENDCHAR
STARTCHAR 02-81-89
ENCODING 29049
SWIDTH 960 0
DWIDTH 14 0
BBX 14 14 0 -2
BITMAP
0080
7ef8
5120
7ffc
4420
7c20
50f8
5088
7cf8
0088
1ff0
1290
7ffc
0000
ENDCHAR
STARTCHAR 02-81-90
ENCODING 29050
SWIDTH 960 0
DWIDTH 14 0
BBX 14 14 0 -2
BITMAP
0040
0040
7840
4ffc
48e0
78e0
4950
4950
7a48
4a48
4c44
7840
4840
0040
ENDCHAR
STARTCHAR 02-81-91
ENCODING 29051
SWIDTH 960 0
DWIDTH 14 0
BBX 14 14 0 -2
BITMAP
0100
0100
7900
4bf8
4a08
7de8
4928
4928
7928
49e8
4928
7808
4808
0030
ENDCHAR
STARTCHAR 02-81-92
ENCODING 29052
SWIDTH 960 0
DWIDTH 14 0
BBX 14 14 0 -2
BITMAP
1100
1ff0
2100
3ff8
0100
7ffc
0000
1ff0
1010
1ff0
1ff0
1010
1ff0
1010
ENDCHAR
STARTCHAR 02-81-93
ENCODING 29053
SWIDTH 960 0
DWIDTH 14 0
BBX 14 14 0 -2
BITMAP
0040
0040
7bf8
4840
4840
7ffc
4840
4840
7bf8
4840
4840
7840
47fc
0000
ENDCHAR
STARTCHAR 02-81-94
ENCODING 29054
SWIDTH 960 0
DWIDTH 14 0
BBX 14 14 0 -2
BITMAP
0040
0078
7888
4b50
4820
7840
4ba0
483c
7844
48a8
4b18
7810
4860
0380
ENDCHAR
STARTCHAR 02-82-01
ENCODING 29217
SWIDTH 960 0
DWIDTH 14 0
BBX 14 14 0 -2
BITMAP
0000
02f8
7a88
4a88
4af8
7a88
4a88
4af8
7aa8
4920
4920
7924
4a24
041c
ENDCHAR
STARTCHAR 02-82-02
ENCODING 29218
SWIDTH 960 0
DWIDTH 14 0
BBX 14 14 0 -2
BITMAP
0040
0040
7840
4ffc
4950
7950
4950
4ae8
7c44
48a0
48a0
7910
4a08
0404
ENDCHAR
STARTCHAR 02-82-03
ENCODING 29219
SWIDTH 960 0
DWIDTH 14 0
BBX 14 14 0 -2
BITMAP
0040
0040
78a0
4910
4bf8
7c44
4bf8
4a48
7bf8
4a48
48a0
7890
4908
0604
ENDCHAR
STARTCHAR 02-82-04
ENCODING 29220
SWIDTH 960 0
DWIDTH 14 0
BBX 14 14 0 -2
BITMAP
0040
0040
787c
4840
4bf8
7a08
4bf8
4a08
7bf8
4840
4ffc
7840
4840
0040
ENDCHAR
STARTCHAR 02-82-05
ENCODING 29221
SWIDTH 960 0
DWIDTH 14 0
BBX 14 14 0 -2
BITMAP
0000
1ff0
1290
1ff0
0000
3ff8
0fe0
0820
0ff0
0610
1d20
64c0
0730
0c0c
ENDCHAR
STARTCHAR 02-82-06
ENCODING 29222
SWIDTH 960 0
DWIDTH 14 0
BBX 14 14 0 -2
BITMAP
0040
0150
7948
4bf8
48a0
7ffc
4910
4bf8
7d14
4910
4960
7908
4908
00f8
ENDCHAR
STARTCHAR 02-82-07
ENCODING 29223
SWIDTH 960 0
DWIDTH 14 0
BBX 14 14 0 -2
BITMAP
0000
3ff8
2448
3ff8
0100
1ff0
0100
7ffc
0440
3ff8
0100
7ffc
0100
0100
ENDCHAR
STARTCHAR 02-82-08
ENCODING 29224
SWIDTH 960 0
DWIDTH 14 0
BBX 14 14 0 -2
BITMAP
0120
0120
7ff8
4920
4ffc
7880
4bf8
4a88
7ba8
4ba8
4be8
7b28
4a08
0218
ENDCHAR
STARTCHAR 02-82-09
ENCODING 29225
SWIDTH 960 0
DWIDTH 14 0
BBX 14 14 0 -2
BITMAP
0000
01f0
7910
49f0
4910
79f0
4940
49fc
7a40
4df8
4840
7840
4bfc
0000
ENDCHAR
STARTCHAR 02-82-10
ENCODING 29226
SWIDTH 960 0
DWIDTH 14 0
BBX 14 14 0 -2
BITMAP
0000
01f0
7910
49f0
4910
79f0
4800
4ffc
7840
4a78
4a40
7b40
44c0
083c
ENDCHAR
STARTCHAR 02-82-11
ENCODING 29227
SWIDTH 960 0
DWIDTH 14 0
BBX 14 14 0 -2
BITMAP
01d0
0054
7aa4
49a8
4910
7a08
49f4
4840
7840
4bf8
48a0
7890
4908
0608
ENDCHAR
STARTCHAR 02-82-12
ENCODING 29228
SWIDTH 960 0
DWIDTH 14 0
BBX 14 14 0 -2
BITMAP
0110
0110
7ffc
4910
4840
78a0
4910
4eec
7800
49f0
4910
7910
49f0
0110
ENDCHAR
STARTCHAR 02-82-13
ENCODING 29229
SWIDTH 960 0
DWIDTH 14 0
BBX 14 14 0 -2
BITMAP
0040
0078
78c8
4930
4ea0
78c0
4f00
49f8
7a40
4ffc
4a48
7a48
4bf8
0208
ENDCHAR
STARTCHAR 02-82-14
ENCODING 29230
SWIDTH 960 0
DWIDTH 14 0
BBX 14 14 0 -2
BITMAP
0040
0040
7bfc
4a08
4ffc
7840
49f8
4948
79f8
4948
49f8
7890
4108
0604
ENDCHAR
STARTCHAR 02-82-15
ENCODING 29231
SWIDTH 960 0
DWIDTH 14 0
BBX 14 14 0 -2
BITMAP
0000
07fc
78a0
4bf8
4aa8
7bf8
4800
4bf8
7800
4ffc
4950
7a48
4448
00c0
ENDCHAR
STARTCHAR 02-82-16
ENCODING 29232
SWIDTH 960 0
DWIDTH 14 0
BBX 14 14 0 -2
BITMAP
0440
7ffc
0440
1ff0
1290
1ff0
3ffc
2008
4fe0
0fe0
0fe0
0820
0fe0
0820
ENDCHAR
STARTCHAR 02-82-17
ENCODING 29233
SWIDTH 960 0
DWIDTH 14 0
BBX 14 14 0 -2
BITMAP
0000
0778
7548
5778
5548
7778
5408
55e8
7488
55e8
5488
75e8
5408
0418
ENDCHAR
STARTCHAR 02-82-18
ENCODING 29234
SWIDTH 960 0
DWIDTH 14 0
BBX 14 14 0 -2
BITMAP
0000
03f8
7a08
4bf8
4a78
7bc0
4af0
4ad0
7af0
4bf8
4ba8
7df8
4508
0918
ENDCHAR
STARTCHAR 02-82-19
ENCODING 29235
SWIDTH 960 0
DWIDTH 14 0
BBX 14 14 0 -2
BITMAP
0000
1fe0
0480
7ffc
0510
1920
6300
3ff8
2288
24f8
2fc8
3448
27c8
2018
ENDCHAR
STARTCHAR 02-82-20
ENCODING 29236
SWIDTH 960 0
DWIDTH 14 0
BBX 14 14 0 -2
BITMAP
0020
3eb0
12a8
0d28
04f8
7f88
0d88
0ef8
1488
1488
24f8
4488
0488
0c98
ENDCHAR
STARTCHAR 02-82-21
ENCODING 29237
SWIDTH 960 0
DWIDTH 14 0
BBX 14 14 0 -2
BITMAP
0100
7d00
0500
05f8
3e40
2440
2040
3ffc
2440
04a0
04a0
0510
0908
3204
ENDCHAR
STARTCHAR 02-82-22
ENCODING 29238
SWIDTH 960 0
DWIDTH 14 0
BBX 14 14 0 -2
BITMAP
0200
07e0
18c0
6100
1ffc
1200
13f0
1480
1880
1ffc
10c0
2120
2610
580c
ENDCHAR
STARTCHAR 02-82-23
ENCODING 29239
SWIDTH 960 0
DWIDTH 14 0
BBX 14 14 0 -2
BITMAP
1020
1040
10f8
1ec8
28a8
28a8
4888
7ffc
08a8
0ca8
12a8
1328
2108
4218
ENDCHAR
STARTCHAR 02-82-24
ENCODING 29240
SWIDTH 960 0
DWIDTH 14 0
BBX 14 14 0 -2
BITMAP
1040
1040
1150
1f50
2950
2958
4ae4
7c44
0840
09f8
1440
1440
27fc
4000
ENDCHAR
STARTCHAR 02-82-25
ENCODING 29241
SWIDTH 960 0
DWIDTH 14 0
BBX 14 14 0 -2
BITMAP
1000
11f8
1108
1ff8
2908
29f8
4908
7ff8
09a8
0ca0
12a0
1324
2124
421c
ENDCHAR
STARTCHAR 02-82-26
ENCODING 29242
SWIDTH 960 0
DWIDTH 14 0
BBX 14 14 0 -2
BITMAP
11f0
1010
1108
1ffc
2b58
2ae8
4bf8
7c00
08f0
0c90
12f0
1290
20f0
4090
ENDCHAR
STARTCHAR 02-82-27
ENCODING 29243
SWIDTH 960 0
DWIDTH 14 0
BBX 14 14 0 -2
BITMAP
0000
7dfc
1020
1020
1020
3c20
2420
6420
2420
2420
3c20
2420
2020
0060
ENDCHAR
STARTCHAR 02-82-28
ENCODING 29244
SWIDTH 960 0
DWIDTH 14 0
BBX 14 14 0 -2
BITMAP
0080
7e80
1080
11fc
1100
3df8
2610
6420
2440
2480
3c80
2504
2104
00fc
ENDCHAR
STARTCHAR 02-82-29
ENCODING 29245
SWIDTH 960 0
DWIDTH 14 0
BBX 14 14 0 -2
BITMAP
0000
7ef8
1088
1088
1088
3cf8
24a8
64a0
24a0
24a0
3d10
2510
2208
0404
ENDCHAR
STARTCHAR 02-82-30
ENCODING 29246
SWIDTH 960 0
DWIDTH 14 0
BBX 14 14 0 -2
BITMAP
0040
7e40
1048
1068
17e8
3cf0
24d0
64d0
2550
2548
3e48
2444
2040
00c0
ENDCHAR
STARTCHAR 02-82-31
ENCODING 29247
SWIDTH 960 0
DWIDTH 14 0
BBX 14 14 0 -2
BITMAP
0040
7e40
1040
13f8
1040
3c40
2440
67fc
2440
24a0
3ca0
2510
2208
0404
ENDCHAR
STARTCHAR 02-82-32
ENCODING 29248
SWIDTH 960 0
DWIDTH 14 0
BBX 14 14 0 -2
BITMAP
0100
01f8
3f00
03f8
3d00
03f8
3d00
0100
7ffc
0200
07f0
1c10
67f0
0410
ENDCHAR
STARTCHAR 02-82-33
ENCODING 29249
SWIDTH 960 0
DWIDTH 14 0
BBX 14 14 0 -2
BITMAP
0080
7e80
1080
1080
11fc
3d48
2650
6440
2440
2440
3ca0
2520
2210
040c
ENDCHAR
ENDFONT
